<?xml version="1.0" encoding="UTF-8" standalone="no"?>
<!-- Created with Inkscape (http://www.inkscape.org/) -->

<svg
   width="128"
   height="128"
   viewBox="0 0 33.866666 33.866666"
   version="1.1"
   id="svg1"
   sodipodi:docname="box-for-a-variable.svg"
   inkscape:version="1.3.2 (091e20ef0f, 2023-11-25)"
   xmlns:inkscape="http://www.inkscape.org/namespaces/inkscape"
   xmlns:sodipodi="http://sodipodi.sourceforge.net/DTD/sodipodi-0.dtd"
   xmlns="http://www.w3.org/2000/svg"
   xmlns:svg="http://www.w3.org/2000/svg">
  <sodipodi:namedview
     id="namedview1"
     pagecolor="#ffffff"
     bordercolor="#000000"
     borderopacity="1"
     inkscape:showpageshadow="2"
     inkscape:pageopacity="0.0"
     inkscape:pagecheckerboard="0"
     inkscape:deskcolor="#d1d1d1"
     inkscape:document-units="mm"
     inkscape:zoom="4.4447732"
     inkscape:cx="58.720656"
     inkscape:cy="86.843576"
     inkscape:window-width="1920"
     inkscape:window-height="1128"
     inkscape:window-x="0"
     inkscape:window-y="0"
     inkscape:window-maximized="1"
     inkscape:current-layer="layer2" />
  <defs
     id="defs1" />
  <g
     inkscape:groupmode="layer"
     id="layer2"
     inkscape:label="Background"
     sodipodi:insensitive="true">
    <rect
       style="fill:#ffffff;fill-opacity:1;stroke-width:0.264583"
       id="rect16"
       width="51.546139"
       height="41.962318"
       x="-7.1432214"
       y="-3.154923" />
  </g>
  <g
     inkscape:label="Layer 1"
     inkscape:groupmode="layer"
     id="layer1">
    <path
       style="fill:#000000;stroke-width:0.264583"
       id="path1"
       d="m 6.7023559,5.9564759 c -0.00482,0.050497 -0.00709,0.1013005 -0.014444,0.1514898 C 6.5528187,7.0295269 6.3521621,7.9408628 6.2099239,8.8614823 6.1566734,9.2061391 6.1114257,9.551985 6.0621766,9.8972363 5.8310721,11.687172 5.6424999,13.482953 5.4802833,15.28044 c -0.046513,0.622806 -0.1050642,1.246652 -0.1044686,1.871854 2.91e-4,0.309031 0.00958,0.378529 0.029403,0.681552 0.035099,0.441233 0.1100024,0.877117 0.1995138,1.310066 0.049717,0.219966 0.076264,0.443452 0.086699,0.668421 0.00324,0.127185 0.03934,0.241323 0.1598898,0.310484 0.3490437,0.200252 0.699357,0.400903 1.0664463,0.565761 0.1241425,0.05575 0.9015412,0.168935 0.9484868,0.176474 0.2519306,0.03175 0.5031583,0.06969 0.7557918,0.09525 0.5233842,0.05296 1.8532358,0.149142 2.3353158,0.179285 1.425113,0.0891 2.852162,0.148666 4.278579,0.211964 1.867796,0.0811 3.736899,0.123205 5.605985,0.160101 0.528565,0.0094 1.057036,0.02538 1.585712,0.02606 0.222306,-0.0098 0.447098,0.01754 0.668368,-0.0083 0.02995,-0.02812 0.07074,-0.04798 0.08985,-0.08435 0.139184,-0.264903 0.22499,-0.875297 0.267611,-1.159211 0.09397,-0.625972 0.08622,-0.689656 0.140198,-1.363325 0.117996,-1.547831 0.15221,-3.099444 0.175471,-4.650919 0.0024,-1.010671 0.03798,-2.020456 0.0754,-3.03026 0.01508,-0.500352 0.0258,-1.000816 0.03776,-1.5012473 0.0075,-0.2229654 0.0081,-0.4460213 0.0075,-0.6690804 0.0088,-0.1792285 0.0061,-0.3207036 -0.175974,-0.4183986 C 22.594223,8.0518208 22.972428,8.1582703 22.159649,8.029445 20.019208,7.8244382 17.866647,7.7909676 15.718376,7.7402305 13.241551,7.6785162 10.764113,7.6539565 8.2868261,7.6201883 7.428104,7.6090202 6.5695554,7.5882925 5.7108997,7.5734764 c -0.1352431,-0.00246 -0.2704939,-0.00441 -0.4057531,-0.00568 0,0 0.797242,0.5789324 0.797242,0.5789324 v 0 c 0.1290409,-0.00188 0.2580645,-0.00467 0.3870795,-0.00787 0.8163015,-0.018875 1.6326083,-0.038762 2.4491397,-0.044767 2.4458772,-0.016613 4.8921792,-0.00494 7.3374812,0.0537 1.352113,0.042681 2.702363,0.093918 4.052428,0.1817405 0.572583,0.037247 1.304004,0.089451 1.883622,0.1540028 0.222978,0.024834 0.444732,0.05964 0.667098,0.08946 0.767919,0.1663017 0.495532,0.1703083 -0.06545,-0.2697628 -0.04113,-0.032263 0.09998,0.034058 0.143798,0.062554 0.07878,0.051225 0.05942,0.081264 0.05991,0.1619123 1.98e-4,0.033041 3.17e-4,0.066083 4.5e-4,0.099124 -2.65e-4,0.2250659 7.14e-4,0.4501142 0.0058,0.6751357 0.006,0.5056571 0.0047,1.0113847 -0.0033,1.5170167 -0.0099,1.022236 -0.01456,2.044407 -0.0067,3.066682 -0.0096,1.549857 -0.03168,3.102094 -0.167199,4.646896 -0.06925,0.594621 -0.07864,0.771886 -0.182272,1.332059 -0.05163,0.279052 -0.145269,0.807381 -0.308138,1.058992 -0.01261,0.01948 -0.04007,0.02341 -0.0601,0.03512 -0.217354,0.01203 -0.435422,0.0042 -0.652987,0.0095 -0.503694,0.0052 -1.007148,0.02399 -1.510887,0.02709 -1.823513,0.01426 -3.647262,-0.0042 -5.469923,-0.06417 -2.504218,-0.09413 -5.0189122,-0.195262 -7.4965462,-0.594487 -0.1967212,-0.03944 -0.3947787,-0.07272 -0.5901637,-0.11832 -0.1353989,-0.0316 -0.4786183,-0.2288 -0.4014809,-0.113122 0.1275313,0.191251 0.3868021,0.24856 0.5774428,0.377001 0.014772,0.01 -0.1348711,-0.04453 -0.1743813,-0.139888 -0.011568,-0.02792 -0.0083,-0.05987 -0.012449,-0.0898 -0.00937,-0.231951 -0.029044,-0.46285 -0.089116,-0.68822 C 6.3757907,19.130263 6.2826703,18.694255 6.238006,18.250393 6.1658489,17.389728 6.1958034,16.538183 6.2434935,15.676426 6.347706,13.866307 6.5049968,12.05899 6.7538044,10.262544 6.8063876,9.9199929 6.8525254,9.5763899 6.9115545,9.2348903 7.07699,8.2778001 7.3113693,7.3372921 7.5840806,6.4057394 Z" />
  </g>
</svg>
