<?xml version="1.0" encoding="UTF-8" standalone="no"?>
<!-- Created with Inkscape (http://www.inkscape.org/) -->

<svg
   width="256"
   height="128"
   viewBox="0 0 67.733332 33.866666"
   version="1.1"
   id="svg1"
   sodipodi:docname="first-place-variable-boxes.svg"
   inkscape:version="1.3.2 (091e20ef0f, 2023-11-25)"
   xmlns:inkscape="http://www.inkscape.org/namespaces/inkscape"
   xmlns:sodipodi="http://sodipodi.sourceforge.net/DTD/sodipodi-0.dtd"
   xmlns="http://www.w3.org/2000/svg"
   xmlns:svg="http://www.w3.org/2000/svg">
  <sodipodi:namedview
     id="namedview1"
     pagecolor="#ffffff"
     bordercolor="#000000"
     borderopacity="1"
     inkscape:showpageshadow="2"
     inkscape:pageopacity="0.0"
     inkscape:pagecheckerboard="0"
     inkscape:deskcolor="#d1d1d1"
     inkscape:document-units="mm"
     inkscape:zoom="3.1429293"
     inkscape:cx="135.86052"
     inkscape:cy="51.544272"
     inkscape:window-width="1920"
     inkscape:window-height="1128"
     inkscape:window-x="0"
     inkscape:window-y="0"
     inkscape:window-maximized="1"
     inkscape:current-layer="layer1" />
  <defs
     id="defs1" />
  <g
     inkscape:groupmode="layer"
     id="layer2"
     inkscape:label="Background"
     sodipodi:insensitive="true">
    <rect
       style="fill:#ffffff;fill-opacity:1;stroke-width:0.35;stroke-dasharray:none"
       id="rect16"
       width="90.102264"
       height="41.962318"
       x="-7.1432214"
       y="-3.154923" />
  </g>
  <g
     inkscape:label="Layer 1"
     inkscape:groupmode="layer"
     id="layer1">
    <path
       style="fill:#000000;stroke-width:0.264583"
       id="path1"
       d="m 6.7023559,5.9564759 c -0.00482,0.050497 -0.00709,0.1013005 -0.014444,0.1514898 C 6.5528187,7.0295269 6.3521621,7.9408628 6.2099239,8.8614823 6.1566734,9.2061391 6.1114257,9.551985 6.0621766,9.8972363 5.8310721,11.687172 5.6424999,13.482953 5.4802833,15.28044 c -0.046513,0.622806 -0.1050642,1.246652 -0.1044686,1.871854 2.91e-4,0.309031 0.00958,0.378529 0.029403,0.681552 0.035099,0.441233 0.1100024,0.877117 0.1995138,1.310066 0.049717,0.219966 0.076264,0.443452 0.086699,0.668421 0.00324,0.127185 0.03934,0.241323 0.1598898,0.310484 0.3490437,0.200252 0.699357,0.400903 1.0664463,0.565761 0.1241425,0.05575 0.9015412,0.168935 0.9484868,0.176474 0.2519306,0.03175 0.5031583,0.06969 0.7557918,0.09525 0.5233842,0.05296 1.8532358,0.149142 2.3353158,0.179285 1.425113,0.0891 2.852162,0.148666 4.278579,0.211964 1.867796,0.0811 3.736899,0.123205 5.605985,0.160101 0.528565,0.0094 1.057036,0.02538 1.585712,0.02606 0.222306,-0.0098 0.447098,0.01754 0.668368,-0.0083 0.02995,-0.02812 0.07074,-0.04798 0.08985,-0.08435 0.139184,-0.264903 0.22499,-0.875297 0.267611,-1.159211 0.09397,-0.625972 0.08622,-0.689656 0.140198,-1.363325 0.117996,-1.547831 0.15221,-3.099444 0.175471,-4.650919 0.0024,-1.010671 0.03798,-2.020456 0.0754,-3.03026 0.01508,-0.500352 0.0258,-1.000816 0.03776,-1.5012473 0.0075,-0.2229654 0.0081,-0.4460213 0.0075,-0.6690804 0.0088,-0.1792285 0.0061,-0.3207036 -0.175974,-0.4183986 C 22.594223,8.0518208 22.972428,8.1582703 22.159649,8.029445 20.019208,7.8244382 17.866647,7.7909676 15.718376,7.7402305 13.241551,7.6785162 10.764113,7.6539565 8.2868261,7.6201883 7.428104,7.6090202 6.5695554,7.5882925 5.7108997,7.5734764 c -0.1352431,-0.00246 -0.2704939,-0.00441 -0.4057531,-0.00568 0,0 0.797242,0.5789324 0.797242,0.5789324 v 0 c 0.1290409,-0.00188 0.2580645,-0.00467 0.3870795,-0.00787 0.8163015,-0.018875 1.6326083,-0.038762 2.4491397,-0.044767 2.4458772,-0.016613 4.8921792,-0.00494 7.3374812,0.0537 1.352113,0.042681 2.702363,0.093918 4.052428,0.1817405 0.572583,0.037247 1.304004,0.089451 1.883622,0.1540028 0.222978,0.024834 0.444732,0.05964 0.667098,0.08946 0.767919,0.1663017 0.495532,0.1703083 -0.06545,-0.2697628 -0.04113,-0.032263 0.09998,0.034058 0.143798,0.062554 0.07878,0.051225 0.05942,0.081264 0.05991,0.1619123 1.98e-4,0.033041 3.17e-4,0.066083 4.5e-4,0.099124 -2.65e-4,0.2250659 7.14e-4,0.4501142 0.0058,0.6751357 0.006,0.5056571 0.0047,1.0113847 -0.0033,1.5170167 -0.0099,1.022236 -0.01456,2.044407 -0.0067,3.066682 -0.0096,1.549857 -0.03168,3.102094 -0.167199,4.646896 -0.06925,0.594621 -0.07864,0.771886 -0.182272,1.332059 -0.05163,0.279052 -0.145269,0.807381 -0.308138,1.058992 -0.01261,0.01948 -0.04007,0.02341 -0.0601,0.03512 -0.217354,0.01203 -0.435422,0.0042 -0.652987,0.0095 -0.503694,0.0052 -1.007148,0.02399 -1.510887,0.02709 -1.823513,0.01426 -3.647262,-0.0042 -5.469923,-0.06417 -2.504218,-0.09413 -5.0189122,-0.195262 -7.4965462,-0.594487 -0.1967212,-0.03944 -0.3947787,-0.07272 -0.5901637,-0.11832 -0.1353989,-0.0316 -0.4786183,-0.2288 -0.4014809,-0.113122 0.1275313,0.191251 0.3868021,0.24856 0.5774428,0.377001 0.014772,0.01 -0.1348711,-0.04453 -0.1743813,-0.139888 -0.011568,-0.02792 -0.0083,-0.05987 -0.012449,-0.0898 -0.00937,-0.231951 -0.029044,-0.46285 -0.089116,-0.68822 C 6.3757907,19.130263 6.2826703,18.694255 6.238006,18.250393 6.1658489,17.389728 6.1958034,16.538183 6.2434935,15.676426 6.347706,13.866307 6.5049968,12.05899 6.7538044,10.262544 6.8063876,9.9199929 6.8525254,9.5763899 6.9115545,9.2348903 7.07699,8.2778001 7.3113693,7.3372921 7.5840806,6.4057394 Z" />
    <path
       style="fill:#000000;fill-opacity:1;stroke-width:0.264583"
       id="path2"
       d="M 3.667491,22.27148 C 3.6318572,22.102596 3.5746448,21.939706 3.5068903,21.781322 3.4452807,21.650248 3.3562307,21.544581 3.2287526,21.474165 3.060934,21.381466 2.8914491,21.291816 2.7227973,21.200642 2.5549753,21.150032 2.3799769,21.132012 2.2056313,21.122962 2.0747295,21.122591 1.982831,21.192422 1.89525,21.281067 1.7924003,21.41585 1.6993138,21.558581 1.6208135,21.70889 1.5360475,21.858366 1.4997513,22.023409 1.479166,22.192044 1.461545,22.388572 1.46526,22.586232 1.466678,22.783311 c 0.00233,0.274275 -0.015946,0.548462 -0.038436,0.82169 -0.01655,0.196545 -0.034593,0.392981 -0.045011,0.58997 -7.673e-4,0.01868 -0.00151,0.03736 -0.00228,0.05605 0,0 0.4367776,0.224098 0.4367776,0.224098 v 0 c 2.91e-4,-0.01872 5.821e-4,-0.03745 8.731e-4,-0.05618 0.00491,-0.198362 0.016055,-0.396505 0.03219,-0.594275 0.022212,-0.273864 0.04521,-0.548217 0.043998,-0.823205 0.00148,-0.194529 2.175e-4,-0.389446 0.015267,-0.58352 0.018121,-0.163173 0.050537,-0.323192 0.1333627,-0.467454 0.075952,-0.145729 0.1634513,-0.286664 0.2685441,-0.413287 0.083547,-0.07808 0.1684787,-0.132412 0.2879717,-0.124454 0.1705168,0.0098 0.3420107,0.02851 0.5034791,0.08763 -0.1094301,-0.06702 -0.2196143,-0.132831 -0.3282905,-0.20107 -0.023937,-0.01503 0.049882,0.02667 0.074004,0.0414 0.096354,0.05885 0.1643184,0.138646 0.2167712,0.238605 0.069505,0.151921 0.1282177,0.309509 0.1568461,0.47475 z" />
    <path
       style="fill:#000000;fill-opacity:1;stroke-width:0.264583"
       id="path3"
       d="m 0.77384901,22.767704 c 0.1668219,0.01179 0.33152689,0.04072 0.49668659,0.06585 0.2433286,0.03772 0.4783918,0.112422 0.7172116,0.170129 0.2224143,0.05214 0.4453959,0.104354 0.6707442,0.142374 0.1121103,0.01862 0.2253361,0.02788 0.3387738,0.03267 0,0 -0.3962244,-0.290651 -0.3962244,-0.290651 v 0 c -0.1104924,-0.0055 -0.2207816,-0.01503 -0.3299214,-0.03374 -0.2225159,-0.03953 -0.4437949,-0.08712 -0.6632636,-0.140952 -0.2402628,-0.06046 -0.47802,-0.133245 -0.72366789,-0.169761 -0.168357,-0.02686 -0.337045,-0.05085 -0.5059762,-0.07347 z" />
    <path
       style="fill:#000000;fill-opacity:1;stroke-width:0.264583"
       id="path4"
       d="m 4.1248479,22.335586 c 0.086337,0.210893 0.1144262,0.438412 0.1381578,0.663213 0.030379,0.2971 0.022622,0.595161 0.00984,0.892864 -0.00579,0.117347 -0.012536,0.234643 -0.019013,0.351953 0,0 0.4302715,0.221466 0.4302715,0.221466 v 0 c 0.00322,-0.118646 0.00669,-0.237285 0.011364,-0.355884 0.011838,-0.299363 0.024863,-0.599041 -0.00516,-0.897945 C 4.6695542,22.98529 4.6412762,22.75924 4.5735322,22.54177 Z" />
    <path
       style="fill:#000000;fill-opacity:1;stroke-width:0.264583"
       id="path5"
       d="m 4.2851201,21.356816 c 0.00413,0.09569 0.067157,0.193679 0.045881,0.289291 -0.00292,1.5e-5 -0.0076,0.0027 -0.00876,4.6e-5 -0.057578,-0.133411 0.2619391,0.125891 0.393741,0.187064 0.01493,0.0069 -0.016177,-0.0288 -0.022151,-0.04413 -0.013049,-0.03349 -0.014166,-0.05605 -0.019135,-0.0912 -0.00293,-0.03636 0.00463,-0.05964 0.027214,-0.08648 0,0 -0.4252288,-0.252681 -0.4252288,-0.252681 v 0 c -0.027079,0.0381 -0.044502,0.07192 -0.042889,0.120635 0.00212,0.02525 0.010758,0.140547 0.030549,0.15515 0.037838,0.02792 0.3656936,0.422897 0.5011764,0.247 0.00402,-0.01438 0.010906,-0.02825 0.01207,-0.04314 0.00701,-0.08962 -0.047852,-0.174931 -0.047728,-0.264118 z" />
    <path
       style="fill:#000000;fill-opacity:1;stroke-width:0.264583"
       id="path6"
       d="m 5.5069518,22.081899 c 0.03206,0.241661 0.03566,0.48611 0.04079,0.729513 0.0088,0.258433 0.0014,0.516404 -0.0147,0.774331 -0.01142,0.156608 -0.02191,0.313223 -0.02661,0.470183 -0.0033,0.09338 -0.0017,0.186852 -0.0039,0.280243 -9.79e-4,0.183986 -0.0069,0.09994 0.451578,0.233867 0.02487,0.0073 0.01575,-0.04936 0.02367,-0.07402 0.03496,-0.10881 0.06562,-0.218304 0.09574,-0.328558 0.06111,-0.225156 0.143749,-0.443435 0.248447,-0.651725 0.09106,-0.173592 0.183152,-0.346932 0.286558,-0.513559 0.07386,-0.140261 0.130426,-0.203405 0.276697,-0.26569 0.09046,-0.02617 0.191278,-0.06124 0.286736,-0.03612 0.04518,0.01189 0.0945,0.04489 0.133715,0.06807 -0.663835,-0.374053 -0.368113,-0.243115 -0.260858,-0.106613 0.04423,0.05629 0.07037,0.117709 0.09558,0.183908 0.02134,0.06243 0.03014,0.127557 0.03874,0.19259 0,0 0.439148,0.216884 0.439148,0.216884 v 0 c -0.0081,-0.06815 -0.01663,-0.136352 -0.03519,-0.202669 -0.116067,-0.34826 -0.293639,-0.386903 -0.657459,-0.589321 -0.175078,-0.08132 -0.268959,-0.05956 -0.446724,0.0036 -0.155391,0.07349 -0.213919,0.138542 -0.291574,0.290944 -0.101062,0.169535 -0.191589,0.345285 -0.285155,0.519007 -0.10517,0.211687 -0.186133,0.433746 -0.249981,0.661385 -0.03098,0.108343 -0.06096,0.215994 -0.101759,0.321139 -0.0078,0.02001 -0.04166,0.04646 -0.02461,0.0595 0.127754,0.09765 0.573622,0.34175 0.417354,0.241908 -0.0023,-0.09369 -6.88e-4,-0.187457 -4.24e-4,-0.281165 0.0025,-0.157836 0.0086,-0.315584 0.01704,-0.473212 0.01375,-0.259697 0.02533,-0.519048 0.0134,-0.77919 -0.0048,-0.242308 -0.01027,-0.484678 -0.02385,-0.726681 z" />
    <path
       style="fill:#000000;fill-opacity:1;stroke-width:0.264583"
       id="path8"
       d="m 8.7337028,22.300017 c -0.125113,-5.56e-4 -0.248972,0.0011 -0.373265,0.01575 -0.129912,0.01976 -0.193598,0.11124 -0.240288,0.225336 -0.03477,0.106835 -0.05356,0.21785 -0.03492,0.329157 0.02284,0.07727 0.07382,0.142081 0.143736,0.182844 0.155113,0.09044 0.311712,0.178306 0.467568,0.267459 0.181653,0.0776 0.602629,0.330425 -0.141174,-0.09576 0.105654,0.06166 0.174733,0.155586 0.22661,0.263759 0.05338,0.141741 0.08395,0.290492 0.07068,0.441744 -0.01755,0.142901 -0.104429,0.247248 -0.19862,0.348813 -0.07506,0.07576 -0.159496,0.130123 -0.262751,0.156026 -0.09461,0.01682 -0.191344,0.01454 -0.287075,0.01459 -0.0181,-9.3e-5 -0.0362,-1.86e-4 -0.05429,-2.91e-4 0,0 0.397334,0.288811 0.397334,0.288811 v 0 c 0.0181,-1.4e-5 0.03621,-2.8e-5 0.05432,-4.3e-5 0.09917,-6.08e-4 0.200029,0.0016 0.29648,-0.02507 0.106758,-0.03613 0.196347,-0.09842 0.274055,-0.180324 0.0998,-0.110026 0.190686,-0.224637 0.213448,-0.376416 0.01808,-0.158747 -0.01046,-0.312552 -0.06012,-0.463989 -0.04351,-0.115195 -0.107738,-0.21934 -0.211856,-0.289794 -0.230984,-0.134755 -0.456944,-0.278005 -0.699903,-0.39017 0.124807,0.07247 0.250333,0.14372 0.37442,0.217418 0.01397,0.0083 -0.03008,-0.01264 -0.04393,-0.02114 -0.04918,-0.03015 -0.08963,-0.07345 -0.115637,-0.124691 -0.0289,-0.100916 -0.0095,-0.204334 0.0197,-0.303653 0.04085,-0.101969 0.09613,-0.169768 0.211591,-0.181137 0.124534,-0.01286 0.249377,-0.01121 0.374445,-0.0082 z" />
    <path
       style="fill:#000000;fill-opacity:1;stroke-width:0.264583"
       id="path9"
       d="m 9.8770628,22.323376 c -0.02865,0.179388 -0.05003,0.359733 -0.06321,0.540896 -0.01201,0.209304 -0.01116,0.419114 -0.01343,0.628691 -0.002,0.152 -0.0016,0.304018 -0.0021,0.456028 0.0031,0.108965 0.02037,0.216014 0.05369,0.319667 0.07784,0.237211 0.3282742,0.36562 0.5719112,0.418414 0.08129,0.01642 0.155478,0.0028 0.223913,-0.04315 0.07004,-0.03877 0.117078,-0.101712 0.161152,-0.166527 0,0 -0.426165,-0.250289 -0.426165,-0.250289 v 0 c -0.04071,0.05966 -0.08387,0.114693 -0.149811,0.148175 -0.06421,0.0322 -0.131581,0.03192 -0.199449,0.009 -0.1700612,-0.07664 -0.04417,-0.02134 0.357555,0.215795 0.0101,0.006 -0.02101,-0.01075 -0.03021,-0.01803 -0.03366,-0.02663 -0.04998,-0.06547 -0.06287,-0.105076 -0.03891,-0.09791 -0.05568,-0.201115 -0.06386,-0.305938 -8.73e-4,-0.152709 -0.0011,-0.305422 -0.0026,-0.458128 -7.67e-4,-0.208602 2.55e-4,-0.417327 0.0122,-0.625654 0.01242,-0.178874 0.02753,-0.358627 0.07036,-0.533244 z" />
    <path
       style="fill:#000000;fill-opacity:1;stroke-width:0.264583"
       id="path10"
       d="m 9.7863068,23.340306 c 0.126247,-0.01966 0.2540852,-0.02635 0.3816142,-0.03138 0.09924,-0.0035 0.198557,-0.0031 0.297844,-0.0035 0.04856,0.0068 0.09693,0.01473 0.145414,0.02204 0,0 -0.393835,-0.295028 -0.393835,-0.295028 v 0 c -0.0497,-0.0071 -0.09943,-0.01537 -0.149776,-0.01619 -0.09921,-1.8e-5 -0.1984362,0.0014 -0.2975292,0.0065 -0.129941,0.0072 -0.259855,0.0167 -0.38898,0.03326 z" />
    <path
       style="fill:#000000;fill-opacity:1;stroke-width:0.264583"
       id="path11"
       d="m 11.467633,24.443076 c 0.181442,-0.0048 0.362973,-0.0038 0.544458,-0.003 0.138581,2.65e-4 0.277158,0.0014 0.415737,0.002 0.109315,-0.0021 0.217542,-0.02264 0.326542,-0.03248 0.108975,-0.0087 0.218374,-0.0092 0.327624,-0.01008 0.01992,-5e-5 0.03983,-10e-5 0.05974,-1.51e-4 0,0 -0.396802,-0.288039 -0.396802,-0.288039 v 0 c -0.01993,1.17e-4 -0.03986,2.33e-4 -0.05978,3.44e-4 -0.110491,8.2e-4 -0.221208,0.0019 -0.331243,0.01294 -0.107682,0.01153 -0.215151,0.03087 -0.323759,0.02853 -0.136769,6.35e-4 -0.273537,0.0017 -0.410308,0.002 -0.184252,7.67e-4 -0.368546,0.0017 -0.552758,-0.003 z" />
    <path
       style="fill:#000000;fill-opacity:1;stroke-width:0.264583"
       id="path12"
       d="m 13.334865,22.240745 c 0.05161,0.246878 0.09619,0.495071 0.148555,0.741872 0.04922,0.229262 0.09791,0.458321 0.126893,0.691139 0.02117,0.125483 0.04277,0.250523 0.05277,0.377469 0.0064,0.09771 0.0067,0.195659 0.0068,0.293532 0,0 0.439145,0.223636 0.439145,0.223636 v 0 c -3.17e-4,-0.09928 -0.001,-0.198616 -0.0072,-0.297738 -0.0091,-0.128793 -0.02742,-0.256033 -0.0559,-0.382087 -0.03266,-0.235276 -0.0822,-0.467164 -0.133979,-0.698894 -0.05255,-0.24241 -0.09947,-0.485575 -0.132336,-0.7315 z" />
    <path
       style="fill:#000000;fill-opacity:1;stroke-width:0.264583"
       id="path13"
       d="m 13.875444,22.490857 c 0.111958,-0.04828 0.229874,-0.07878 0.349962,-0.09791 0.06102,-0.0022 0.128151,-0.02423 0.188713,-0.0059 0.02899,0.0088 0.067,0.03387 0.09203,0.04886 -0.62996,-0.361159 -0.331715,-0.233988 -0.194133,-0.0061 0.04984,0.09296 0.08265,0.191199 0.100802,0.294741 0.01018,0.115013 -0.05439,0.216806 -0.110803,0.311913 -0.04202,0.06549 -0.104026,0.105188 -0.170319,0.141537 -0.07032,0.03475 -0.148366,0.04174 -0.225417,0.04659 -0.04154,0.0021 -0.08313,0.0024 -0.12471,0.0027 0,0 0.399441,0.289273 0.399441,0.289273 v 0 c 0.04227,-9.26e-4 0.08457,-0.0017 0.126727,-0.0053 0.08245,-0.0084 0.164385,-0.02235 0.237756,-0.06338 0.07327,-0.04068 0.136703,-0.09385 0.18185,-0.165624 0.06001,-0.104926 0.128264,-0.217216 0.126965,-0.341554 -0.01608,-0.10886 -0.04488,-0.211776 -0.09422,-0.310687 -0.136679,-0.262645 -0.358767,-0.357701 -0.637018,-0.501135 -0.103651,-0.0449 -0.190577,-0.03879 -0.299924,-0.01751 -0.121213,0.02384 -0.238386,0.06086 -0.35534,0.1003 z" />
    <path
       style="fill:#000000;fill-opacity:1;stroke-width:0.264583"
       id="path14"
       d="m 15.099483,22.40544 c 0.02063,0.20305 0.05004,0.405445 0.09157,0.605299 0.04909,0.184407 0.08177,0.371277 0.109881,0.559779 0.02601,0.163737 0.04095,0.328864 0.04888,0.494378 0.0022,0.051 0.0029,0.102046 0.0035,0.153085 0,0 0.438977,0.222849 0.438977,0.222849 v 0 c -9.26e-4,-0.05198 -0.0019,-0.103963 -0.0048,-0.155879 -0.01002,-0.167812 -0.0273,-0.335147 -0.05256,-0.501377 -0.02856,-0.18915 -0.05382,-0.378262 -0.107751,-0.56252 -0.04606,-0.193688 -0.07744,-0.391829 -0.08656,-0.59084 z" />
    <path
       style="fill:#000000;fill-opacity:1;stroke-width:0.264583"
       id="path15"
       d="m 16.352325,22.678843 c -0.113146,-4.76e-4 -0.223347,0.03439 -0.324527,0.0827 -0.130268,0.06839 -0.207174,0.191147 -0.264282,0.321977 -0.06498,0.16193 -0.03592,0.327319 0.0059,0.490435 0.103578,0.326238 0.281587,0.328944 0.620218,0.51904 0.07817,0.01864 0.156938,0.0012 0.223381,-0.04186 0.06669,-0.03604 0.116794,-0.08779 0.158549,-0.149937 0.03523,-0.09333 0.07037,-0.187887 0.09158,-0.285631 0.01845,-0.10589 0.02481,-0.213983 0.0186,-0.321212 -0.0069,-0.110825 -0.03664,-0.217893 -0.05632,-0.326698 -0.0036,-0.01586 -0.0069,-0.0318 -0.01089,-0.04758 -0.0063,-0.02484 -0.0137,-0.04861 -0.0211,-0.07304 -0.0012,-0.0041 1.85e-4,-0.01055 -0.0037,-0.01228 -0.456991,-0.201994 -0.478411,-0.336915 -0.429098,-0.140191 0.01817,0.100537 0.04448,0.199308 0.06454,0.299443 0.03005,0.120796 0.06197,0.241291 0.09707,0.360762 0.02219,0.09774 0.06167,0.189348 0.111312,0.275977 0.136787,0.238961 0.343783,0.294358 0.601576,0.444426 0.08205,0.02669 0.170251,0.03755 0.255635,0.02468 0.01436,-0.0026 0.02872,-0.0051 0.04308,-0.0077 0,0 -0.403221,-0.283812 -0.403221,-0.283812 v 0 c -0.01378,0.0017 -0.02756,0.0034 -0.04135,0.0051 -0.0819,0.0015 -0.164744,-0.0084 -0.237864,-0.04789 0.821657,0.482944 0.413527,0.276068 0.312199,0.170607 -0.03036,-0.0316 -0.05486,-0.06893 -0.07946,-0.104939 -0.0495,-0.08437 -0.09944,-0.168978 -0.11867,-0.266615 -0.03569,-0.117675 -0.06802,-0.236168 -0.09759,-0.355565 -0.01864,-0.100892 -0.04876,-0.199015 -0.06328,-0.300698 -0.04313,-0.210321 2.91e-4,-0.05471 -0.463534,-0.288544 -0.0055,-0.0028 0.0019,0.01225 0.0039,0.01807 0.01316,0.03793 0.02983,0.0749 0.03895,0.114341 0.01838,0.107958 0.04857,0.213365 0.05881,0.32258 0.0099,0.102627 0.0019,0.206405 -0.01322,0.308264 -0.01879,0.09169 -0.05049,0.180613 -0.08391,0.26775 -0.03873,0.0554 -0.08601,0.09983 -0.147003,0.130828 -0.06293,0.03022 -0.130727,0.03398 -0.19552,0.0056 0.127441,0.07502 0.25532,0.149302 0.382323,0.225061 0.01327,0.0079 -0.02824,-0.0129 -0.04108,-0.02151 -0.07192,-0.04817 -0.108079,-0.128248 -0.135214,-0.207306 -0.04338,-0.151971 -0.08002,-0.307726 -0.02063,-0.461107 0.05241,-0.121416 0.124684,-0.231472 0.248346,-0.2895 0.100291,-0.04265 0.206169,-0.07049 0.316133,-0.06305 z" />
    <path
       style="fill:#000000;fill-opacity:1;stroke-width:0.264583"
       id="path16"
       d="m 18.078091,22.3842 c -0.123956,0.0075 -0.249888,-0.01117 -0.371701,0.01486 -0.137549,0.06234 -0.200644,0.201464 -0.260702,0.331244 -0.05755,0.132528 -0.105743,0.268514 -0.135801,0.409887 -0.01745,0.108581 -0.02735,0.217807 -0.0066,0.326226 0.021,0.107164 0.06726,0.199523 0.145791,0.27484 0.07166,0.05963 0.144905,0.118119 0.222562,0.169799 0.201976,0.08586 0.396261,0.27943 0.628718,0.31335 0.08651,0.0094 0.173709,0.0079 0.260595,0.0081 0.09154,2.3e-5 0.183083,-1.99e-4 0.274625,-3.18e-4 0,0 -0.398873,-0.289669 -0.398873,-0.289669 v 0 c -0.09124,2.64e-4 -0.182476,8.2e-4 -0.273713,5.02e-4 -0.0857,-7.93e-4 -0.172174,-5.82e-4 -0.256678,-0.01669 -0.185124,-0.04618 -0.506855,-0.274903 0.225879,0.161839 -0.08303,-0.04221 -0.152247,-0.106571 -0.226961,-0.161558 -0.08636,-0.06822 -0.136267,-0.136224 -0.159238,-0.246826 -0.02689,-0.101688 -0.01817,-0.204787 -0.0033,-0.308281 0.02537,-0.138823 0.07019,-0.271951 0.126776,-0.401225 0.05472,-0.114415 0.108477,-0.246737 0.238586,-0.289749 0.122689,-0.01568 0.247185,-0.0038 0.370605,-0.0053 z" />
    <path
       style="fill:#000000;fill-opacity:1;stroke-width:0.264583"
       id="path17"
       d="m 19.163254,23.41483 c 0.132089,0.05413 0.272879,0.0732 0.413702,0.08804 0.131162,0.01804 0.255366,-0.0057 0.373961,-0.06128 0.114665,-0.06446 0.215885,-0.147732 0.309289,-0.239627 0.08445,-0.08152 0.161267,-0.17119 0.171932,-0.291554 2.21e-4,-0.08704 -0.05115,-0.133956 -0.119019,-0.177885 -0.204286,-0.128104 -0.399147,-0.291348 -0.638917,-0.336274 -0.08499,-0.0123 -0.171116,-0.0123 -0.256805,-0.01215 -0.111519,-0.0025 -0.221768,-0.0012 -0.32951,0.02982 -0.110627,0.0432 -0.205168,0.114947 -0.295659,0.190168 -0.09762,0.108289 -0.1501,0.239388 -0.179388,0.379984 -0.01995,0.123063 -0.02276,0.24823 -0.0092,0.371999 0.01041,0.104735 0.04469,0.204812 0.08081,0.303011 0.03939,0.09718 0.09104,0.186756 0.156166,0.268662 0.156163,0.201925 0.402192,0.299704 0.624526,0.416104 0.07965,0.03865 0.167079,0.04876 0.254205,0.05456 0.08471,0.0039 0.169552,0.0031 0.254327,0.0028 0.08818,0.0011 0.175653,-0.02434 0.253813,-0.06405 0.04728,-0.02337 0.02477,-0.0099 0.06754,-0.04043 0,0 -0.416273,-0.26627 -0.416273,-0.26627 v 0 c -0.03887,0.02433 -0.01807,0.01268 -0.06271,0.03443 -0.07676,0.03241 -0.157635,0.05053 -0.241417,0.04652 -0.0839,6.1e-5 -0.167974,6.62e-4 -0.251653,-0.0064 -0.08451,-0.0095 -0.167284,-0.0269 -0.241822,-0.07011 -0.159767,-0.08774 -0.140069,-0.07739 0.344789,0.203537 0.01258,0.0073 -0.02493,-0.01506 -0.03657,-0.02378 -0.0063,-0.0047 -0.06038,-0.052 -0.0662,-0.05803 -0.01068,-0.01108 -0.01979,-0.02357 -0.02969,-0.03535 -0.06411,-0.07987 -0.124537,-0.159113 -0.163291,-0.255518 -0.03856,-0.09373 -0.07129,-0.191858 -0.08633,-0.292243 -0.01697,-0.119338 -0.017,-0.239081 0.0011,-0.35862 0.02374,-0.130249 0.06772,-0.254121 0.162641,-0.350633 0.08655,-0.07028 0.177305,-0.137905 0.285328,-0.171141 0.106382,-0.02307 0.214072,-0.02252 0.322529,-0.01924 0.084,0.0016 0.168862,0.0023 0.251099,0.02161 0.03369,0.0097 0.04286,0.01108 0.07493,0.02538 0.012,0.0054 0.04655,0.0244 0.03523,0.01773 -0.683675,-0.40259 -0.470574,-0.273082 -0.323436,-0.186693 0.05421,0.03941 0.128321,0.05854 0.139191,0.13407 0.01069,0.107617 -0.08011,0.188761 -0.148724,0.260073 -0.09036,0.08718 -0.189203,0.166002 -0.301158,0.223992 -0.114619,0.04679 -0.233792,0.05962 -0.356843,0.04179 -0.140377,-0.01724 -0.281055,-0.04161 -0.408687,-0.105886 z" />
    <path
       style="fill:#000000;fill-opacity:1;stroke-width:0.264583"
       id="path18"
       d="m 21.064572,24.106341 c 0.186498,0.0014 0.372248,-0.01199 0.558224,-0.02405 0.148137,-0.0097 0.296468,-0.01581 0.444897,-0.01824 0.10042,0.0053 0.198622,-0.01634 0.297696,-0.0289 0.08648,-0.01033 0.173614,-0.01227 0.260606,-0.01344 0.05809,0.0046 0.113715,-0.0053 0.170466,-0.01573 0,0 -0.403633,-0.283248 -0.403633,-0.283248 v 0 c -0.05528,0.0081 -0.110429,0.01106 -0.166343,0.0099 -0.08796,0.0022 -0.175998,0.006 -0.263216,0.01846 -0.09761,0.01371 -0.194857,0.02879 -0.293851,0.02513 -0.14645,0.005 -0.292666,0.01443 -0.438806,0.02504 -0.188706,0.0125 -0.377411,0.02324 -0.566592,0.01407 z" />
    <path
       style="fill:#000000;fill-opacity:1;stroke-width:0.264583"
       id="path19"
       d="m 22.805528,22.240745 c 0.03279,0.13429 0.08082,0.264354 0.12333,0.3958 0.0501,0.143774 0.09481,0.289753 0.131736,0.437491 0.02267,0.127367 0.0454,0.255062 0.06227,0.383402 0.01334,0.09651 0.0095,0.194226 0.02654,0.290177 0.01146,0.06674 0.0254,0.132725 0.03991,0.198794 0.357565,0.147269 0.436816,0.353877 0.464462,0.142335 0.0097,-0.07434 0.0088,-0.150541 0.0099,-0.225354 -1.03e-4,-0.132413 -0.0016,-0.264812 -0.0016,-0.397227 0.0024,-0.106429 0.02551,-0.20908 0.05173,-0.311537 0.02024,-0.07415 0.04083,-0.138727 0.115353,-0.169486 0.07297,-0.0172 0.150678,-0.02397 0.224576,-0.01038 0.154289,0.06452 0.396235,0.206249 -0.300868,-0.178916 -0.01379,-0.0076 0.02622,0.01754 0.03849,0.02743 0.03256,0.02625 0.03991,0.03694 0.06737,0.06766 0.06295,0.07044 0.09374,0.157323 0.122947,0.245257 0.02225,0.08786 0.03523,0.177252 0.05675,0.265347 0.02,0.07508 0.01995,0.152994 0.02915,0.229566 0.01693,0.07133 0.0287,0.143212 0.03484,0.216234 0,0 0.441439,0.220932 0.441439,0.220932 v 0 c -0.0045,-0.07431 -0.01159,-0.148637 -0.0322,-0.220504 -0.0181,-0.07591 -0.0075,-0.156446 -0.02822,-0.232488 -0.02093,-0.08947 -0.04262,-0.177775 -0.05703,-0.268689 -0.02529,-0.09243 -0.05536,-0.185727 -0.115022,-0.262329 -0.151371,-0.209537 -0.404382,-0.34564 -0.653471,-0.403726 -0.08181,-0.0034 -0.166076,1.27e-4 -0.242133,0.03349 -0.07898,0.04795 -0.112157,0.118483 -0.1353,0.206268 -0.02598,0.106797 -0.05093,0.213289 -0.05438,0.323875 0.0011,0.131936 0.0011,0.263872 2.12e-4,0.395809 -5.3e-4,0.07241 2e-6,0.145357 -0.0083,0.217412 -0.0013,0.01243 -0.01619,0.03018 -0.0058,0.03708 0.139004,0.09197 0.289909,0.164553 0.434861,0.246829 -0.05257,-0.01219 -0.03538,-0.137618 -0.05352,-0.178347 -0.02175,-0.09517 -0.0204,-0.191735 -0.03142,-0.288631 -0.01635,-0.130255 -0.04175,-0.258998 -0.06072,-0.388823 -0.03614,-0.149215 -0.08246,-0.296106 -0.131903,-0.441379 -0.04113,-0.128168 -0.08637,-0.255548 -0.119436,-0.385949 z" />
    <path
       style="fill:#000000;fill-opacity:1;stroke-width:0.264583"
       id="path20"
       d="m 24.986041,22.915038 c -0.09924,-0.0293 -0.200117,-0.05358 -0.302733,-0.03061 -0.115591,0.05173 -0.173278,0.173977 -0.21903,0.284912 -0.0541,0.142469 -0.03139,0.284339 0.02711,0.42068 0.135657,0.271574 0.310357,0.288436 0.616755,0.459062 0.09069,0.02174 0.180988,-0.01751 0.255386,-0.06758 0.08129,-0.05909 0.13471,-0.136266 0.167934,-0.229913 0.02238,-0.0967 0.04359,-0.193415 0.0564,-0.291887 0.01005,-0.08739 0.0113,-0.175422 0.01212,-0.263279 5.29e-4,-0.263305 -0.02988,-0.122049 -0.440703,-0.331744 0.06637,0.102259 0.08777,0.225826 0.116707,0.342364 0.02326,0.110584 0.05,0.220649 0.09934,0.322716 0.118687,0.203053 0.362162,0.313904 0.57976,0.384401 0.08661,0.02257 0.17665,0.0219 0.265481,0.0234 0.04439,4.5e-4 0.08879,4.5e-4 0.133183,10e-4 0,0 -0.399759,-0.290475 -0.399759,-0.290475 v 0 c -0.04359,5.3e-4 -0.08718,4.24e-4 -0.130773,-7.67e-4 -0.08651,-0.0029 -0.174921,-0.0054 -0.256185,-0.03865 -0.166786,-0.08286 -0.06215,-0.03182 0.356711,0.211552 0.04071,0.02366 -0.144748,-0.08407 -0.09768,-0.08959 -0.06266,-0.09263 -0.08524,-0.205518 -0.110355,-0.312849 -0.02936,-0.118623 -0.05065,-0.240822 -0.100944,-0.352781 -0.149929,-0.0822 -0.406424,-0.381926 -0.46309,-0.220606 -0.01405,0.03998 0.0236,0.08734 0.0091,0.127832 -5.29e-4,0.08626 -7.93e-4,0.172667 -0.0089,0.258621 -0.01069,0.09556 -0.03076,0.188978 -0.05205,0.282646 -0.02729,0.08455 -0.07537,0.151576 -0.15059,0.20101 -0.0719,0.04118 -0.149008,0.06427 -0.228515,0.02929 0.128455,0.07527 0.257553,0.149456 0.385363,0.225816 0.0122,0.0073 -0.02625,-0.01117 -0.03842,-0.01853 -0.0608,-0.03684 -0.09696,-0.09827 -0.130442,-0.158789 -0.0661,-0.120351 -0.09384,-0.251499 -0.04605,-0.384291 0.03821,-0.0954 0.08783,-0.210082 0.195974,-0.239859 0.09969,-0.0084 0.196027,0.01824 0.289735,0.05048 z" />
    <path
       style="fill:#000000;fill-opacity:1;stroke-width:0.264583"
       id="path21"
       d="m 25.963031,22.792635 c 0.02744,0.140862 0.06476,0.279482 0.09363,0.42002 0.02117,0.102838 0.02726,0.20759 0.02992,0.312261 0.0052,0.325705 -0.07462,0.158949 0.440018,0.378988 0.0055,-0.144464 0.02532,-0.288947 0.05961,-0.429387 0.02156,-0.09217 0.04237,-0.142639 0.137176,-0.163963 0.08576,-0.0033 0.181192,-0.02542 0.262192,0.008 0.168291,0.114642 -0.07104,-0.04989 -0.353193,-0.192913 -0.01434,-0.0073 0.02215,0.02341 0.03196,0.03614 0.03109,0.04028 0.04878,0.08313 0.06564,0.130555 0.02376,0.09716 0.04662,0.194388 0.06026,0.293527 0.03393,0.327918 -0.08112,0.13532 0.458121,0.413101 0.07207,-0.118173 0.113107,-0.251878 0.169701,-0.377689 0.05128,-0.121302 0.10087,-0.245939 0.175633,-0.355047 0.03695,-0.04689 0.08142,-0.126178 0.14641,-0.140252 0.01027,-0.0022 0.0209,0.0022 0.03137,0.0033 0.01103,0.005 0.02283,0.0087 0.03313,0.01512 0.01101,0.0069 0.04164,0.03072 0.03021,0.02456 -0.129907,-0.07003 -0.254656,-0.149603 -0.386215,-0.216482 -0.0141,-0.0072 0.02143,0.02336 0.03105,0.03593 0.02429,0.03173 0.03481,0.05249 0.05467,0.08688 0.04092,0.08293 0.06066,0.174518 0.08239,0.263965 0.01916,0.08209 0.02352,0.166358 0.02619,0.250289 2.51e-4,0.01394 5.29e-4,0.02788 7.93e-4,0.04182 0,0 0.439767,0.223245 0.439767,0.223245 v 0 c -1.67e-4,-0.01412 -2.65e-4,-0.02823 -5.29e-4,-0.04235 -0.0019,-0.08679 -0.005,-0.173962 -0.02217,-0.259336 -0.02059,-0.09332 -0.04402,-0.187076 -0.07795,-0.276346 -0.01244,-0.02482 -0.05781,-0.12255 -0.07876,-0.136694 -0.102066,-0.0689 -0.337971,-0.289898 -0.536088,-0.295566 -0.08897,0.02798 -0.150088,0.09531 -0.198083,0.173633 -0.07349,0.113314 -0.125013,0.239534 -0.176226,0.364082 -0.05204,0.116565 -0.08945,0.243494 -0.163933,0.347991 0.141033,0.08214 0.282141,0.164151 0.423098,0.246422 0.0036,0.0021 -0.0096,-0.0019 -0.0109,-0.0058 -0.01667,-0.05123 0.0067,-0.114744 -0.01,-0.16674 -0.0123,-0.101977 -0.03655,-0.201032 -0.05767,-0.30136 -0.06866,-0.267504 -0.304789,-0.397909 -0.580316,-0.483587 -0.09243,-0.01093 -0.18809,-0.0058 -0.279066,0.01367 -0.09528,0.03799 -0.141357,0.108764 -0.159317,0.209703 -0.03331,0.1439 -0.05047,0.291199 -0.06932,0.437555 0.528831,0.312945 0.43652,0.392869 0.439055,0.06733 -0.0024,-0.107595 -0.0058,-0.215466 -0.02808,-0.321195 -0.02868,-0.13883 -0.06869,-0.275018 -0.09065,-0.415215 z" />
    <path
       style="fill:#000000;fill-opacity:1;stroke-width:0.264583"
       id="path22"
       d="m 28.723749,23.034637 c 0.136491,0.0515 0.277704,0.08634 0.418841,0.122182 0.128505,0.03454 0.258186,0.05798 0.391157,0.04707 0.08818,-0.01708 0.136605,-0.08415 0.1812,-0.155672 0.04121,-0.08046 0.04528,-0.172905 0.05005,-0.261513 -0.0055,-0.248655 -0.339812,-0.334095 -0.538048,-0.406176 -0.08329,-0.02974 -0.172437,-0.02655 -0.258141,-0.0426 -0.09331,-0.01953 -0.188031,-0.02915 -0.28308,-0.03431 -0.104114,0.01032 -0.199433,0.04917 -0.283372,0.110362 -0.09103,0.07115 -0.165655,0.156661 -0.224409,0.255736 -0.05152,0.09731 -0.06277,0.207316 -0.06977,0.315376 -0.0041,0.110945 0.05243,0.198811 0.117777,0.282805 0.05215,0.07496 0.120076,0.135366 0.18764,0.19583 0.179647,0.15657 0.383278,0.301608 0.613386,0.36997 0.08513,0.02482 0.169738,0.04365 0.25818,0.05266 0.09636,0.01557 0.189548,0.002 0.284597,-0.0129 0.07647,-0.0088 0.148367,-0.03776 0.217815,-0.0693 0,0 -0.412128,-0.273587 -0.412128,-0.273587 v 0 c -0.06629,0.02954 -0.136416,0.05083 -0.208687,0.05932 -0.09212,0.01368 -0.183523,0.01725 -0.276064,0.0024 -0.08617,-0.01259 -0.169987,-0.03495 -0.252497,-0.0628 -0.171096,-0.07792 -0.04733,-0.02298 0.352994,0.21069 0.01103,0.0064 -0.02249,-0.01225 -0.03306,-0.01947 -0.02048,-0.01399 -0.04022,-0.02911 -0.05897,-0.04534 -0.0098,-0.0085 -0.01852,-0.01827 -0.02779,-0.0274 -0.07173,-0.0532 -0.139552,-0.116701 -0.193617,-0.187559 -0.0626,-0.07305 -0.127264,-0.148896 -0.132339,-0.249525 0.0044,-0.100738 0.01109,-0.203771 0.05745,-0.295385 0.05457,-0.0937 0.127363,-0.172123 0.214421,-0.237056 0.07898,-0.05236 0.169304,-0.08496 0.265266,-0.08258 0.09394,0.0071 0.187074,0.01999 0.27968,0.03738 0.08576,0.011 0.172866,0.018 0.253503,0.05204 0.17835,0.0715 0.01503,0.008 -0.359362,-0.217542 -0.0087,-0.0052 0.01947,0.006 0.02823,0.01108 0.03166,0.01815 0.03983,0.0478 0.04251,0.08218 -0.0032,0.08027 -0.0041,0.164826 -0.03945,0.238577 -0.03804,0.06096 -0.07606,0.112284 -0.153702,0.117459 -0.128611,0.0045 -0.25395,-0.02432 -0.377997,-0.05605 -0.142266,-0.03599 -0.284297,-0.07496 -0.419632,-0.132525 z" />
    <path
       style="fill:#000000;fill-opacity:1;stroke-width:0.349999;stroke-dasharray:none"
       id="path23"
       d="m 42.409797,8.5274421 c 0.01315,0.5317265 0.01654,1.0636817 0.0245,1.5955149 0.0061,0.872225 0.0013,1.744503 -0.0016,2.61674 0.01307,0.643995 0.04229,1.287474 0.05875,1.931388 0.0098,0.525195 0.104613,1.041735 0.172185,1.561036 0.06245,0.465479 0.134202,0.92972 0.19371,1.395576 0.0776,0.496702 0.114292,0.997915 0.135646,1.499753 0.01421,0.378782 0.01381,0.757848 0.01315,1.136822 -0.01429,0.27498 0.01696,0.547953 0.04439,0.820946 0.01445,0.09227 0.0284,0.216478 0.121801,0.269581 0.918355,0.522171 0.73202,0.517678 1.439034,0.550668 0.756198,0.03011 1.512014,-0.0048 2.26763,-0.03189 0.836475,-0.04532 1.672638,-0.09344 2.507282,-0.165529 0.854162,-0.07914 1.711515,-0.109688 2.56881,-0.127063 0.877454,0.0016 1.754039,-0.0359 2.63089,-0.06294 0.734533,-0.0022 1.467543,-0.04623 2.201177,-0.07647 0.521843,-0.01617 1.041807,-0.06529 1.563269,-0.09051 0.411531,-0.0178 0.823495,-0.02102 1.235351,-0.02044 0.165708,-0.02681 0.470363,0.06314 0.615436,-0.04136 0.02842,-0.02048 0.04614,-0.05273 0.06921,-0.07909 0.01294,-0.04 0.03184,-0.07855 0.03885,-0.120011 0.02032,-0.120195 0.0096,-0.279447 0.0024,-0.397341 -0.01402,-0.232066 -0.03776,-0.463866 -0.05663,-0.695577 -0.03204,-0.496346 -0.06321,-0.992979 -0.112512,-1.487974 -0.05118,-0.495794 -0.100708,-0.991919 -0.141329,-1.488718 -0.05127,-0.670743 -0.05404,-1.343723 -0.06503,-2.015942 -0.0074,-0.714416 -0.0013,-1.42887 0.0069,-2.143246 0.0043,-0.449784 2.43e-4,-0.898978 0.02556,-1.348181 0.03161,-0.462307 0.04683,-0.92536 0.0574,-1.388547 0.0083,-0.3207602 0.01024,-0.6416252 0.01281,-0.9624669 0.02098,-0.2609312 0.05026,-0.520783 0.06678,-0.7821376 0.004,-0.1232406 -0.0019,-0.2557984 -0.126582,-0.3252079 C 59.643925,7.8683092 59.309515,7.6769102 58.955519,7.529465 58.915656,7.5128624 58.371827,7.512582 58.342807,7.51232 57.332445,7.524697 56.322187,7.54334 55.311796,7.554258 54.158723,7.542481 53.007357,7.579319 51.857327,7.6610104 51.075042,7.7252194 50.29786,7.8360347 49.516828,7.912008 c -0.460544,0.062435 -0.92303,0.1074054 -1.385408,0.1534316 -0.655455,0.062477 -1.314389,0.055772 -1.971532,0.083302 -0.599289,0.032279 -1.199002,0.053604 -1.799035,0.064795 -0.47707,-0.00805 -0.952172,0.03538 -1.428099,0.060188 -0.489019,0.02332 -0.978648,0.02758 -1.468136,0.027991 -0.260257,5.82e-4 -0.520506,-7.409e-4 -0.780753,-0.00238 0,0 0.792607,0.575926 0.792607,0.575926 v 0 c 0.257154,-0.00138 0.514313,-0.00265 0.771456,-0.00537 0.488312,-0.0074 0.976717,-0.01497 1.464683,-0.03572 0.474456,-0.024617 0.94829,-0.062169 1.423747,-0.059714 0.596675,-0.014433 1.192786,-0.042248 1.788752,-0.074462 0.662676,-0.026043 1.326939,-0.019352 1.988032,-0.078025 0.461356,-0.043363 0.922565,-0.087599 1.380797,-0.1578451 0.769932,-0.089258 1.536731,-0.2053045 2.309529,-0.2692839 1.143881,-0.086287 2.289932,-0.1242036 3.437194,-0.1118592 1.021549,-0.00447 2.043118,-0.019471 3.06465,-0.013597 0.11556,0.00497 0.2314,0.00544 0.346676,0.014917 0.09111,0.00749 0.336315,0.1007695 0.271881,0.035923 -0.1836,-0.1847786 -0.44308,-0.2745012 -0.656844,-0.4233542 -0.03312,-0.023061 0.08039,0.02013 0.112635,0.044399 0.06498,0.048906 0.05203,0.1205979 0.05679,0.1894721 -0.01442,0.2631913 -0.04331,0.5247425 -0.07012,0.7868711 0.0024,0.3224532 0.0031,0.6449226 7.94e-4,0.9673788 -0.0066,0.4626478 -0.02101,0.9251718 -0.0523,1.3868888 -0.02714,0.451593 -0.03634,0.902846 -0.02379,1.355292 0.0072,0.717814 0.01259,1.435654 0.01177,2.153512 -0.0019,0.671005 0.0026,1.342757 0.04352,2.012707 0.03773,0.496837 0.08115,0.993433 0.135348,1.488725 0.05647,0.493415 0.08313,0.989625 0.112792,1.485221 0.02913,0.372505 0.09894,0.758553 0.03333,1.128948 -0.144163,0.12692 -0.449156,0.03628 -0.627464,0.06426 -0.411113,0.0044 -0.822423,0.0061 -1.233094,0.02794 -0.516929,0.0307 -1.032586,0.08115 -1.550236,0.09881 -0.72763,0.03512 -1.454859,0.0801 -2.18354,0.0873 -0.875985,0.02282 -1.751433,0.06494 -2.627945,0.06402 -0.860705,0.01575 -1.720834,0.04647 -2.57829,0.127698 -0.833353,0.06901 -1.667891,0.120302 -2.503003,0.162906 -0.761093,0.02562 -1.523151,0.05506 -2.284162,0.008 -0.08676,-0.0076 -0.173892,-0.01169 -0.260281,-0.02273 -0.06712,-0.0086 -0.252754,-0.07814 -0.199773,-0.03604 0.217307,0.172656 0.4743,0.28853 0.707323,0.439305 0.02611,0.0169 -0.06082,-0.01832 -0.08565,-0.03706 -0.05677,-0.04283 -0.05674,-0.0958 -0.07258,-0.159346 -0.03003,-0.271014 -0.06798,-0.541468 -0.05513,-0.815006 -0.0019,-0.382141 -0.0059,-0.764376 -0.02228,-1.146214 -0.02453,-0.503088 -0.05902,-1.005867 -0.129091,-1.504984 -0.05749,-0.468076 -0.136723,-0.933299 -0.2027,-1.400238 -0.06441,-0.516708 -0.156667,-1.030318 -0.174545,-1.551861 -0.02199,-0.646387 -0.06103,-1.292043 -0.07911,-1.938565 -0.0029,-0.872777 -0.0077,-1.745596 -0.0016,-2.618363 0.008,-0.523509 0.01127,-1.0471466 0.0245,-1.5705451 z" />
    <path
       style="fill:#000000;fill-opacity:1;stroke-width:0.349999;stroke-dasharray:none"
       id="path24"
       d="m 41.197074,23.231427 c -0.05056,-0.127413 -0.100203,-0.255066 -0.160554,-0.378231 -0.120169,-0.230422 -0.368379,-0.395313 -0.630481,-0.428631 -0.165767,-0.01865 -0.330729,0.0065 -0.492723,0.04037 -0.153008,0.03806 -0.253682,0.08223 -0.363413,0.195846 -0.08481,0.09311 -0.120682,0.209638 -0.141174,0.33103 -0.01614,0.131023 -0.01095,0.26344 -0.0098,0.395113 -0.0027,0.2181 -0.01423,0.435949 -0.01979,0.653981 -0.0044,0.15766 -0.0087,0.31532 -0.01058,0.473032 -1.91e-4,0.129767 -0.0016,0.259592 0.0046,0.389238 0.0062,0.09101 0.01196,0.182048 0.01558,0.2732 0,0 0.436321,0.218507 0.436321,0.218507 v 0 c -0.009,-0.09133 -0.01553,-0.18291 -0.02058,-0.274552 -0.0063,-0.128412 -0.0011,-0.256956 -0.0026,-0.385492 -0.0011,-0.159096 -0.0028,-0.318213 -4.8e-5,-0.477303 0.005,-0.21752 0.01209,-0.434968 0.02614,-0.652122 7.94e-4,-0.128539 1.1e-5,-0.257476 0.0117,-0.385587 0.01593,-0.112432 0.04452,-0.22041 0.124952,-0.305324 0.09908,-0.09828 0.20643,-0.14391 0.341871,-0.175773 0.160718,-0.03159 0.325699,-0.0506 0.488156,-0.01879 0.190222,0.06083 0.05613,0.02192 -0.332962,-0.209788 -0.0118,-0.007 0.02513,0.01154 0.03622,0.01966 0.04286,0.03135 0.06996,0.07982 0.0968,0.124057 0.06338,0.117969 0.115334,0.241744 0.155334,0.36963 z" />
    <path
       style="fill:#000000;fill-opacity:1;stroke-width:0.349999;stroke-dasharray:none"
       id="path25"
       d="m 39.097915,23.860289 c 0.164648,-0.02477 0.331513,-0.01612 0.497234,-0.01171 0.183206,0.0054 0.366411,0.01091 0.54967,0.01403 0.112754,9.79e-4 0.22162,0.02916 0.331798,0.04895 0.03473,0.0062 0.06987,0.0091 0.104997,0.01176 0,0 -0.395846,-0.293195 -0.395846,-0.293195 v 0 c -0.03375,-0.0037 -0.06747,-0.0077 -0.100864,-0.01393 -0.109509,-0.01965 -0.219139,-0.03881 -0.330923,-0.03826 -0.180774,-0.0013 -0.361532,-0.0038 -0.542226,-0.0095 -0.172567,-0.0047 -0.345718,-0.0118 -0.517766,0.007 z" />
    <path
       style="fill:#000000;fill-opacity:1;stroke-width:0.349999;stroke-dasharray:none"
       id="path26"
       d="m 41.569039,23.425751 c 0.02241,0.144444 0.03935,0.289879 0.0574,0.434976 0.0245,0.200783 0.03225,0.403022 0.03542,0.605103 -0.0038,0.157237 0.0083,0.313909 0.0172,0.470724 0.0047,0.05879 0.01222,0.117308 0.01931,0.175849 0,0 0.437716,0.215724 0.437716,0.215724 v 0 c -0.0085,-0.05809 -0.01762,-0.116124 -0.02416,-0.174492 -0.0113,-0.157112 -0.02479,-0.314079 -0.02376,-0.471746 -0.0056,-0.203338 -0.01074,-0.406887 -0.03328,-0.609237 -0.0164,-0.142891 -0.0339,-0.285764 -0.04112,-0.429472 z" />
    <path
       style="fill:#000000;fill-opacity:1;stroke-width:0.349999;stroke-dasharray:none"
       id="path27"
       d="m 42.008419,22.949335 c 5.29e-4,-0.02595 0.0028,-0.0548 0.01916,-0.07651 0.0028,-0.0037 0.0076,-0.01026 0.01146,-0.0077 0.0048,0.0033 0.0079,0.01996 0.0027,0.0173 -0.141952,-0.07262 -0.279472,-0.153599 -0.419209,-0.230398 0.03312,0.01742 -0.02003,0.02235 -0.03393,0.01979 -0.126193,-0.120957 -0.01564,-0.01304 0.401418,0.219787 0.0048,0.0027 -0.01011,-0.0048 -0.01421,-0.0085 -0.01519,-0.0137 -0.0092,-0.029 -0.0029,-0.04504 0.0041,-0.0045 0.0082,-0.009 0.01233,-0.01356 0,0 -0.42409,-0.253925 -0.42409,-0.253925 v 0 c -0.0064,0.0084 -0.01273,0.01672 -0.01908,0.02508 -0.01161,0.02509 -0.0172,0.03183 -0.02043,0.0598 -0.02035,0.176302 0.323175,0.33548 0.47181,0.301898 0.0528,-0.01918 0.09294,-0.05389 0.08752,-0.114907 -0.254048,-0.145543 -0.458097,-0.42478 -0.513662,-0.117958 z" />
    <path
       style="fill:#000000;fill-opacity:1;stroke-width:0.349999;stroke-dasharray:none"
       id="path28"
       d="m 42.405199,23.31299 c 0.03604,0.139311 0.05481,0.282976 0.0707,0.425863 0.01296,0.142032 0.02966,0.283604 0.03967,0.425897 0.01614,0.146355 0.02787,0.292919 0.03374,0.440041 0.0047,0.132243 0.0049,0.264602 0.004,0.396911 -0.0026,0.320723 -0.06598,0.1516 0.4405,0.395232 0.02887,-0.117326 0.04532,-0.237166 0.06385,-0.356421 0.02175,-0.144079 0.04014,-0.288772 0.05572,-0.433655 0.01556,-0.142255 0.03762,-0.283592 0.0574,-0.425274 0.01558,-0.109628 0.04161,-0.217402 0.07501,-0.322882 0.03166,-0.08561 0.0642,-0.17064 0.117832,-0.245127 0.03665,-0.05296 0.08812,-0.06554 0.148344,-0.07242 0.05312,0.0024 0.103661,0.02176 0.150095,0.0468 0.01331,0.0072 0.05215,0.03071 0.03901,0.02323 -0.12695,-0.07227 -0.253606,-0.145054 -0.380407,-0.217581 0.06261,0.03585 0.107992,0.08916 0.149442,0.146834 0,0 0.44927,0.196652 0.44927,0.196652 v 0 c -0.03849,-0.06252 -0.08101,-0.123917 -0.142428,-0.166085 -0.15246,-0.08885 -0.304305,-0.17876 -0.457382,-0.266539 -0.06354,-0.03643 -0.137822,-0.05468 -0.210609,-0.04611 -0.07041,0.01501 -0.128135,0.04456 -0.169441,0.106029 -0.05261,0.08058 -0.0875,0.169535 -0.120981,0.259407 -0.03605,0.108085 -0.06126,0.219 -0.07684,0.331923 -0.01818,0.142469 -0.03927,0.284517 -0.05658,0.427108 -0.0155,0.14414 -0.03361,0.28808 -0.05402,0.431581 -0.01958,0.114711 -0.0346,0.230947 -0.07037,0.342088 0.495887,0.290201 0.428527,0.386904 0.42663,0.06623 -0.0016,-0.133506 -0.0024,-0.267026 -0.0069,-0.400479 -0.0062,-0.14708 -0.014,-0.294157 -0.03186,-0.440367 -0.0084,-0.143506 -0.02824,-0.285694 -0.04054,-0.428842 -0.01593,-0.14312 -0.03894,-0.285197 -0.05657,-0.428091 z" />
    <path
       style="fill:#000000;fill-opacity:1;stroke-width:0.349999;stroke-dasharray:none"
       id="path30"
       d="m 44.779533,23.034072 c -0.08293,-0.0093 -0.166077,-0.01608 -0.249423,-0.02017 -0.09207,-0.0083 -0.173927,0.02626 -0.250492,0.07344 -0.08323,0.06128 -0.126926,0.154952 -0.176355,0.24254 -0.05095,0.08967 -0.08727,0.185929 -0.115223,0.284884 -0.02852,0.09557 -0.03435,0.172622 0.0016,0.26594 0.04916,0.09892 0.140078,0.163434 0.230285,0.22207 0.0141,0.0085 0.02803,0.01726 0.0423,0.02545 0.152739,0.08773 0.304549,0.177132 0.458719,0.262327 0.0131,0.0072 0.02842,0.0095 0.04248,0.01464 0.04196,0.01541 0.08226,0.03319 0.122256,0.05306 0.179554,0.08394 0.581065,0.321933 -0.162139,-0.10446 0.07477,0.0428 0.122391,0.107404 0.153281,0.186199 0.02267,0.07148 0.0298,0.146408 0.01714,0.220233 -0.01312,0.07634 -0.05462,0.138402 -0.102185,0.197408 -0.06306,0.05958 -0.125031,0.122358 -0.196617,0.171699 -0.06723,0.05395 -0.147116,0.08001 -0.226261,0.109591 -0.06925,0.02549 -0.143187,0.03027 -0.216207,0.03357 -0.0473,0.0016 -0.09463,0.0015 -0.141944,0.0014 0,0 0.398458,0.289195 0.398458,0.289195 v 0 c 0.04754,-5.82e-4 0.0951,-0.0013 0.142568,-0.0044 0.07656,-0.0059 0.153032,-0.0159 0.224631,-0.04542 0.08245,-0.03071 0.161692,-0.06789 0.23223,-0.12145 0.07285,-0.05496 0.139861,-0.118027 0.204391,-0.182437 0.05188,-0.06521 0.09773,-0.134392 0.113704,-0.21782 0.01818,-0.081 0.01482,-0.162744 -0.0054,-0.24346 -0.02598,-0.08533 -0.06512,-0.165588 -0.141403,-0.216898 -0.224021,-0.130879 -0.442225,-0.268608 -0.677363,-0.377737 -0.04105,-0.01791 -0.08306,-0.03347 -0.124103,-0.05131 -0.01323,-0.0057 -0.05156,-0.02577 -0.03915,-0.01841 0.111257,0.06603 0.537339,0.312096 0.335666,0.194855 -0.0896,-0.05092 -0.17835,-0.108553 -0.239371,-0.193456 -0.04581,-0.09187 -0.04538,-0.136334 -0.01934,-0.237458 0.02564,-0.09545 0.06371,-0.186764 0.109437,-0.274382 0.0453,-0.07984 0.08632,-0.166805 0.165084,-0.21919 0.07396,-0.04053 0.150024,-0.06012 0.235029,-0.04949 0.08343,0.0047 0.166852,0.01153 0.249304,0.02554 z" />
    <path
       style="fill:#000000;fill-opacity:1;stroke-width:0.349999;stroke-dasharray:none"
       id="path31"
       d="m 45.911177,23.184616 c -0.01754,0.08788 -0.03474,0.175505 -0.04568,0.264526 -0.0099,0.09912 -0.01056,0.198625 -0.0021,0.297796 0.01087,0.09745 0.01664,0.19525 0.02014,0.293202 0.0016,0.08877 0.0021,0.177567 0.0019,0.266349 0.0013,0.107002 0.0016,0.21401 5.29e-4,0.321015 -5.29e-4,0.09252 -5.29e-4,0.185042 -7.94e-4,0.277563 -1.4e-4,0.07913 -5.29e-4,0.158267 -7.94e-4,0.237401 2.65e-4,0.07514 -9.8e-5,0.150278 5.29e-4,0.225419 -0.0024,0.07147 0.0084,0.14242 0.02207,0.212347 0.01543,0.07462 0.0594,0.132678 0.114038,0.183362 0.175725,0.145304 0.371943,0.295796 0.599956,0.330538 0.06058,0.0067 0.121647,0.0058 0.182496,0.0055 0.06182,-0.0046 0.09746,-0.03983 0.139062,-0.08065 0.03804,-0.04327 0.05803,-0.09748 0.07896,-0.150181 0.02103,-0.05919 0.04274,-0.118239 0.0579,-0.17926 0,0 -0.43397,-0.233896 -0.43397,-0.233896 v 0 c -0.01302,0.05906 -0.03467,0.115367 -0.05438,0.172409 -0.01924,0.04605 -0.03497,0.09493 -0.06977,0.132226 -0.03408,0.03343 -0.06691,0.052 -0.116737,0.04941 -0.05889,-4.5e-4 -0.118398,-5.82e-4 -0.176123,-0.01379 -0.02492,-0.0072 -0.03296,-0.0084 -0.05669,-0.01949 -0.0095,-0.0044 -0.03695,-0.02016 -0.02788,-0.01482 0.704098,0.4143 0.465566,0.291422 0.333078,0.186779 -0.05318,-0.04207 -0.10583,-0.08686 -0.126714,-0.154088 -0.01595,-0.06632 -0.02758,-0.135571 -0.0282,-0.203698 7.94e-4,-0.07494 2.65e-4,-0.149869 5.29e-4,-0.224809 -5.29e-4,-0.07943 -7.93e-4,-0.158867 -7.93e-4,-0.238301 -2.65e-4,-0.09275 -1.49e-4,-0.185495 -5.3e-4,-0.278242 -7.93e-4,-0.106784 -5.29e-4,-0.21357 7.94e-4,-0.32035 -1.48e-4,-0.08943 2.65e-4,-0.178866 -0.0026,-0.268269 -0.0024,-0.09886 -0.007,-0.197753 -0.01892,-0.295982 -0.0095,-0.09612 -0.01103,-0.191947 -0.0011,-0.288263 0.0087,-0.08834 0.0226,-0.176097 0.04877,-0.261155 z" />
    <path
       style="fill:#000000;fill-opacity:1;stroke-width:0.349999;stroke-dasharray:none"
       id="path32"
       d="m 45.703378,23.985771 c 0.127106,-0.0028 0.254344,-0.0065 0.381305,0.001 0.128381,0.01262 0.257817,0.01395 0.385937,0.02871 0.08846,0.01218 0.177122,0.02228 0.266298,0.02714 0.04234,0.002 0.08473,0.0023 0.127111,0.0026 0,0 -0.398616,-0.29023 -0.398616,-0.29023 v 0 c -0.0416,-5.82e-4 -0.0832,-0.0013 -0.124738,-0.0039 -0.08732,-0.0058 -0.174191,-0.01601 -0.261154,-0.02566 -0.127768,-0.01054 -0.256056,-0.01448 -0.383911,-0.02412 -0.13067,-0.0046 -0.261429,-0.0021 -0.392126,-0.0061 z" />
    <path
       style="fill:#000000;fill-opacity:1;stroke-width:0.349999;stroke-dasharray:none"
       id="path33"
       d="m 47.664533,25.444418 c 0.10939,-0.0036 0.218874,-0.0027 0.328306,-0.0025 0.08787,0.0079 0.17512,0.02095 0.263115,0.0276 0.08131,0.0035 0.162727,0.0031 0.244094,0.0036 0.08538,-5.56e-4 0.17077,7.2e-5 0.256154,-1.39e-4 0.08629,3.71e-4 0.172577,-2.91e-4 0.258865,-6.88e-4 0.08558,0.0061 0.169548,-0.0094 0.254096,-0.01946 0.04341,-0.0042 0.02193,-0.0024 0.06446,-0.0054 0,0 -0.40114,-0.286086 -0.40114,-0.286086 v 0 c -0.04297,0.0045 -0.0213,0.002 -0.06499,0.0074 -0.08224,0.01127 -0.164365,0.02088 -0.247642,0.01641 -0.08685,-3.7e-4 -0.173705,-0.001 -0.260557,-5.02e-4 -0.08534,-7.6e-5 -0.170682,8.46e-4 -0.256024,-7.5e-5 -0.08105,-2.65e-4 -0.162221,-7.15e-4 -0.243043,-0.0075 -0.08695,-0.0075 -0.173615,-0.01963 -0.260985,-0.02114 -0.11175,1.44e-4 -0.223547,0.001 -0.335259,-0.0025 z" />
    <path
       style="fill:#000000;fill-opacity:1;stroke-width:0.349999;stroke-dasharray:none"
       id="path34"
       d="m 49.744328,23.166616 c 0.02352,0.115828 0.04143,0.232762 0.05899,0.349623 0.02191,0.123257 0.03652,0.247413 0.04473,0.372278 0.0047,0.114232 0.0048,0.228372 0.01191,0.342508 0.0067,0.103542 0.0078,0.207225 0.01696,0.310585 0.0046,0.07949 0.01662,0.158137 0.02569,0.237156 0.008,0.07019 0.0096,0.140847 0.0141,0.211293 0.0068,0.07811 0.01209,0.156296 0.01537,0.23463 0.0016,0.05508 0.0013,0.110192 0.0011,0.165288 -2.01e-4,0.03592 -2.65e-4,0.07183 -2.65e-4,0.107751 0,0 0.43941,0.22395 0.43941,0.22395 v 0 c 2e-6,-0.03608 1.3e-5,-0.07215 -2.2e-4,-0.108226 -5.29e-4,-0.05625 -0.0016,-0.112491 -0.0037,-0.168701 -0.003,-0.07922 -0.0096,-0.1582 -0.01744,-0.237085 -0.0048,-0.07068 1.32e-4,-0.141859 -0.0099,-0.212259 -0.01035,-0.07923 -0.02453,-0.15795 -0.02984,-0.237765 -0.01061,-0.103453 -0.01566,-0.207172 -0.0217,-0.310986 -0.0063,-0.11408 -0.0073,-0.228205 -0.01146,-0.342382 -0.0072,-0.126772 -0.02278,-0.252587 -0.04611,-0.377452 -0.01614,-0.113747 -0.03432,-0.227266 -0.04514,-0.341679 z" />
    <path
       style="fill:#000000;fill-opacity:1;stroke-width:0.349999;stroke-dasharray:none"
       id="path35"
       d="m 50.186301,23.456455 c 0.06755,-0.06424 0.148254,-0.111118 0.228738,-0.156984 0.08228,-0.04706 0.172323,-0.06086 0.265152,-0.06766 0.0969,-0.0101 0.190127,0.0011 0.28149,0.0337 0.03525,0.01503 0.04312,0.01716 0.07608,0.03594 0.01122,0.0064 0.04414,0.02689 0.03291,0.02049 -0.666491,-0.379718 -0.46826,-0.284172 -0.330737,-0.182242 0.05571,0.04118 0.103915,0.09089 0.144825,0.146571 0.03328,0.04535 0.05482,0.09642 0.06763,0.150848 0.01381,0.05025 0.0019,0.08959 -0.02619,0.131381 -0.03758,0.04181 -0.08794,0.06799 -0.136165,0.09528 -0.05002,0.02243 -0.09543,0.05337 -0.144257,0.07805 -0.03947,0.02244 -0.08181,0.04121 -0.125523,0.05375 -0.04689,0.02086 -0.09534,0.03536 -0.145812,0.04431 -0.04699,0.01535 -0.09544,0.0235 -0.144584,0.02714 -0.03503,0.002 -0.07012,0.0018 -0.105188,0.0018 0,0 0.399246,0.289545 0.399246,0.289545 v 0 c 0.03599,-6.35e-4 0.07205,-0.0015 0.107794,-0.0061 0.04939,-0.0072 0.09737,-0.02 0.145721,-0.03216 0.0514,-0.01246 0.101354,-0.02916 0.150755,-0.048 0.04454,-0.01719 0.08821,-0.03668 0.129315,-0.06111 0.04758,-0.02706 0.09468,-0.05496 0.143251,-0.08024 0.05423,-0.03132 0.110164,-0.06365 0.149283,-0.113783 0.03385,-0.05068 0.0573,-0.10382 0.04375,-0.166077 -0.01072,-0.06027 -0.02601,-0.117945 -0.06009,-0.169781 -0.04065,-0.05908 -0.08415,-0.114608 -0.139605,-0.160948 -0.18945,-0.141979 -0.393306,-0.272103 -0.616765,-0.351503 -0.09582,-0.0239 -0.192648,-0.02874 -0.290973,-0.01773 -0.09837,0.01004 -0.190928,0.03272 -0.275971,0.08577 -0.08462,0.0495 -0.16815,0.101036 -0.245491,0.161527 z" />
    <path
       style="fill:#000000;fill-opacity:1;stroke-width:0.349999;stroke-dasharray:none"
       id="path36"
       d="m 51.446641,23.221197 c -0.01116,0.09143 -0.0218,0.182343 -0.02543,0.274477 -0.0048,0.129654 -0.01286,0.258954 -0.0021,0.388446 0.01714,0.118934 0.03899,0.237174 0.0602,0.355446 0.01744,0.08492 0.02487,0.171321 0.03687,0.257066 0.01125,0.07516 0.01508,0.151028 0.01749,0.226891 0.0016,0.07242 0.0013,0.144878 5.29e-4,0.217311 -0.0013,0.07211 -0.0082,0.144117 -0.01513,0.215887 -0.01058,0.08797 -0.01789,0.17627 -0.02368,0.264666 -0.0035,0.05335 -0.0048,0.106796 -0.0053,0.160244 -3.4e-5,0.0072 -6.9e-5,0.01443 -1.03e-4,0.02164 0,0 0.439269,0.223784 0.439269,0.223784 v 0 c -4.2e-5,-0.0072 -8.7e-5,-0.01444 -1.3e-4,-0.02166 -2.64e-4,-0.05351 -0.0011,-0.107025 -1.8e-5,-0.160531 0.0021,-0.0878 0.0074,-0.17556 0.02021,-0.26253 0.01005,-0.07259 0.01831,-0.146231 0.02077,-0.219351 -5.29e-4,-0.0731 -5.29e-4,-0.146198 -0.0019,-0.219291 -0.0013,-0.07749 -0.0039,-0.15521 -0.01524,-0.23199 -0.01225,-0.08723 -0.02188,-0.174895 -0.03971,-0.261251 -0.02426,-0.116874 -0.04537,-0.234427 -0.06429,-0.352273 -0.01373,-0.127115 -0.0093,-0.255073 -0.0027,-0.382592 0.0075,-0.08869 0.01704,-0.176985 0.0374,-0.263787 z" />
    <path
       style="fill:#000000;fill-opacity:1;stroke-width:0.349999;stroke-dasharray:none"
       id="path37"
       d="m 52.818146,23.720802 c -0.07836,0.01191 -0.149955,0.04179 -0.217678,0.08183 -0.07682,0.05045 -0.135581,0.120124 -0.186645,0.195413 -0.04579,0.07127 -0.08132,0.148509 -0.103548,0.2302 -0.02204,0.0908 -0.01106,0.180307 0.01066,0.269684 0.02508,0.09069 0.06473,0.176084 0.108985,0.258773 0.02795,0.05216 0.06028,0.100489 0.09949,0.144607 0.184857,0.198422 0.331039,0.268047 0.545822,0.26769 0.01019,-0.0015 0.02085,-0.001 0.03052,-0.0045 0.08228,-0.02934 0.137662,-0.109529 0.18728,-0.176188 0.06048,-0.08574 0.09054,-0.183593 0.0986,-0.287154 5.3e-4,-0.101694 -0.01495,-0.203054 -0.02777,-0.303811 -0.01318,-0.08579 -0.01603,-0.172608 -0.02426,-0.258865 -0.0048,-0.03943 -0.01233,-0.07842 -0.01913,-0.11753 -7.93e-4,-0.0038 7.94e-4,-0.01451 -0.0016,-0.01153 -0.0071,0.0085 -0.0093,0.02011 -0.01394,0.03017 -0.592111,-0.340288 -0.468439,-0.372893 -0.411649,-0.183752 0.01331,0.04428 0.0226,0.08964 0.03254,0.134741 0.02516,0.107192 0.04869,0.214768 0.07269,0.322229 0.0155,0.08863 0.04736,0.171193 0.0904,0.249675 0.0379,0.06712 0.08284,0.129824 0.135485,0.186076 0.03977,0.04045 0.07545,0.08456 0.114969,0.125213 0.152353,0.159269 0.328343,0.222331 0.537065,0.343233 0.04283,0.01445 0.08825,0.01503 0.132953,0.01558 0.04302,-0.0014 0.08661,0.0038 0.128802,-0.0056 0.0072,-0.0015 0.01445,-0.003 0.02167,-0.0045 0,0 -0.403738,-0.283072 -0.403738,-0.283072 v 0 c -0.0068,9e-4 -0.01363,0.0018 -0.02045,0.0027 -0.04131,5.03e-4 -0.08267,8.73e-4 -0.123949,-0.0012 -0.04166,-0.0033 -0.08289,-0.0096 -0.118721,-0.03282 0.735089,0.428443 0.434335,0.284995 0.300741,0.153819 -0.0413,-0.03993 -0.07904,-0.08229 -0.117909,-0.124538 -0.05181,-0.05565 -0.105719,-0.109424 -0.143129,-0.176797 -0.04362,-0.07491 -0.08279,-0.151555 -0.0992,-0.237677 -0.02254,-0.107633 -0.05126,-0.213922 -0.07214,-0.321947 -0.06718,-0.318345 0.02492,-0.158554 -0.472673,-0.43748 -0.0056,0.01048 -0.01365,0.01996 -0.01672,0.03143 -0.0013,0.0047 0.003,0.0093 0.0046,0.014 0.0026,0.0077 0.0056,0.01524 0.0078,0.02305 0.0083,0.02969 0.0099,0.06008 0.01569,0.09025 0.01638,0.08616 0.01736,0.175 0.03182,0.261563 0.0114,0.09801 0.02384,0.196375 0.029,0.294803 -0.0031,0.09464 -0.02753,0.18502 -0.08205,0.26373 -0.05059,0.06608 -0.107397,0.143346 -0.199977,0.135962 -0.01511,-0.0014 -0.03254,-0.0024 -0.04751,-0.0058 -0.0066,-0.0015 -0.01315,-0.0036 -0.01945,-0.0061 -0.0053,-0.0021 -0.0204,-0.01068 -0.01543,-0.0078 0.405754,0.236325 0.552942,0.294551 0.389913,0.229007 -0.04873,-0.03415 -0.08156,-0.08249 -0.11231,-0.132754 -0.04708,-0.07854 -0.08782,-0.160814 -0.115816,-0.248237 -0.02347,-0.08101 -0.03816,-0.162188 -0.01852,-0.245974 0.01802,-0.07713 0.04918,-0.150289 0.09299,-0.216479 0.04768,-0.06895 0.101981,-0.133547 0.175498,-0.176263 0.0647,-0.0348 0.135347,-0.05961 0.209891,-0.05656 z" />
    <path
       style="fill:#000000;fill-opacity:1;stroke-width:0.349999;stroke-dasharray:none"
       id="path38"
       d="m 54.985874,23.468251 c -0.07486,0.0031 -0.149831,0.0024 -0.224739,0.002 -0.08188,0.0027 -0.139473,0.02369 -0.20813,0.06719 -0.07912,0.04948 -0.145907,0.112824 -0.205523,0.184053 -0.06436,0.08041 -0.112209,0.17117 -0.156191,0.263748 -0.03986,0.08057 -0.06196,0.167834 -0.08337,0.254653 -0.02154,0.07546 -0.02148,0.152999 -0.01754,0.230561 0.005,0.07234 0.03221,0.140435 0.05964,0.206778 0.02801,0.06099 0.06493,0.117848 0.108019,0.169212 0.03932,0.04182 0.08007,0.08265 0.124156,0.119474 0.1807,0.136578 0.375809,0.271728 0.600128,0.31152 0.100036,0.01295 0.201157,0.01324 0.30186,0.01471 0.08337,-0.0015 0.16456,-0.02215 0.238157,-0.06089 0.0087,-0.0044 0.01733,-0.0088 0.02601,-0.01321 0,0 -0.410268,-0.269261 -0.410268,-0.269261 v 0 c -0.0083,0.0043 -0.01659,0.0087 -0.0249,0.01298 -0.06925,0.0317 -0.143068,0.04815 -0.219612,0.04564 -0.09989,-0.0017 -0.200692,-0.0033 -0.29872,-0.02466 -0.03835,-0.01034 -0.03852,-0.0091 -0.07462,-0.02363 -0.01027,-0.0041 -0.03994,-0.01902 -0.03041,-0.01338 0.680317,0.402337 0.49521,0.283998 0.34826,0.203161 -0.04532,-0.03476 -0.0876,-0.07239 -0.12795,-0.11296 -0.04638,-0.04593 -0.08414,-0.09826 -0.115848,-0.155422 -0.02946,-0.0607 -0.05448,-0.124968 -0.06744,-0.191296 -0.006,-0.07341 -0.0092,-0.146107 0.0096,-0.21829 0.01905,-0.08429 0.03923,-0.168493 0.07605,-0.247165 0.04163,-0.08923 0.08646,-0.176522 0.150312,-0.2524 0.05718,-0.06643 0.122161,-0.124406 0.198194,-0.168817 0.06128,-0.03133 0.125312,-0.04672 0.194538,-0.04573 0.07673,-4.5e-4 0.153522,-9.79e-4 0.230216,0.002 z" />
    <path
       style="fill:#000000;fill-opacity:1;stroke-width:0.349999;stroke-dasharray:none"
       id="path39"
       d="m 56.073783,24.584314 c 0.102613,0.0049 0.205311,0.0077 0.307985,0.01097 0.08393,0.0067 0.166794,7.67e-4 0.250198,-0.0076 0.06402,-0.0077 0.123651,-0.02822 0.184537,-0.04761 0.05998,-0.02139 0.118827,-0.04543 0.175768,-0.07398 0.05807,-0.03741 0.100872,-0.08906 0.128902,-0.151651 0.02577,-0.07005 0.02543,-0.146177 0.02394,-0.219863 5.29e-4,-0.05843 -0.01389,-0.110659 -0.04447,-0.159799 -0.015,-0.02035 -0.01183,-0.01784 -0.03012,-0.03544 -0.01754,-0.01686 -0.03774,-0.0317 -0.05877,-0.04395 -0.148431,-0.08646 -0.297373,-0.172039 -0.446058,-0.258059 -0.07288,-0.04473 -0.15657,-0.05275 -0.24022,-0.05395 -0.05901,0.0021 -0.120301,-0.0018 -0.177197,0.0176 -0.03154,0.01077 -0.04268,0.02007 -0.07005,0.03752 -0.0689,0.04731 -0.104489,0.120158 -0.13757,0.19426 -0.04021,0.09329 -0.07765,0.187687 -0.114969,0.282163 -0.03397,0.09641 -0.04841,0.197478 -0.05538,0.298971 -0.0078,0.09863 0.0042,0.197051 0.02061,0.29415 0.01617,0.08961 0.03389,0.178927 0.05139,0.268284 0.01463,0.06967 0.03369,0.138474 0.05985,0.204695 0.02532,0.06938 0.07838,0.118081 0.132898,0.164917 0.175855,0.134591 0.364455,0.266015 0.575593,0.33495 0.05474,0.02593 0.117015,0.02609 0.176377,0.02955 0.05674,8.47e-4 0.114265,0.0084 0.170452,-0.0013 0.06054,-0.0079 0.11679,-0.03133 0.173215,-0.05321 0.05441,-0.02126 0.103312,-0.0502 0.149077,-0.08625 0.04558,-0.0304 0.08865,-0.06449 0.126629,-0.103997 0.03218,-0.03522 0.0601,-0.07335 0.08325,-0.114996 0.0032,-0.0066 0.0064,-0.01323 0.0096,-0.01984 0,0 -0.429157,-0.243394 -0.429157,-0.243394 v 0 c -0.0027,0.0057 -0.0054,0.01139 -0.0081,0.01709 -0.02122,0.03754 -0.0448,0.07364 -0.07495,0.104802 -0.03715,0.03712 -0.08007,0.06725 -0.122475,0.09802 -0.04349,0.03149 -0.09071,0.0559 -0.140804,0.07537 -0.05366,0.02082 -0.10905,0.03726 -0.166806,0.0413 -0.05447,7.41e-4 -0.109009,-2.6e-5 -0.163349,-0.0042 -0.05898,-0.0059 -0.116035,-0.01662 -0.169669,-0.04309 -0.148458,-0.07186 -0.351629,-0.204792 0.34935,0.204519 0.0089,0.0052 -0.01876,-0.0087 -0.02775,-0.01376 -0.02543,-0.01434 -0.03393,-0.02203 -0.05745,-0.03979 -0.05332,-0.03963 -0.110278,-0.08206 -0.141303,-0.14208 -0.02866,-0.06378 -0.04956,-0.130251 -0.06767,-0.197773 -0.019,-0.08904 -0.03428,-0.178702 -0.05256,-0.267858 -0.01889,-0.09317 -0.03167,-0.188285 -0.02627,-0.283541 0.0059,-0.09669 0.01487,-0.193967 0.04863,-0.285622 0.03645,-0.09377 0.07064,-0.188459 0.113311,-0.279682 0.0311,-0.06423 0.06396,-0.12768 0.126261,-0.166928 0.07004,-0.03773 0.149149,-0.0374 0.227111,-0.03405 0.0831,0.0084 0.160848,0.02814 0.231026,0.07545 -0.716608,-0.415015 -0.44522,-0.271053 -0.29836,-0.166346 0.03462,0.0395 0.0606,0.08165 0.06147,0.13607 0.0052,0.06624 0.0026,0.134571 -0.01598,0.198724 -0.02225,0.05329 -0.05913,0.0951 -0.110922,0.121956 -0.05572,0.02625 -0.11258,0.04965 -0.171262,0.06852 -0.05813,0.01861 -0.117353,0.03319 -0.178194,0.03972 -0.08023,0.0085 -0.160539,0.0092 -0.241168,0.0064 -0.104875,-0.0022 -0.210225,-0.0051 -0.314028,-0.02136 z" />
    <path
       style="fill:#000000;fill-opacity:1;stroke-width:0.349999;stroke-dasharray:none"
       id="path40"
       d="m 58.189449,25.478528 c 0.07035,0.0021 0.140714,0.0035 0.211074,0.0051 0.0756,0.0021 0.151226,0.0019 0.226843,0.0021 0.08067,-0.0014 0.161359,-2.1e-4 0.242036,-7.14e-4 0.06757,5.56e-4 0.135149,7.67e-4 0.202716,0.0019 0.04324,0.001 0.08649,0.001 0.129738,6.35e-4 0.04705,-0.0012 0.09435,0.0026 0.141076,-0.0034 0.04338,-0.0068 0.08716,-0.0095 0.130998,-0.01077 0.0422,-0.0017 0.08385,-0.0099 0.126084,-0.01304 0.03885,10e-4 0.07619,-0.0077 0.114615,-0.01183 0.03797,-0.003 0.01889,-7.41e-4 0.05726,-0.0067 0,0 -0.397552,-0.281164 -0.397552,-0.281164 v 0 c -0.0374,0.0037 -0.01836,0.002 -0.05712,0.0051 -0.03931,0.0036 -0.07866,0.0053 -0.117893,0.0097 -0.04074,0.0053 -0.08132,0.01203 -0.122544,0.01207 -0.04413,0.0026 -0.088,0.0069 -0.13189,0.01208 -0.04643,7.94e-4 -0.09287,2.9e-5 -0.139313,1.13e-4 -0.04267,-3.7e-4 -0.08535,-4.23e-4 -0.128016,6.35e-4 -0.06583,0.0011 -0.131668,0.0013 -0.197504,0.0019 -0.08124,-4.49e-4 -0.162481,8.21e-4 -0.243713,-5.82e-4 -0.0747,4.9e-5 -0.149397,-3.44e-4 -0.224084,-0.0015 -0.073,-0.0019 -0.14661,-0.0038 -0.218492,-0.01773 z" />
    <path
       style="fill:#000000;fill-opacity:1;stroke-width:0.349999;stroke-dasharray:none"
       id="path44"
       d="m 60.68932,23.236746 c -0.09007,0.0026 -0.178837,0.0058 -0.265652,0.03146 -0.106723,0.03388 -0.164055,0.126146 -0.218086,0.217334 -0.05975,0.117307 -0.06784,0.235466 -0.04452,0.362963 0.03544,0.121412 0.119854,0.187416 0.223155,0.25081 0.18065,0.06311 0.331603,0.209422 0.512556,0.282181 0.05387,0.02166 0.106964,0.04108 0.159306,0.06651 -0.721582,-0.418199 -0.374616,-0.245026 -0.243488,-0.09899 0.04562,0.0549 0.07077,0.119457 0.08773,0.187899 0.01177,0.06769 0.02363,0.137082 0.01318,0.205592 -0.01257,0.05745 -0.0451,0.104228 -0.08306,0.147655 -0.03802,0.0439 -0.08135,0.08165 -0.128392,0.11544 -0.051,0.03922 -0.105494,0.07354 -0.162105,0.104024 -0.05112,0.02689 -0.106598,0.03853 -0.163634,0.04269 -0.0478,0.0021 -0.09566,0.0013 -0.143478,7.94e-4 -0.02974,-3.18e-4 -0.05949,-5.03e-4 -0.08924,-6.62e-4 0,0 0.398714,0.289947 0.398714,0.289947 v 0 c 0.02958,1.1e-4 0.05915,2.52e-4 0.08873,2.65e-4 0.04904,-9.1e-5 0.09837,5.29e-4 0.147066,-0.006 0.06004,-0.01046 0.117338,-0.03001 0.170384,-0.06053 0.05817,-0.03261 0.115306,-0.06634 0.16768,-0.107913 0.04932,-0.03662 0.09357,-0.07887 0.133958,-0.125193 0.04301,-0.05068 0.07854,-0.105337 0.09626,-0.170269 0.01484,-0.07468 0.0035,-0.149871 -0.0086,-0.224399 -0.01336,-0.07421 -0.0313,-0.145128 -0.07586,-0.207496 -0.139097,-0.192703 -0.400328,-0.284993 -0.587497,-0.396235 -0.0371,-0.01628 -0.07467,-0.03042 -0.11232,-0.04533 -0.155065,-0.06144 -0.387168,-0.200392 0.270962,0.172329 -0.09659,-0.05244 -0.191717,-0.108485 -0.237464,-0.213937 -0.03392,-0.12079 -0.02952,-0.216597 0.02766,-0.330329 0.04904,-0.08249 0.1006,-0.159864 0.199544,-0.184132 0.08761,-0.01855 0.177069,-0.02149 0.266382,-0.01595 z" />
    <path
       style="fill:#000000;fill-opacity:1;stroke-width:0.349999;stroke-dasharray:none"
       id="path45"
       d="m 62.120441,24.078582 c -0.09971,0.01708 -0.198443,0.03991 -0.29622,0.06574 -0.100118,0.02564 -0.176078,0.0886 -0.241707,0.165436 -0.06574,0.07535 -0.109451,0.165027 -0.146233,0.257121 -0.03009,0.09489 -0.0591,0.194415 -0.06018,0.29494 -2.07e-4,0.01915 0.0021,0.03825 0.003,0.05738 0.01992,0.118465 0.09115,0.21107 0.174733,0.292886 0.184121,0.147467 0.385437,0.300041 0.622316,0.330772 0.06971,0.0079 0.138824,0.0049 0.20814,-0.0037 0.03222,-0.0016 0.06327,-0.01053 0.09455,-0.01757 0,0 -0.402945,-0.27973 -0.402945,-0.27973 v 0 c -0.02977,0.0063 -0.05963,0.0119 -0.09005,0.01406 -0.06673,0.0056 -0.134009,0.0041 -0.200152,-0.0072 -0.02807,-0.0062 -0.03898,-0.0075 -0.06606,-0.01827 -0.01074,-0.0043 -0.04138,-0.02075 -0.03142,-0.01484 0.686864,0.407765 0.456782,0.272893 0.31337,0.178954 -0.08523,-0.06956 -0.15997,-0.152097 -0.190823,-0.260265 -0.0021,-0.01715 -0.0059,-0.03418 -0.0066,-0.05145 -0.0042,-0.09522 0.02373,-0.191182 0.05258,-0.280578 0.03712,-0.08621 0.07938,-0.170459 0.140994,-0.242177 0.06302,-0.07137 0.130354,-0.118651 0.22403,-0.142363 0.09743,-0.02546 0.19721,-0.05094 0.298622,-0.04867 z" />
    <path
       style="fill:#000000;fill-opacity:1;stroke-width:0.349999;stroke-dasharray:none"
       id="path46"
       d="m 62.933627,25.382664 c -0.05747,-0.111352 -0.08661,-0.232131 -0.107223,-0.35481 -0.01238,-0.124408 0.0054,-0.251907 0.07121,-0.360281 0.01236,-0.02033 0.02791,-0.03853 0.04186,-0.0578 0.06808,-0.07129 0.17884,-0.152542 0.281493,-0.159695 0.01683,-0.0012 0.03358,0.0031 0.05037,0.0046 0.01672,0.0064 0.03406,0.01123 0.05013,0.01906 0.0181,0.0088 0.06963,0.04032 0.05199,0.03066 -0.119409,-0.06535 -0.233974,-0.140113 -0.357296,-0.197742 -0.02402,-0.01122 0.03889,0.03625 0.05566,0.05678 0.04095,0.05015 0.05812,0.08934 0.08828,0.146155 0.04089,0.100538 0.09073,0.209915 0.08392,0.321696 -0.0011,0.01928 -0.0061,0.03815 -0.0092,0.05723 -0.02998,0.109904 -0.09978,0.196656 -0.185814,0.268306 -0.06038,0.04835 -0.131353,0.05726 -0.205709,0.06131 -0.06704,-0.0019 -0.129783,-0.01326 -0.189645,-0.04353 0,0 0.384829,0.303195 0.384829,0.303195 v 0 c 0.06513,0.0212 0.132855,0.02807 0.201295,0.02351 0.08546,-0.0091 0.154916,-0.02981 0.220096,-0.08928 0.08884,-0.08336 0.164124,-0.177983 0.197906,-0.297359 0.0052,-0.02206 0.01302,-0.04367 0.01558,-0.06619 0.01302,-0.114403 -0.04363,-0.240962 -0.08346,-0.344597 -0.02183,-0.04561 -0.08864,-0.192053 -0.129479,-0.219539 -0.149297,-0.100487 -0.306414,-0.188906 -0.461936,-0.279462 -0.0185,-0.01078 -0.03892,-0.01835 -0.05953,-0.02417 -0.019,-0.0054 -0.03902,-0.0061 -0.05853,-0.0092 -0.01894,0.002 -0.0382,0.002 -0.0568,0.0061 -0.114482,0.02531 -0.21568,0.107766 -0.293999,0.190398 -0.01487,0.02144 -0.03127,0.0419 -0.0446,0.06433 -0.06933,0.116662 -0.09458,0.251762 -0.08534,0.386074 0.01675,0.122968 0.04216,0.241382 0.08521,0.357987 z" />
    <path
       style="fill:#000000;fill-opacity:1;stroke-width:0.349999;stroke-dasharray:none"
       id="path47"
       d="m 63.573418,24.139541 c 0.0305,0.115325 0.04501,0.233849 0.05539,0.352416 0.01238,0.137705 0.0084,0.276003 0.01593,0.413937 0.0013,0.08498 0.01199,0.169096 0.0218,0.253346 0.0016,0.04638 0.01527,0.09116 0.01958,0.137152 0.147926,0.06605 0.292264,0.140817 0.44378,0.198164 0.01013,0.0038 -0.004,-0.02134 -0.0051,-0.03213 -0.0013,-0.01389 -0.0024,-0.02785 -0.0024,-0.04181 -7.94e-4,-0.06391 0.0055,-0.127593 0.01162,-0.191087 0.01431,-0.131834 0.04643,-0.260437 0.09171,-0.384832 0.02982,-0.06965 0.06466,-0.136929 0.124177,-0.185112 0.07237,-0.04375 0.12623,-0.03163 0.203014,-0.0066 0.19008,0.107359 -0.231034,-0.132827 -0.347387,-0.197754 -0.01058,-0.0059 0.02043,0.01309 0.02982,0.02074 0.02508,0.02044 0.04364,0.04529 0.06134,0.07195 0.01077,0.01703 0.01685,0.0341 0.01902,0.0538 0,0 0.438359,0.22669 0.438359,0.22669 v 0 c 0.0044,-0.02936 0.004,-0.05323 -0.0097,-0.08076 -0.104293,-0.21341 -0.367998,-0.316336 -0.577509,-0.390008 -0.08835,-0.01625 -0.159221,-0.01391 -0.23251,0.04326 -0.06232,0.05748 -0.09964,0.13202 -0.130278,0.210412 -0.04478,0.128479 -0.07268,0.2624 -0.09274,0.39684 -0.008,0.06374 -0.01646,0.127745 -0.02212,0.191752 -0.0013,0.01456 -0.0019,0.02917 -0.0024,0.04377 -2.65e-4,0.01058 -0.009,0.02635 1.4e-4,0.03174 0.144928,0.08578 0.298685,0.155685 0.448027,0.233527 -0.02066,-0.03745 -0.02098,-0.09182 -0.02977,-0.13303 -0.01111,-0.08484 -0.02767,-0.168862 -0.03081,-0.25461 -0.01011,-0.138427 -0.01347,-0.276991 -0.01759,-0.415724 -0.009,-0.117959 -0.02471,-0.234918 -0.03976,-0.352145 z" />
    <path
       style="fill:#000000;fill-opacity:1;stroke-width:0.349999;stroke-dasharray:none"
       id="path48"
       d="m 64.688185,24.791667 c 0.168939,0.187275 0.40695,0.319328 0.653595,0.372004 0.152146,0.01933 0.300572,-0.01586 0.442941,-0.06662 0.09603,-0.03785 0.192794,-0.08816 0.249322,-0.178404 0.0085,-0.01365 0.01479,-0.02863 0.02217,-0.04295 0.04056,-0.100835 0.02808,-0.158539 -0.03075,-0.246475 -0.131414,-0.154923 -0.338664,-0.226266 -0.509995,-0.32364 -0.04429,-0.02517 -0.0988,-0.02873 -0.147939,-0.03346 -0.107778,-7.15e-4 -0.221372,0.01966 -0.317302,0.07162 -0.02215,0.012 -0.04218,0.02757 -0.06327,0.04136 -0.07478,0.05488 -0.142076,0.120676 -0.178647,0.207603 -0.0199,0.04729 -0.02164,0.07233 -0.03068,0.12221 -0.0145,0.119624 0.01299,0.235333 0.05047,0.347924 0.03606,0.09985 0.08887,0.19196 0.151958,0.276957 0.133993,0.14972 0.367993,0.237296 0.518563,0.320556 0.01815,0.01004 0.0786,0.02535 0.09801,0.02882 0.02019,0.0036 0.04069,0.0051 0.06104,0.0077 0.106484,0.01169 0.213561,0.0167 0.32063,0.01818 0.04416,-0.0016 0.08917,0.0053 0.132866,-0.0038 0.0045,-9.26e-4 0.05149,-0.01489 0.05722,-0.01658 0.03375,-0.01199 0.0637,-0.02615 0.09086,-0.0495 0,0 -0.4176,-0.26278 -0.4176,-0.26278 v 0 c -0.02376,0.01623 -0.05051,0.02638 -0.07815,0.03423 -0.05876,0.01454 -0.118629,0.01175 -0.178821,0.01174 -0.103714,-9.52e-4 -0.207833,-0.003 -0.310359,-0.02039 -0.04992,-0.01138 -0.06333,-0.0122 -0.108897,-0.03037 -0.01519,-0.0061 -0.05862,-0.02897 -0.0446,-0.02052 0.123325,0.07433 0.248729,0.145162 0.372758,0.218311 0.01193,0.007 -0.02503,-0.01214 -0.03645,-0.01997 -0.01066,-0.0073 -0.01963,-0.01678 -0.02946,-0.02518 -0.07045,-0.07688 -0.123441,-0.167109 -0.163698,-0.263168 -0.03751,-0.105719 -0.07004,-0.213058 -0.06169,-0.326904 0.0061,-0.0409 0.0081,-0.07047 0.02315,-0.109345 0.03088,-0.07973 0.09285,-0.139383 0.16178,-0.187035 0.02019,-0.01129 0.03963,-0.02406 0.06058,-0.03387 0.09453,-0.04431 0.201668,-0.06086 0.304866,-0.04858 0.05028,0.01127 0.05604,0.0098 0.101822,0.03011 0.01349,0.006 0.05198,0.02792 0.0393,0.02038 -0.683191,-0.406566 -0.445079,-0.280635 -0.314981,-0.175176 0.05777,0.06912 0.0887,0.106593 0.05532,0.198903 -0.05284,0.111631 -0.130482,0.150174 -0.242001,0.195658 -0.139875,0.04604 -0.286218,0.07295 -0.432461,0.03996 -0.01834,-0.0055 -0.03701,-0.01002 -0.05503,-0.01651 -0.01717,-0.0062 -0.06591,-0.03099 -0.05036,-0.02144 0.12156,0.0746 0.245853,0.144637 0.368829,0.216873 0.0021,0.0012 -0.03427,-0.01495 -0.06479,-0.04506 -0.0057,-0.0057 -0.01008,-0.01262 -0.01513,-0.01893 z" />
    <path
       style="fill:#000000;fill-opacity:1;stroke-width:0.349999;stroke-dasharray:none"
       id="path60"
       d="m 9.148207,12.652974 c 0.2306561,0.03325 0.4619154,0.06348 0.693678,0.08903 0.286957,0.02939 0.574269,0.05246 0.86239,0.06637 0.214572,0.0095 0.429394,0.01058 0.644136,0.01243 0.13788,-0.004 0.274742,0.0052 0.411982,0.01639 0.09921,0.0077 0.198557,0.0131 0.298023,0.0157 0,0 -0.39678,-0.289775 -0.39678,-0.289775 v 0 c -0.09742,-0.0022 -0.194802,-0.0065 -0.291938,-0.01453 -0.136332,-0.01046 -0.272525,-0.01419 -0.409273,-0.0098 -0.211788,7.68e-4 -0.423603,-3.7e-4 -0.635266,-0.0085 -0.286322,-0.01258 -0.5718221,-0.03591 -0.8568228,-0.06619 -0.2397384,-0.02832 -0.4793271,-0.05905 -0.7157667,-0.108642 z" />
    <path
       style="fill:#000000;fill-opacity:1;stroke-width:0.349999;stroke-dasharray:none"
       id="path61"
       d="m 10.345442,12.528665 c 0.005,0.116966 0.0046,0.234134 0.0048,0.351193 0.0055,0.151309 -0.0068,0.302111 -0.01683,0.452924 -0.01088,0.153061 -0.03851,0.303526 -0.07577,0.452148 -0.03865,0.15849 -0.0836,0.315466 -0.139681,0.468686 -0.0511,0.111966 -0.100787,0.226329 -0.1760407,0.324507 -0.064899,0.06464 -0.1511279,0.08285 -0.238564,0.09448 -0.082161,0.01144 -0.1623105,0.0043 -0.2378022,-0.03025 0.1294657,0.07295 0.2579675,0.147632 0.3883975,0.218841 0.011573,0.0063 -0.021966,-0.01483 -0.031467,-0.02397 -0.044107,-0.04246 -0.066279,-0.0985 -0.084736,-0.155281 -0.021553,-0.08956 -0.029281,-0.183161 -0.022908,-0.275051 0.00297,-0.03007 0.00801,-0.05934 0.016653,-0.08823 0,0 -0.4329485,-0.237085 -0.4329485,-0.237085 v 0 c -0.010178,0.03255 -0.016412,0.06508 -0.019375,0.09919 -0.00781,0.09694 9.261e-4,0.195616 0.016383,0.291417 0.077442,0.29802 0.2257171,0.294063 0.5572054,0.472504 0.082499,0.02255 0.1668925,0.02472 0.2511925,0.0091 0.09747,-0.01884 0.191477,-0.04894 0.258622,-0.126733 0.07374,-0.105113 0.12548,-0.222777 0.176997,-0.339957 0.05513,-0.155267 0.103403,-0.312918 0.140405,-0.473564 0.03912,-0.150778 0.07271,-0.302822 0.08273,-0.458748 0.0085,-0.15163 0.0222,-0.303109 0.01902,-0.455124 2.65e-4,-0.115417 -2.91e-4,-0.230951 0.0048,-0.34627 z" />
    <path
       style="fill:#000000;fill-opacity:1;stroke-width:0.349999;stroke-dasharray:none"
       id="path63"
       d="m 12.01113,13.724246 c -0.05628,0.01156 -0.115155,0.01448 -0.170174,0.03217 -0.03323,0.01068 -0.05516,0.02498 -0.08527,0.04191 -0.08638,0.04948 -0.142818,0.125538 -0.191882,0.209719 -0.04925,0.07979 -0.08994,0.164024 -0.127216,0.249919 -0.02407,0.06055 -0.05206,0.11843 -0.06674,0.182194 -0.01709,0.07076 -0.0033,0.138463 0.01943,0.20585 0.02358,0.05887 0.06068,0.108128 0.110604,0.146733 0.150033,0.08408 0.299984,0.168303 0.450099,0.252236 0.04335,0.02424 0.08461,0.03118 0.133519,0.03617 0.06682,0.0086 0.131635,0.0047 0.197593,-0.0061 0.07946,-0.01506 0.14511,-0.05302 0.20713,-0.103402 0.06721,-0.05301 0.09023,-0.127276 0.102867,-0.208495 0.0097,-0.09789 0.009,-0.196435 0.0098,-0.294698 -2.56e-4,-0.08533 -5.56e-4,-0.170661 -2.32e-4,-0.255994 3.17e-4,-0.06532 5.03e-4,-0.130639 6.08e-4,-0.19596 0.03178,-0.177673 -0.553867,-0.426131 -0.439455,-0.244026 0.04138,0.08262 0.06781,0.171748 0.09681,0.259225 0.03422,0.09922 0.07223,0.197174 0.110216,0.295024 0.03307,0.07949 0.07071,0.156902 0.122431,0.225913 0.03207,0.03921 0.06735,0.07794 0.112158,0.103013 0.466192,0.260874 0.290814,0.22275 0.511386,0.264122 0.09895,0.01 0.200115,0.02385 0.299443,0.01269 0.03251,-0.0012 0.06068,-0.01563 0.08989,-0.02799 0,0 -0.410295,-0.275233 -0.410295,-0.275233 v 0 c -0.02585,0.0093 -0.05137,0.01693 -0.07923,0.01757 -0.09637,0.0037 -0.193883,-0.0036 -0.288189,-0.02398 -0.187397,-0.05902 -0.04838,-0.01899 0.335341,0.209389 0.01094,0.0065 -0.02303,-0.01093 -0.03407,-0.01728 -0.01897,-0.01091 -0.04282,-0.02752 -0.05901,-0.04256 -0.009,-0.0084 -0.01687,-0.01794 -0.02531,-0.02691 -0.05591,-0.0637 -0.09792,-0.135218 -0.130371,-0.213692 -0.04122,-0.09614 -0.07584,-0.195155 -0.113889,-0.292576 -0.0273,-0.08808 -0.0551,-0.176057 -0.08652,-0.262713 -0.06952,-0.182602 -0.543224,-0.415714 -0.450648,-0.183807 1.25e-4,0.06564 3.7e-4,0.131277 10e-4,0.196913 7.67e-4,0.08554 0.0012,0.171089 0.0016,0.256634 9.26e-4,0.096 0.002,0.192282 -0.007,0.287967 -0.0097,0.06989 -0.0256,0.131737 -0.08556,0.175593 -0.05769,0.04388 -0.120038,0.07305 -0.192872,0.08151 -0.06329,0.007 -0.126944,0.0041 -0.18986,-0.0059 -0.180046,-0.03792 -0.476758,-0.266615 0.271181,0.184686 -0.05655,-0.02417 -0.0934,-0.0649 -0.124919,-0.117099 -0.02582,-0.05781 -0.04447,-0.115917 -0.03057,-0.179609 0.01156,-0.06149 0.03808,-0.116918 0.05924,-0.175463 0.03489,-0.08451 0.07475,-0.16693 0.122425,-0.245036 0.04605,-0.07605 0.09764,-0.144327 0.17875,-0.186047 0.07688,-0.03698 0.161005,-0.05213 0.246315,-0.05153 z" />
    <path
       style="fill:#000000;fill-opacity:1;stroke-width:0.349999;stroke-dasharray:none"
       id="path64"
       d="m 14.129246,13.46223 c 1.001505,0.578175 -0.05283,-0.03142 -0.07953,-0.04663 -0.02317,-0.01319 -0.06781,-0.03263 -0.09362,-0.03918 -0.04507,-0.01144 -0.06036,-0.008 -0.106643,-0.0071 -0.132456,0.02716 -0.194681,0.07054 -0.266312,0.183059 -0.05428,0.10119 -0.07314,0.195829 -0.05472,0.308726 0.02593,0.114121 0.11241,0.185998 0.199378,0.255966 0.09655,0.07652 0.201291,0.141827 0.29815,0.217853 0.06705,0.05306 0.120789,0.114886 0.155563,0.192985 0.02545,0.07009 0.0381,0.144126 0.02549,0.217938 -0.01268,0.06133 -0.04559,0.112646 -0.100988,0.14235 -0.05796,0.03513 -0.123346,0.04795 -0.18977,0.05453 -0.06028,0.0042 -0.120757,0.0034 -0.18114,0.0032 -0.03174,-0.0096 -0.06409,-0.01288 -0.09292,-0.02945 0,0 0.389561,0.304892 0.389561,0.304892 v 0 c 0.03374,0.007 0.06754,0.01587 0.102318,0.01443 0.0616,-2.22e-4 0.123455,-3.44e-4 0.184596,-0.0089 0.0712,-0.01211 0.139839,-0.03307 0.201252,-0.07234 0.06123,-0.04363 0.104521,-0.102265 0.120467,-0.176932 0.01854,-0.08168 0.01014,-0.163614 -0.01403,-0.243677 -0.03111,-0.08971 -0.07355,-0.15528 -0.147541,-0.21642 -0.09387,-0.08173 -0.202215,-0.144193 -0.300784,-0.219972 -0.08083,-0.06338 -0.172156,-0.12312 -0.209319,-0.22361 -0.02709,-0.100779 -0.01306,-0.182927 0.0359,-0.275384 0.06202,-0.09404 0.12273,-0.13428 0.238306,-0.140496 0.05263,0.0064 0.0949,0.01746 0.142673,0.04117 0.0149,0.0074 0.05825,0.0321 0.04389,0.02371 -0.02793,-0.01632 -1.111335,-0.643863 0.08339,0.04967 z" />
    <path
       style="fill:#000000;fill-opacity:1;stroke-width:0.349999;stroke-dasharray:none"
       id="path65"
       d="m 15.302163,15.103116 c -0.05385,-0.160366 -0.06915,-0.329969 -0.0664,-0.498125 0.0083,-0.160534 0.04703,-0.279764 0.144742,-0.406207 0.08926,-0.103191 0.205985,-0.165216 0.336306,-0.198656 0.01795,-0.003 0.03567,-0.0096 0.05385,-0.0089 0.06249,0.0024 0.134691,0.04385 0.18819,0.07189 0.02377,0.01246 0.09315,0.05338 0.06981,0.04012 -0.115143,-0.06537 -0.230145,-0.130991 -0.345217,-0.196486 0.136948,0.08509 0.248374,0.200277 0.343731,0.328962 0.06718,0.09069 0.09803,0.194346 0.114831,0.304205 0.0115,0.113977 -0.01071,0.179083 -0.06598,0.276758 -0.05963,0.09346 -0.141199,0.166857 -0.225259,0.237379 -0.07951,0.05696 -0.171348,0.08269 -0.26694,0.09469 -0.08491,0.0046 -0.17178,0.01448 -0.256198,9.79e-4 -0.156039,-0.05873 -0.395159,-0.208962 0.329892,0.195073 0.0097,0.0054 -0.01873,-0.01193 -0.02736,-0.01888 -0.02463,-0.01983 -0.03266,-0.03131 -0.05363,-0.05541 -0.04533,-0.05811 -0.08324,-0.121864 -0.11454,-0.188501 -0.01439,-0.03827 -0.0081,-0.01904 -0.01901,-0.05765 0,0 -0.444271,-0.213263 -0.444271,-0.213263 v 0 c 0.0089,0.04358 0.0036,0.02181 0.0161,0.06528 0.02772,0.07188 0.06841,0.137329 0.110282,0.201762 0.0162,0.02121 0.03102,0.04355 0.0486,0.06363 0.137413,0.15703 0.343553,0.265125 0.548715,0.300589 0.08721,0.0031 0.174938,-8.46e-4 0.261466,-0.0122 0.102107,-0.0185 0.198188,-0.05459 0.282142,-0.117195 0.08642,-0.07549 0.167272,-0.156862 0.230868,-0.253137 0.01686,-0.0283 0.0466,-0.07559 0.05917,-0.10673 0.02519,-0.06244 0.02443,-0.131893 0.02419,-0.197852 -0.01629,-0.115972 -0.03997,-0.22935 -0.108786,-0.327074 -0.09364,-0.133368 -0.203336,-0.254723 -0.338645,-0.347215 -0.159671,-0.09324 -0.318719,-0.187565 -0.479015,-0.279731 -0.103362,-0.05943 -0.2189,-0.111703 -0.338848,-0.07594 -0.135127,0.04432 -0.256131,0.117246 -0.349694,0.226192 -0.01558,0.02009 -0.03251,0.0392 -0.04673,0.06027 -0.07487,0.111022 -0.09817,0.243911 -0.108597,0.374906 -0.0057,0.170624 0.01094,0.340065 0.04666,0.507175 z" />
    <path
       style="fill:#000000;fill-opacity:1;stroke-width:0.349999;stroke-dasharray:none"
       id="path66"
       d="m 16.955361,13.991359 c 0.03907,0.11547 0.06386,0.235538 0.08767,0.354938 0.0255,0.13467 0.04117,0.27069 0.05679,0.406737 0.01051,0.08978 0.01839,0.179753 0.0307,0.269316 0.0083,0.06739 0.02132,0.133902 0.02803,0.201503 0.0013,0.01036 0.0024,0.02075 0.0039,0.03109 0.0023,0.01636 0.0054,0.03261 0.0078,0.04896 4.5e-4,0.003 -0.0015,0.0077 0.0012,0.0091 0.452099,0.217769 0.46526,0.364684 0.438073,0.176315 -0.0091,-0.0918 -0.0015,-0.184739 0.0076,-0.276302 0.0088,-0.08773 0.02635,-0.174543 0.05583,-0.257659 0.03323,-0.06983 0.08049,-0.129837 0.140166,-0.178543 0.0624,-0.04226 0.129557,-0.07965 0.203365,-0.09779 0.05217,-0.01282 0.07392,-0.01105 0.128229,-0.01358 0.094,0.0013 0.187976,0.01572 0.275784,0.05044 0.01917,0.0076 0.03725,0.0177 0.05587,0.02654 -0.121533,-0.06889 -0.243065,-0.137776 -0.364598,-0.206664 0.08806,0.0531 0.133159,0.125036 0.165588,0.220022 0.02512,0.08268 0.02497,0.167807 0.0184,0.252967 -0.0061,0.06304 -0.01093,0.126215 -0.01398,0.189481 -0.0027,0.04139 8.46e-4,0.08301 -0.0065,0.123941 0,0 0.435859,0.232879 0.435859,0.232879 v 0 c 0.0093,-0.04383 0.0085,-0.08752 0.008,-0.132234 0.001,-0.06339 0.0038,-0.126711 0.0089,-0.189915 0.0061,-0.09054 0.01086,-0.180937 -0.01237,-0.269901 -0.02715,-0.100096 -0.06854,-0.190552 -0.154201,-0.254315 -0.331726,-0.189352 -0.459769,-0.325856 -0.804798,-0.320942 -0.02426,0.0024 -0.04872,0.0031 -0.07278,0.007 -0.103149,0.01666 -0.196263,0.06798 -0.282365,0.124667 -0.06542,0.05567 -0.118818,0.12187 -0.154599,0.200575 -0.0295,0.08673 -0.04952,0.177115 -0.05989,0.268138 -0.01029,0.09324 -0.01269,0.187443 -0.01625,0.281118 -0.0033,0.195439 -0.009,0.03869 0.445009,0.264212 0.0046,0.0023 -3.17e-4,-0.01033 -0.0014,-0.01537 -0.0053,-0.02544 -0.0145,-0.05033 -0.01754,-0.07635 -0.0069,-0.06841 -0.01717,-0.136139 -0.0284,-0.203903 -0.01313,-0.09057 -0.02766,-0.180753 -0.03724,-0.271842 -0.01949,-0.137661 -0.03624,-0.275678 -0.06178,-0.412466 -0.02148,-0.116926 -0.04343,-0.233892 -0.06783,-0.350189 z" />
    <path
       style="fill:#000000;fill-opacity:1;stroke-width:0.349999;stroke-dasharray:none"
       id="path67"
       d="m 45.070521,13.176828 c 0.135388,-0.05722 0.279646,-0.08903 0.423082,-0.118543 0.118206,-0.02155 0.237713,-0.03496 0.357458,-0.04418 0.0531,-0.0041 0.16274,-0.01139 0.217088,-0.0089 0.03634,0.0016 0.07234,0.0077 0.108516,0.01152 0.13871,0.0265 0.277355,0.06644 0.404225,0.12971 0.02691,0.01342 0.104648,0.05931 0.07845,0.04455 -0.111826,-0.06299 -0.223549,-0.126164 -0.335325,-0.189245 0.132599,0.09158 0.179856,0.185857 0.220012,0.337456 0.01524,0.08486 0.031,0.172732 0.0173,0.259057 -0.0077,0.04831 -0.01532,0.06023 -0.03325,0.104964 -0.06419,0.122632 -0.198501,0.168272 -0.322818,0.207426 -0.125394,0.03547 -0.25523,0.04506 -0.384802,0.04907 -0.07658,5.03e-4 -0.153286,5.56e-4 -0.229804,-0.0031 -0.0047,-4.24e-4 -0.01786,-0.004 -0.01405,-0.0012 0.137432,0.09893 0.2745,0.198598 0.416457,0.290912 0.008,0.0052 0.01915,-0.001 0.02875,-0.0014 0.01434,-5.56e-4 0.02867,-10e-4 0.043,-0.0014 0.03468,-8.99e-4 0.08827,-0.0017 0.121708,-0.0023 0.151353,-0.005 0.301811,-0.0028 0.451567,0.02041 0.11488,0.02422 0.231413,0.05274 0.337426,0.104264 0.198834,0.113704 -0.216157,-0.125352 -0.325406,-0.185954 -0.01513,-0.0084 0.02877,0.01929 0.04256,0.02975 0.04006,0.03036 0.07453,0.0652 0.109088,0.101448 0.07348,0.07902 0.109643,0.180879 0.137697,0.283037 0.0327,0.117575 0.04392,0.224967 0.03201,0.346191 -0.01728,0.109316 -0.06252,0.185487 -0.13149,0.268782 -0.08883,0.09628 -0.195236,0.173201 -0.307551,0.239485 -0.11275,0.06483 -0.234212,0.111888 -0.357336,0.152714 -0.07539,0.02398 -0.153366,0.03618 -0.232204,0.03943 -0.02635,8.21e-4 -0.05274,5.56e-4 -0.07912,3.71e-4 0,0 0.397983,0.288705 0.397983,0.288705 v 0 c 0.02694,-6.09e-4 0.05391,-0.0011 0.08077,-0.0036 0.07888,-0.0095 0.156022,-0.02857 0.230749,-0.05574 0.123412,-0.04624 0.247393,-0.09273 0.359825,-0.162719 0.115676,-0.0711 0.226684,-0.151126 0.320588,-0.249907 0.07985,-0.09312 0.119449,-0.172893 0.143777,-0.294476 0.01497,-0.121787 0.0083,-0.242182 -0.0236,-0.361232 -0.02471,-0.106861 -0.05861,-0.215336 -0.125455,-0.303868 -0.181821,-0.204069 -0.385789,-0.314508 -0.652706,-0.4328 -0.109516,-0.04189 -0.223864,-0.07176 -0.339775,-0.08949 -0.151603,-0.01786 -0.303604,-0.01522 -0.45606,-0.01567 -0.05822,-8.73e-4 -0.116432,-0.0016 -0.174635,-0.0032 -0.01103,-2.91e-4 -0.04157,-0.0081 -0.03306,-10e-4 0.124161,0.102442 0.255178,0.196332 0.38504,0.291447 0.0032,0.0023 0.0079,-5.29e-4 0.0118,-7.93e-4 0.07409,-0.0022 0.148272,-0.0012 0.222308,-0.0055 0.130694,-0.0069 0.260527,-0.0245 0.385691,-0.06447 0.137123,-0.04667 0.282557,-0.101131 0.351155,-0.238715 0.02037,-0.05003 0.0291,-0.06393 0.0386,-0.117883 0.01611,-0.09145 7.94e-4,-0.183925 -0.01299,-0.274489 -0.0324,-0.151632 -0.08001,-0.275779 -0.208526,-0.3721 -0.183041,-0.107485 -0.358095,-0.23124 -0.552185,-0.317185 -0.129847,-0.0575 -0.268973,-0.09567 -0.409321,-0.115642 -0.03773,-0.0027 -0.07538,-0.0075 -0.113208,-0.0081 -0.05607,-9.26e-4 -0.160313,0.0087 -0.215339,0.01398 -0.121076,0.01156 -0.24194,0.02595 -0.361841,0.04659 -0.153808,0.02871 -0.307909,0.06038 -0.455957,0.111899 z" />
    <path
       style="fill:#000000;fill-opacity:1;stroke-width:0.349999;stroke-dasharray:none"
       id="path68"
       d="m 47.849022,12.809078 c 0.02593,0.114498 0.04424,0.230429 0.06146,0.34649 0.01902,0.138276 0.03502,0.276935 0.05232,0.415429 0.01267,0.09708 0.02739,0.194575 0.0635,0.286012 0.01156,0.01885 0.0259,0.04729 0.04605,0.05944 0.348491,0.210053 0.339778,0.268071 0.620414,0.276259 0.154236,-0.0065 0.308075,-0.01969 0.462261,-0.02744 0.05037,-5.82e-4 0.101621,5.6e-5 0.15099,0.01157 0.132207,0.03082 0.54591,0.293839 -0.301405,-0.183948 0.08534,0.05547 0.114842,0.130921 0.141491,0.224736 0.02606,0.09472 0.01138,0.18804 -0.01646,0.280092 -0.039,0.10888 -0.124497,0.186486 -0.210376,0.25932 -0.09062,0.07488 -0.195156,0.131369 -0.306263,0.169034 -0.06379,0.01884 -0.128802,0.03036 -0.195098,0.03448 -0.04609,0.0016 -0.09195,0.0056 -0.136279,-0.0088 -0.0069,-0.0029 -0.01416,-0.0052 -0.02082,-0.0086 -0.01516,-0.0078 -0.05767,-0.03653 -0.04284,-0.02808 0.656307,0.374109 0.497406,0.296172 0.357352,0.202466 -0.02302,-0.01684 -0.04481,-0.03531 -0.0619,-0.05821 0,0 -0.448948,-0.202954 -0.448948,-0.202954 v 0 c 0.01125,0.03224 0.02911,0.05774 0.05577,0.07952 0.01725,0.01503 0.01783,0.01689 0.0382,0.02889 0.01543,0.0091 0.343305,0.246808 0.513805,0.282423 0.04776,0.0039 0.09577,0.0013 0.143359,-0.0039 0.06665,-0.0097 0.132265,-0.02551 0.195033,-0.05032 0.110421,-0.04882 0.21332,-0.112628 0.308874,-0.186402 0.09159,-0.07935 0.182936,-0.16423 0.228243,-0.279578 0.03186,-0.0989 0.05175,-0.200273 0.02983,-0.303872 -0.02556,-0.09612 -0.04839,-0.186595 -0.124669,-0.256676 -0.113663,-0.06503 -0.338953,-0.253777 -0.531778,-0.27605 -0.0494,-0.0057 -0.09937,-0.0025 -0.148784,7.67e-4 -0.152042,0.01279 -0.304609,0.03269 -0.457395,0.02283 -0.05024,-0.0059 -0.0763,-0.0065 -0.123984,-0.02104 -0.01574,-0.0048 -0.05985,-0.02691 -0.04586,-0.01825 0.12374,0.07659 0.250454,0.148272 0.375682,0.222407 -0.0098,-0.0061 -0.02019,-0.01149 -0.02949,-0.01842 -0.0088,-0.0065 -0.0163,-0.01456 -0.02445,-0.02184 -0.05014,-0.08405 -0.06645,-0.182308 -0.08199,-0.277701 -0.01945,-0.139371 -0.03799,-0.278868 -0.05716,-0.418277 -0.01484,-0.110638 -0.02795,-0.221788 -0.0373,-0.332969 z" />
    <path
       style="fill:#000000;fill-opacity:1;stroke-width:0.349999;stroke-dasharray:none"
       id="path69"
       d="m 48.241455,13.072976 c 0.12922,-0.01664 0.259492,-0.02238 0.389593,-0.02741 0.14627,-0.0029 0.292426,-0.0051 0.43841,-0.01525 0.13326,-0.0082 0.266446,-0.01758 0.399767,-0.02478 0.107426,-0.0036 0.214206,-0.0153 0.321095,-0.02574 0.04361,-0.0038 0.02273,-0.0021 0.06262,-0.005 0,0 -0.397275,-0.282155 -0.397275,-0.282155 v 0 c -0.03738,0.0055 -0.01786,0.0025 -0.05859,0.0087 -0.10332,0.01537 -0.207277,0.02531 -0.311708,0.02913 -0.132046,0.01022 -0.264221,0.01812 -0.396343,0.02727 -0.144643,0.0091 -0.28951,0.01108 -0.434303,0.01677 -0.137965,0.006 -0.275852,0.01411 -0.41401,0.01337 z" />
    <path
       style="fill:#000000;fill-opacity:1;stroke-width:0.349999;stroke-dasharray:none"
       id="path70"
       d="m 50.077629,14.908116 c 0.08019,-0.03327 0.168248,-0.04109 0.25396,-0.04828 0.05625,-0.0032 0.113697,-0.0093 0.168942,0.0058 0.0041,0.0011 0.07524,0.0271 0.07883,0.0284 0.153646,0.07241 0.377745,0.208824 -0.317881,-0.186637 -0.0096,-0.0055 0.019,0.01139 0.02822,0.01752 0.02434,0.01617 0.02845,0.02052 0.05108,0.03913 0.05344,0.04513 0.08149,0.107541 0.109273,0.169897 0.03136,0.07341 0.05071,0.150808 0.06329,0.229408 0.01259,0.06152 0.0075,0.118405 -0.01535,0.176347 -0.02119,0.05302 -0.0587,0.09572 -0.102126,0.131738 -0.02897,0.02134 -0.05615,0.03551 -0.09194,0.03998 -0.0058,3.97e-4 -0.01151,8.2e-4 -0.01728,0.0012 0,0 0.403897,0.284337 0.403897,0.284337 v 0 c 0.0066,-0.0015 0.01315,-0.0029 0.01971,-0.0043 0.03945,-0.01278 0.07305,-0.03468 0.104238,-0.06195 0.04512,-0.04441 0.08547,-0.09326 0.11054,-0.152103 0.02744,-0.06523 0.0411,-0.129466 0.02737,-0.20023 -0.0131,-0.08184 -0.03292,-0.162109 -0.05895,-0.240827 -0.02732,-0.0652 -0.05088,-0.135015 -0.100219,-0.187338 -0.02238,-0.02454 -0.04691,-0.05027 -0.07594,-0.06726 -0.171276,-0.100257 -0.334079,-0.220793 -0.521941,-0.287169 -0.03312,-0.01 -0.05053,-0.01656 -0.08522,-0.02152 -0.05726,-0.0082 -0.115154,0.001 -0.17227,0.0052 -0.09122,0.0097 -0.181803,0.02378 -0.269724,0.05083 z" />
    <path
       style="fill:#000000;fill-opacity:1;stroke-width:0.349999;stroke-dasharray:none"
       id="path71"
       d="m 52.142233,15.092009 c -0.04906,-0.08102 -0.07738,-0.171997 -0.102195,-0.26275 -0.0328,-0.128533 -0.05414,-0.259474 -0.07711,-0.389991 -0.02019,-0.121174 -0.03837,-0.24266 -0.0566,-0.36414 -0.02019,-0.114705 -0.03094,-0.230401 -0.0363,-0.346634 -0.0039,-0.132644 0.02455,-0.261483 0.05528,-0.389463 0.02826,-0.121079 0.07605,-0.236572 0.132344,-0.347091 0.02611,-0.05011 0.0581,-0.09593 0.100621,-0.133141 0.05676,-0.0292 0.122174,-0.03112 0.184582,-0.03544 0.09506,-0.0039 0.187946,0.01162 0.279831,0.03407 0.01455,0.0043 0.02936,0.0079 0.04369,0.01292 0.01371,0.0048 0.02716,0.01037 0.04031,0.01654 0.0146,0.0069 0.05685,0.03051 0.04287,0.02247 -0.652317,-0.375563 -0.409316,-0.247854 -0.275704,-0.144351 0.09146,0.07849 0.160028,0.177864 0.225274,0.278077 0.05981,0.09259 0.110596,0.190387 0.146743,0.294703 0.02719,0.07846 0.03094,0.104338 0.04964,0.18503 0.02233,0.119869 0.03627,0.241649 0.03709,0.36369 5.29e-4,0.06247 -0.0028,0.100367 -0.0065,0.161999 -0.0087,0.115967 -0.02799,0.230486 -0.05465,0.343551 -0.02659,0.116921 -0.05942,0.232225 -0.09893,0.345414 -0.04491,0.124741 -0.100037,0.245591 -0.167532,0.35969 -0.0361,0.06183 -0.08048,0.115598 -0.142817,0.151529 -0.05971,0.03535 -0.12705,0.03619 -0.194257,0.03547 -0.0624,-0.0016 -0.120443,-0.01958 -0.176024,-0.04686 -0.01484,-0.0073 -0.05831,-0.03109 -0.044,-0.02283 0.122875,0.07096 0.246488,0.140618 0.369734,0.210928 -0.07181,-0.04116 -0.121561,-0.105556 -0.16817,-0.172035 -0.04473,-0.06583 -0.0754,-0.139162 -0.100195,-0.214373 -0.01704,-0.05179 -0.02781,-0.105279 -0.0398,-0.158384 -0.0059,-0.02424 -0.0087,-0.04896 -0.01148,-0.07369 0,0 -0.441564,-0.215904 -0.441564,-0.215904 v 0 c 0.0058,0.02549 0.0053,0.05156 0.01127,0.07707 0.01315,0.05511 0.02849,0.109771 0.04365,0.164333 0.02381,0.07928 0.05723,0.154589 0.09664,0.227376 0.04429,0.07227 0.09497,0.141758 0.16301,0.193581 0.150032,0.08618 0.299259,0.173786 0.450096,0.258554 0.07135,0.0401 0.156003,0.05311 0.236516,0.05472 0.07542,-0.0024 0.14923,-0.01201 0.213106,-0.05572 0.0642,-0.0461 0.113512,-0.104823 0.146889,-0.177023 0.05985,-0.120805 0.114678,-0.244201 0.165042,-0.369238 0.04226,-0.113502 0.08012,-0.22878 0.108087,-0.34672 0.02711,-0.117466 0.0444,-0.236264 0.04775,-0.357011 0.0053,-0.180766 0.0036,-0.362067 -0.03255,-0.54016 -0.03603,-0.169906 -0.08309,-0.340071 -0.17708,-0.488165 -0.06192,-0.103285 -0.128831,-0.204005 -0.21413,-0.28979 -0.162385,-0.143667 -0.329012,-0.212869 -0.538228,-0.330581 -0.04138,-0.02328 -0.08903,-0.033 -0.134485,-0.04437 -0.09507,-0.01925 -0.191355,-0.03004 -0.288523,-0.02295 -0.07335,0.006 -0.152765,0.0087 -0.212691,0.05674 -0.04326,0.0446 -0.07477,0.09786 -0.09933,0.154851 -0.0498,0.117232 -0.09301,0.237288 -0.129423,0.359353 -0.03245,0.131149 -0.06043,0.263543 -0.06218,0.39933 -0.0019,0.118096 0.01161,0.235682 0.03274,0.351847 0.01797,0.122281 0.03662,0.244509 0.05766,0.366301 0.02426,0.130768 0.0462,0.261966 0.07404,0.39205 0.02053,0.08914 0.04586,0.176865 0.0774,0.262781 z" />
    <path
       style="fill:#000000;fill-opacity:1;stroke-width:0.349999;stroke-dasharray:none"
       id="path72"
       d="m 53.756602,12.911948 c 0.04442,-0.04992 0.106841,-0.07717 0.167005,-0.102886 0.07894,-0.03279 0.163629,-0.03954 0.24806,-0.04224 0.07911,0.0013 0.158533,0.0039 0.23667,0.01743 0.04491,0.0078 0.06508,0.01411 0.108929,0.02569 0.04906,0.01515 0.0566,0.01633 0.104277,0.03566 0.156713,0.06355 0.477128,0.25879 -0.224803,-0.139444 0.06885,0.04784 0.119139,0.114342 0.152762,0.190692 0.0066,0.01497 0.01172,0.03053 0.0176,0.0458 0.03034,0.08925 0.0358,0.182943 0.03184,0.276328 -0.0051,0.04845 -0.01585,0.09653 -0.03979,0.139425 -0.01418,0.02542 -0.02199,0.03276 -0.04047,0.05506 -0.05688,0.0641 -0.133336,0.103224 -0.209481,0.139474 -0.09026,0.03981 -0.186698,0.05895 -0.283226,0.07589 -0.0519,0.0091 -0.104373,0.01319 -0.157003,0.01318 -0.19544,-0.0021 -0.235321,-0.138298 0.361857,0.288558 0.04014,-0.0036 0.08032,-0.0082 0.120335,-0.01359 0.08266,-0.01289 0.165717,-0.01135 0.24864,-0.0031 0.05271,0.0063 0.105978,0.01354 0.157324,0.02753 0.01947,0.0053 0.0378,0.01327 0.05645,0.02077 0.0083,0.0037 0.01693,0.0066 0.02474,0.01117 0.0079,0.0047 0.03027,0.02097 0.02225,0.01643 -0.129902,-0.07344 -0.25799,-0.150063 -0.388043,-0.223234 -0.0085,-0.0048 0.0158,0.01151 0.02313,0.01793 0.01955,0.01709 0.02334,0.02343 0.03959,0.04341 0.03601,0.049 0.05434,0.1067 0.06524,0.165797 0.0082,0.05506 0.01114,0.111052 0.0051,0.166418 -0.0081,0.06464 -0.03778,0.122535 -0.06491,0.180717 -0.03234,0.0687 -0.07514,0.13162 -0.12115,0.191758 -0.04166,0.05533 -0.09054,0.103926 -0.143428,0.14836 -0.04618,0.04125 -0.09854,0.07358 -0.155766,0.09686 -0.03353,0.01266 -0.06951,0.01154 -0.104751,0.01217 -0.04335,0.0011 -0.08671,4.1e-5 -0.13004,-0.0012 -0.03088,-8.2e-4 -0.06178,-6.09e-4 -0.09267,-10e-4 -0.01267,3.44e-4 -0.02323,7.68e-4 -0.03483,-0.0043 0,0 0.395483,0.294668 0.395483,0.294668 v 0 c 0.0122,-0.0015 0.02426,-0.002 0.03657,-0.0017 0.03014,-3.17e-4 0.06027,5.2e-5 0.09041,-3.44e-4 0.04333,-7.93e-4 0.08666,-9.26e-4 0.130001,-0.0014 0.04039,-0.0022 0.07968,-0.0085 0.11481,-0.03012 0.05504,-0.03207 0.106307,-0.07006 0.154657,-0.111525 0.05536,-0.04732 0.107376,-0.0983 0.150847,-0.157021 0.04494,-0.06412 0.08456,-0.131713 0.123661,-0.199512 0.03272,-0.0609 0.06282,-0.123424 0.07576,-0.191968 0.0032,-0.0171 0.009,-0.04435 0.0098,-0.06196 0.0019,-0.03939 -0.0067,-0.07918 -0.0087,-0.118364 -0.0099,-0.06439 -0.02315,-0.127874 -0.05508,-0.18556 -0.01082,-0.01655 -0.02323,-0.03642 -0.03571,-0.05182 -0.124122,-0.153264 -0.323832,-0.231919 -0.506997,-0.30011 -0.06893,-0.01878 -0.140118,-0.02694 -0.211281,-0.03191 -0.08778,-0.0057 -0.17536,-0.0037 -0.263062,0.0032 -0.04311,0.0027 -0.08625,0.0054 -0.12941,0.0021 0.457787,0.339638 0.231785,0.30602 0.436451,0.286993 0.04992,-0.006 0.09939,-0.01525 0.148043,-0.02802 0.09725,-0.02308 0.193886,-0.04955 0.286482,-0.0877 0.08235,-0.04012 0.164272,-0.08458 0.226502,-0.15344 0.0082,-0.01035 0.01696,-0.02027 0.02458,-0.03105 0.04016,-0.05681 0.06074,-0.123431 0.06608,-0.192419 0.0034,-0.09895 2.3e-4,-0.198311 -0.02748,-0.294147 -0.03377,-0.101205 -0.0748,-0.190857 -0.156631,-0.262756 -0.225295,-0.132258 -0.431376,-0.286212 -0.685316,-0.349051 -0.05074,-0.01089 -0.05891,-0.01376 -0.110651,-0.02034 -0.08026,-0.01022 -0.161391,-0.01083 -0.242144,-0.0131 -0.0441,8.74e-4 -0.06606,6.1e-5 -0.108879,0.0053 -0.05447,0.0067 -0.106111,0.02424 -0.155416,0.04797 -0.06618,0.03044 -0.132223,0.06107 -0.193696,0.10042 z" />
    <path
       style="fill:#000000;fill-opacity:1;stroke-width:0.349999;stroke-dasharray:none"
       id="path73"
       d="m 55.979049,14.180754 c -0.0044,-0.0093 -0.0096,-0.01815 -0.01312,-0.02777 -0.01011,-0.02784 -0.01995,-0.07214 -0.0258,-0.09993 -0.01365,-0.0648 -0.02273,-0.129689 -0.03049,-0.195402 -0.01225,-0.103698 -0.01524,-0.208108 -0.02297,-0.312162 -0.01193,-0.118119 -0.01548,-0.236921 -0.0123,-0.355546 0.0019,-0.129155 0.01654,-0.257454 0.03448,-0.385208 0.01106,-0.06828 0.01966,-0.137031 0.03736,-0.203982 0.01775,-0.06255 0.05146,-0.118083 0.09082,-0.169184 0.05607,-0.07217 0.131191,-0.120515 0.21237,-0.160022 0.04411,-0.01788 0.09026,-0.03437 0.138483,-0.03467 0.02381,-1.49e-4 0.03547,0.0027 0.05886,0.0063 0.0094,0.0035 0.01908,0.0063 0.02817,0.0106 0.0097,0.0045 0.03733,0.02099 0.02803,0.01569 -0.12577,-0.07158 -0.251117,-0.143915 -0.377421,-0.214548 -0.01217,-0.0068 0.02373,0.01473 0.03494,0.02302 0.02957,0.02189 0.0423,0.03583 0.06898,0.06147 0.07319,0.07484 0.121523,0.16759 0.162483,0.262779 0.0441,0.105705 0.07189,0.217047 0.100505,0.327646 0.03063,0.118057 0.05863,0.236737 0.08442,0.355936 0.02156,0.101708 0.0359,0.204673 0.04256,0.308389 0.0091,0.10686 -0.0058,0.213234 -0.0236,0.318341 -0.02045,0.09943 -0.04885,0.197 -0.07974,0.293626 -0.03063,0.09721 -0.06149,0.194068 -0.09886,0.28894 -0.03042,0.08152 -0.06369,0.161807 -0.09748,0.241967 -0.02786,0.06441 -0.06182,0.125727 -0.10047,0.184208 -0.01561,0.02089 -0.03221,0.04211 -0.05333,0.05786 -0.0063,0.0047 -0.0213,0.01238 -0.02802,0.01598 -0.03097,0.01435 -0.06265,0.02146 -0.09646,0.02413 -0.04913,2.91e-4 -0.09582,-0.01068 -0.141952,-0.0266 -0.171024,-0.06818 -0.439393,-0.239863 0.284327,0.175106 -0.04002,-0.02132 -0.07551,-0.04864 -0.106651,-0.08143 -0.02814,-0.02811 -0.04918,-0.06021 -0.06568,-0.09619 -0.01815,-0.04434 -0.02982,-0.09065 -0.03771,-0.137791 -0.0066,-0.04803 -0.01257,-0.09614 -0.01905,-0.144184 -0.006,-0.04288 -0.01326,-0.08556 -0.02016,-0.128289 -0.0042,-0.037 -0.01077,-0.0737 -0.0145,-0.110764 -0.0011,-0.03137 -0.0077,-0.06212 -0.01074,-0.09327 -0.0013,-0.01933 -7.94e-4,-0.0098 -0.0016,-0.02854 0,0 -0.438362,-0.220563 -0.438362,-0.220563 v 0 c 0.0011,0.02008 5.29e-4,0.0099 0.0019,0.0306 0.0024,0.03161 0.0064,0.06273 0.01087,0.09404 0.0038,0.03836 0.01095,0.07603 0.01606,0.114146 0.0058,0.04286 0.01394,0.08538 0.02119,0.128002 0.0064,0.04854 0.01492,0.09675 0.02122,0.145311 0.0051,0.04979 0.01376,0.09923 0.03053,0.146558 0.01249,0.04076 0.0278,0.08105 0.05793,0.112295 0.03015,0.03591 0.0611,0.0716 0.102102,0.09565 0.170545,0.09811 0.351939,0.235357 0.550953,0.293985 0.05154,0.01199 0.104698,0.01971 0.15762,0.01323 0.03833,-0.007 0.07432,-0.02077 0.107979,-0.04056 0.03738,-0.02494 0.06724,-0.0575 0.08932,-0.09683 0.0092,-0.01727 0.01902,-0.03417 0.02784,-0.05162 0.02371,-0.04688 0.04275,-0.09606 0.06621,-0.14306 0.03638,-0.08046 0.06797,-0.162814 0.0946,-0.247047 0.01175,-0.03546 0.02159,-0.06596 0.03436,-0.101209 0.02275,-0.06275 0.05183,-0.123091 0.06884,-0.187873 0.02977,-0.09947 0.05218,-0.201016 0.07579,-0.30209 0.0063,-0.03238 0.01582,-0.07835 0.02056,-0.111143 0.01029,-0.07139 0.01315,-0.143727 0.0122,-0.215772 -0.0087,-0.106387 -0.01804,-0.213179 -0.04399,-0.317057 -0.02921,-0.119048 -0.05525,-0.238844 -0.08527,-0.357681 -0.02871,-0.111041 -0.05172,-0.224119 -0.09337,-0.331307 -0.03868,-0.09844 -0.085,-0.194837 -0.151948,-0.277531 -0.163949,-0.181877 -0.226017,-0.175295 -0.535268,-0.346709 -0.01024,-0.0057 -0.02214,-0.0079 -0.03359,-0.01044 -0.01093,-0.0025 -0.0222,-0.0031 -0.03328,-0.0047 -0.0284,-3.18e-4 -0.03647,-0.0016 -0.06472,0.0031 -0.04953,0.0083 -0.09528,0.03017 -0.139232,0.05353 -0.04427,0.02551 -0.08726,0.05226 -0.128966,0.08185 -0.01418,0.01006 -0.02873,0.01971 -0.04201,0.03095 -0.02,0.01694 -0.03988,0.04133 -0.057,0.06108 -0.04341,0.05589 -0.08485,0.115043 -0.105773,0.183448 -0.0168,0.07114 -0.02479,0.143842 -0.02785,0.216847 -0.0036,0.05984 -0.0055,0.119743 -0.0099,0.179538 -0.02019,0.272545 0.0086,-0.129406 -0.01368,0.144963 -0.0019,0.02248 -0.0026,0.04504 -0.0038,0.06756 -0.0058,0.11802 -0.0061,0.236064 -0.0024,0.354176 0.0087,0.106945 0.02133,0.213528 0.03497,0.319945 0.01148,0.106436 0.02784,0.212639 0.03271,0.319608 z" />
  </g>
</svg>
