<?xml version="1.0" encoding="UTF-8" standalone="no"?>
<!-- Created with Inkscape (http://www.inkscape.org/) -->

<svg
   width="128"
   height="128"
   viewBox="0 0 33.866666 33.866666"
   version="1.1"
   id="svg1"
   sodipodi:docname="object-box-with-identity-and-type.svg"
   inkscape:version="1.3.2 (091e20ef0f, 2023-11-25)"
   xmlns:inkscape="http://www.inkscape.org/namespaces/inkscape"
   xmlns:sodipodi="http://sodipodi.sourceforge.net/DTD/sodipodi-0.dtd"
   xmlns="http://www.w3.org/2000/svg"
   xmlns:svg="http://www.w3.org/2000/svg">
  <sodipodi:namedview
     id="namedview1"
     pagecolor="#ffffff"
     bordercolor="#000000"
     borderopacity="1"
     inkscape:showpageshadow="2"
     inkscape:pageopacity="0.0"
     inkscape:pagecheckerboard="0"
     inkscape:deskcolor="#d1d1d1"
     inkscape:document-units="mm"
     inkscape:zoom="4.4447732"
     inkscape:cx="58.720656"
     inkscape:cy="50.846239"
     inkscape:window-width="1920"
     inkscape:window-height="1128"
     inkscape:window-x="0"
     inkscape:window-y="0"
     inkscape:window-maximized="1"
     inkscape:current-layer="layer1" />
  <defs
     id="defs1" />
  <g
     inkscape:groupmode="layer"
     id="layer2"
     inkscape:label="Background"
     sodipodi:insensitive="true">
    <rect
       style="fill:#ffffff;fill-opacity:1;stroke-width:0.264583"
       id="rect16"
       width="51.546139"
       height="41.962318"
       x="-7.1432214"
       y="-3.154923" />
  </g>
  <g
     inkscape:label="Layer 1"
     inkscape:groupmode="layer"
     id="layer1">
    <path
       style="fill:#000000;stroke-width:0.264583"
       id="path1"
       d="m 7.4139982,5.8478078 c -0.040762,0.93511 -0.183248,1.8616509 -0.3172864,2.7867858 -0.1924622,1.2086897 -0.36428,2.4196854 -0.4861182,3.6376084 -0.091315,1.012103 -0.1583108,2.026455 -0.2392804,3.039545 -0.088847,1.125747 -0.1702435,2.2521 -0.245763,3.378842 -0.039254,0.665524 -0.1023242,1.330446 -0.1131737,1.997417 -0.00486,0.299044 0.00341,0.556863 0.00981,0.855386 0.036925,0.891757 0.1328703,1.779454 0.1855404,2.670274 0.049031,0.812524 0.076712,1.626046 0.091331,2.439847 0.011467,0.454123 -0.03341,0.903897 -0.1273489,1.347555 -0.049372,0.180838 -0.082013,0.37269 -0.1639888,0.543155 -0.021476,0.04466 -0.049536,0.08585 -0.073123,0.129429 -0.030728,0.09048 -0.00906,0.179467 0.07873,0.233085 0.6694241,0.408845 0.7810515,0.524938 1.3615976,0.672608 0.7527237,0.156175 1.5262273,0.189388 2.2926,0.216342 1.2698312,0.02988 2.5403162,0.03992 3.8105072,0.03862 1.191991,-0.01159 2.383896,-0.02961 3.575907,-0.03925 1.00144,-0.01783 2.002081,0.02968 3.002697,0.06105 1.269823,0.03641 2.53957,0.07239 3.809891,0.08481 1.163813,0.0186 2.327742,0.0173 3.491651,0.02119 0.883753,0.0034 1.767521,0.004 2.651238,0.01328 0.282919,0.004 0.246719,0.0033 0.506754,0.0077 0.09673,0.0016 0.218648,0.01556 0.314034,-0.02191 0.112364,-0.04414 0.129022,-0.09922 0.196319,-0.194152 0.02265,-0.05707 0.04948,-0.112659 0.06796,-0.171214 0.08132,-0.257667 0.117167,-0.532601 0.160893,-0.798121 0.06734,-0.408916 0.04262,-0.249116 0.09942,-0.671587 0.0916,-0.742492 0.137017,-1.489035 0.163581,-2.236318 0.02763,-0.83616 -0.01966,-1.672199 -0.024,-2.508346 0.0021,-0.845861 0.02726,-1.691268 0.07094,-2.535931 0.05647,-0.834621 0.117086,-1.669024 0.184774,-2.502817 0.07955,-0.962553 0.198715,-1.920988 0.272524,-2.884109 0.04904,-0.66724 0.05611,-1.336388 0.0619,-2.005075 0.0087,-0.591871 -0.0093,-1.18358 -0.04155,-1.774513 -0.03897,-0.541469 -0.05166,-1.084061 -0.06798,-1.626497 -0.01101,-0.5549194 -0.0069,-1.1099774 -0.01011,-1.6649624 0.0013,-0.4319458 0.0077,-0.8638561 0.01294,-1.2957677 -0.01939,-0.1373116 0.06798,-0.3841475 0.03301,-0.5135076 -0.0069,-0.025672 -0.02286,-0.048026 -0.0343,-0.072039 -0.317915,-0.1653992 -0.624556,-0.3545562 -0.953743,-0.4961977 -0.05453,-0.023463 -0.118568,0.00613 -0.177845,0.0093 -0.08187,0.00438 -0.163724,0.00913 -0.245605,0.013338 -0.342985,0.0176 -0.685943,0.030272 -1.029206,0.040975 -0.808275,0.022561 -1.616911,0.022019 -2.425377,0.031932 -1.211047,0.00831 -2.422078,0.015655 -3.633157,0.017499 -1.214154,-0.00114 -2.42828,-0.0098 -3.642436,-0.010808 -1.219632,0.00329 -2.439219,0.0071 -3.658861,0.00506 -1.071125,-0.00761 -2.14252,0.00414 -3.213475,-0.018508 -0.768572,-0.024625 -1.537246,-0.042735 -2.306136,-0.053114 -0.7554459,-0.00404 -1.5109303,-0.00278 -2.2663964,-0.00518 -0.5510093,-0.00143 -1.1019938,-0.00625 -1.6529745,-0.011692 -0.1825347,-0.00138 -0.3650589,-0.00378 -0.5475849,-0.00596 0,0 0.7899257,0.5738971 0.7899257,0.5738971 v 0 c 0.1769618,-0.00225 0.353921,-0.00473 0.5308918,-0.00618 0.5399712,-0.0058 1.0799471,-0.01103 1.6199532,-0.012221 0.7566517,-0.00183 1.5132951,-7.408e-4 2.2698941,0.00901 0.761834,0.00756 1.523498,0.024273 2.285234,0.038303 1.061449,0.010274 2.122986,-0.00616 3.184471,-0.00427 1.224327,-0.00204 2.4486,0.00183 3.672916,0.00515 1.204542,-8.731e-4 2.409056,-0.00931 3.613597,-0.010141 1.225951,0.00209 2.451847,0.010755 3.677789,0.014571 0.814041,0.00467 1.628068,-0.00394 2.441916,-0.022632 0.350938,-0.00814 0.702016,-0.019333 1.053026,-0.023823 0.08555,-0.00108 0.171154,-0.00316 0.25667,-5.556e-4 0.06041,0.00185 0.228208,0.051375 0.180768,0.01393 -0.227462,-0.1795442 -0.493588,-0.3037663 -0.740381,-0.4556493 0.0218,7.144e-4 0.04758,-0.01043 0.06537,0.00217 0.05303,0.037542 -0.0164,0.4413901 -0.0054,0.5103749 0.0048,0.4361436 0.01045,0.8722873 0.0118,1.3084587 -0.0029,0.5550361 7.94e-4,1.1100732 0.0064,1.6650856 0.0049,0.544535 0.03627,1.088396 0.0709,1.631769 0.03372,0.589539 0.05305,1.180144 0.04646,1.770709 -1.22e-4,0.670429 -0.0049,1.341103 -0.03824,2.010848 -0.05419,0.965184 -0.147343,1.926938 -0.264218,2.886555 -0.07362,0.832489 -0.136355,1.665864 -0.197819,2.499328 -0.04536,0.8494 -0.05076,1.699586 -0.05369,2.550059 -0.0049,0.831728 0.02156,1.663216 0.0044,2.494767 -0.02611,0.743545 -0.0699,1.486245 -0.165674,2.22457 -0.04661,0.322879 -0.09664,0.644547 -0.163679,0.963965 -0.02914,0.138835 -0.0718,0.328205 -0.120518,0.465315 -0.01781,0.0501 -0.04282,0.09732 -0.06423,0.145989 -0.02326,0.02919 -0.04122,0.06351 -0.06974,0.08757 -0.09721,0.08199 -0.260546,0.06302 -0.374568,0.06513 -0.249545,0.0046 -0.212821,0.0038 -0.485167,0.008 -0.870931,0.0099 -1.741921,0.01122 -2.612898,0.0145 -1.156625,0.0028 -2.313276,-1.51e-4 -3.469883,-0.0066 -1.279198,-0.0195 -2.558657,-0.04028 -3.836493,-0.106458 -1.000156,-0.03519 -2.000712,-0.07824 -3.001749,-0.05551 -1.182816,0.01691 -2.365389,0.04813 -3.548298,0.05781 -1.27892,-0.0081 -2.558462,-0.0019 -3.8363691,-0.06227 -0.7803351,-0.04613 -1.5704849,-0.08223 -2.3318856,-0.272034 -0.075732,-0.02365 -0.15273,-0.04358 -0.2271959,-0.07095 -0.3132042,-0.115151 -0.7205906,-0.414861 0.5233895,0.337138 0.053326,0.03223 -0.2288029,-0.09759 -0.1313143,-0.107569 0.022236,-0.04808 0.049362,-0.09388 0.070065,-0.142645 0.07641,-0.179967 0.1053484,-0.378299 0.1524778,-0.566589 0.094782,-0.454504 0.1391129,-0.912712 0.1172951,-1.377852 -0.032399,-0.822584 -0.091513,-1.643667 -0.137623,-2.465542 -0.00712,-0.159408 -0.037104,-0.850347 -0.04808,-1.022525 -0.034739,-0.544937 -0.096193,-1.08827 -0.1159224,-1.634214 -0.00783,-0.27107 -0.018886,-0.583858 -0.018473,-0.854721 0.00103,-0.669734 0.051837,-1.33815 0.088412,-2.006489 0.064903,-1.12628 0.1678422,-2.249389 0.2506448,-3.374405 0.084633,-1.011544 0.1666285,-2.023278 0.2456458,-3.035269 0.1016319,-1.223392 0.241837,-2.442868 0.443472,-3.6541465 C 7.9838837,8.1186686 8.131867,7.2110959 8.2868494,6.3047932 Z" />
    <path
       style="fill:#000000;stroke-width:0.264583"
       id="path2"
       d="m 7.6058791,13.683121 c 0.8800018,-0.02771 1.7601962,-0.0519 2.6404469,-0.0715 1.569347,-0.05048 3.138572,-0.09712 4.708631,-0.119462 1.100295,-0.01387 2.200688,-0.01583 3.301049,-0.02034 1.214194,0.0049 2.428034,-0.02653 3.642026,-0.04336 1.245042,-0.02364 2.489686,-0.062 3.734534,-0.09356 0.929777,-0.01435 1.859386,-0.03505 2.789039,-0.05561 0.489558,-0.0099 0.979112,-0.01948 1.46876,-0.02293 0.376449,-0.0058 0.752893,0.0018 1.129316,0.0055 0.21781,0.0016 0.435626,0.001 0.653439,0.0024 0.147418,0.0011 0.294838,0.0019 0.442259,0.0023 0,0 -0.797362,-0.579319 -0.797362,-0.579319 v 0 c -0.145344,3.7e-4 -0.290684,0.0012 -0.436025,0.0022 -0.216004,0.0012 -0.432009,3.7e-4 -0.648013,0.0016 -0.370157,0.0033 -0.740288,0.01108 -1.11048,0.0091 -0.482361,0.004 -0.964602,0.01167 -1.44617,0.04229 -0.916143,0.04224 -1.832767,0.05491 -2.749366,0.08374 -1.239702,0.04132 -2.479402,0.08024 -3.719631,0.10266 -1.220318,0.01598 -2.44064,0.03762 -3.661114,0.02827 -1.092873,-4.23e-4 -2.185824,0.0056 -3.278278,0.03899 -1.56623,0.04703 -3.132175,0.107427 -4.699129,0.125497 -0.9203041,0.0053 -1.8412211,0.0194 -2.7610791,-0.01758 z" />
    <path
       style="fill:#000000;stroke-width:0.264583"
       id="path3"
       d="m 7.4221178,22.825604 c 0.496703,-0.140597 1.0127911,-0.194459 1.5243365,-0.250641 0.8825931,-0.08475 1.7698637,-0.09576 2.6557627,-0.105743 0.902776,0.0021 1.805147,-0.01101 2.707685,-0.02967 0.82123,-0.01845 1.64263,-0.02362 2.464026,-0.02772 0.970656,-0.0071 1.940756,-0.0416 2.911379,-0.05397 1.017988,-0.0127 2.036059,-0.01163 3.054103,-0.01178 1.048774,-6.5e-5 2.097495,-0.0065 3.146276,-0.0053 0.992403,-0.0032 1.98467,-0.02131 2.977037,-0.02994 0.511739,0.0074 1.022282,-0.01355 1.533195,-0.03836 0.347699,-0.01527 0.695711,-0.01975 1.043683,-0.0229 0,0 -0.767763,-0.55573 -0.767763,-0.55573 v 0 c -0.345905,0.0092 -0.691792,0.01917 -1.037658,0.02984 -0.505569,0.01605 -1.010894,0.03782 -1.516666,0.04808 -0.978988,0.03247 -1.958352,0.06908 -2.938073,0.05588 -1.05345,9e-4 -2.106845,-0.0063 -3.160288,-0.0047 -1.014818,0.0026 -2.02964,0.0082 -3.044395,0.02015 -0.977909,0.014 -1.955837,0.03224 -2.933807,0.03669 -0.820879,0.003 -1.641826,0.0096 -2.46246,0.03092 -0.899659,0.02254 -1.799257,0.03524 -2.699232,0.03453 -0.8931057,0.01038 -1.7875392,0.02083 -2.6777306,0.100479 -0.5338014,0.05488 -1.069186,0.109578 -1.5946781,0.221561 z" />
    <path
       style="fill:#000000;stroke-width:0.264583"
       id="path4"
       d="m 2.3601453,7.2661488 c 0.036251,0.1768097 0.046778,0.357568 0.054293,0.5374899 0.010699,0.2745394 0.0129,0.5493147 0.01457,0.8240295 -5.582e-4,0.2693889 -0.00613,0.5387292 -0.00379,0.8081168 4.048e-4,0.2250999 -0.00313,0.45017 -0.00311,0.675266 0.00484,0.285812 0.00561,0.571666 0.00529,0.857511 -0.00159,0.181902 -6.244e-4,0.09361 -0.00284,0.264865 0,0 0.8654529,0.44097 0.8654529,0.44097 v 0 c -0.00222,-0.173309 -0.00124,-0.08406 -0.00284,-0.267757 -3.175e-4,-0.284046 3.969e-4,-0.568102 0.00529,-0.852113 4.79e-5,-0.226094 -0.00343,-0.452165 -0.00285,-0.6782636 0.00259,-0.270627 -0.00257,-0.5412198 -0.00326,-0.8118491 0.0012,-0.2735866 0.00538,-0.5472155 4.061e-4,-0.8207783 C 3.2795553,8.062425 3.2712659,7.8812 3.2496315,7.7010079 Z" />
    <path
       style="fill:#000000;stroke-width:0.264583"
       id="path5"
       d="m 1.7657871,11.778741 c 0.3311514,-0.01113 0.6625821,-0.0097 0.9938715,-0.0085 0.3342058,-0.005 0.6676369,0.0033 1.0013082,0.01935 0.3334473,0.0266 0.6694522,0.01629 1.0021959,0.05003 0.1236303,0.01558 0.2470843,0.03218 0.3710551,0.04483 0,0 -0.7891483,-0.585668 -0.7891483,-0.585668 v 0 c -0.1207508,-0.01225 -0.2413275,-0.02642 -0.3623877,-0.0354 -0.3312599,-0.01715 -0.6634347,-0.01619 -0.9943763,-0.04167 -0.3344249,-0.02054 -0.6686681,-0.01706 -1.003624,-0.01454 -0.3391234,0.0012 -0.6783637,0.0022 -1.0173604,-0.0085 z" />
    <path
       style="fill:#000000;stroke-width:0.264583"
       id="path6"
       d="m 1.7593261,7.552814 c 0.333332,-0.014261 0.6663748,-0.00725 0.9995938,0.00539 0.3986086,0.017211 0.7971899,0.034652 1.1960704,0.044067 0.2418704,0.00412 0.4837877,0.00651 0.7256933,0.00716 0.1103747,4.498e-4 0.2207485,0.00103 0.3311232,0.00151 0,0 -0.7956026,-0.5779301 -0.7956026,-0.5779301 v 0 c -0.108703,6.614e-4 -0.2174055,0.00148 -0.3261096,0.00198 -0.2382443,5.292e-4 -0.4764931,0.00225 -0.7147277,-0.00138 C 2.7825702,7.0283188 2.3898451,7.0181649 1.9974038,7.0002402 1.6515114,6.985533 1.3057046,6.9765256 0.95954124,6.9717363 Z" />
    <path
       style="fill:#000000;stroke-width:0.264583"
       id="path7"
       d="m 2.773304,16.366411 c 0.00832,0.192269 0.032835,0.383357 0.047772,0.575185 0.011306,0.181824 0.014253,0.364052 0.016883,0.54617 -5.291e-4,0.187904 0.00124,0.375807 6.615e-4,0.56371 -0.00679,0.170702 0.024574,0.3393 0.039849,0.508709 0.011663,0.142585 0.014364,0.285659 0.015706,0.428644 0.00486,0.170186 0.00485,0.339147 -0.010298,0.508787 -0.00873,0.165839 -0.046501,0.327117 -0.076453,0.489767 0,0 0.8691083,0.461623 0.8691083,0.461623 v 0 c 0.026485,-0.166374 0.06593,-0.330578 0.073177,-0.499582 0.018031,-0.171038 0.027451,-0.342091 0.022884,-0.514199 -0.00175,-0.145913 -0.00535,-0.29186 -0.016819,-0.437386 -0.013491,-0.167852 -0.042747,-0.334217 -0.045962,-0.502389 -3.175e-4,-0.188085 0.00217,-0.376169 -3.97e-5,-0.564253 2.62e-5,-0.184305 -0.00222,-0.368584 -0.015682,-0.552499 -0.011904,-0.187626 -0.041536,-0.374845 -0.038503,-0.562737 z" />
    <path
       style="fill:#000000;stroke-width:0.264583"
       id="path8"
       d="m 2.112278,16.613625 c 0.2496792,0.02029 0.4974467,0.05971 0.7444242,0.101078 0.2007175,0.03493 0.4034206,0.04885 0.6043872,0.08142 0.1633561,0.02767 0.3290687,0.03466 0.4943705,0.03914 0.1406292,-0.0093 0.2755159,0.01394 0.413216,0.03654 0.1207344,0.01893 0.2429824,0.02296 0.3649432,0.02543 0.1191262,0.0016 0.2382679,0.0012 0.3574015,0.001 0.079331,-1.12e-4 0.039665,-5.9e-5 0.1189982,-1.59e-4 0,0 -0.7980648,-0.579683 -0.7980648,-0.579683 v 0 c -0.079324,8.8e-5 -0.039666,5e-5 -0.1189741,1.12e-4 -0.1185275,-6e-6 -0.2370886,2.44e-4 -0.3555706,-0.0035 -0.119498,-0.005 -0.2388262,-0.014 -0.3567534,-0.03488 -0.138604,-0.02124 -0.2772312,-0.02426 -0.4173624,-0.02453 -0.1627116,-0.0068 -0.3250803,-0.01985 -0.4858078,-0.04704 -0.1984101,-0.02822 -0.3987343,-0.041 -0.5961762,-0.07668 -0.2529277,-0.04066 -0.5072165,-0.07146 -0.760398,-0.110515 z" />
    <path
       style="fill:#000000;stroke-width:0.264583"
       id="path9"
       d="m 1.5439647,24.438453 c 0.1208549,0.20654 0.2404654,0.413709 0.3543553,0.624169 0.1560253,0.283415 0.3097071,0.56731 0.4464473,0.860632 0.1960411,0.406426 0.3576464,0.827327 0.5163651,1.249219 0.057198,0.169304 0.1294215,0.332602 0.2130327,0.490344 0.2111264,0.358111 -0.6850767,-0.09778 0.9351246,0.451826 0.024815,0.0084 0.016989,-0.04958 0.025622,-0.07432 0.026595,-0.07624 0.053529,-0.15235 0.080226,-0.228547 0.099517,-0.281514 0.2130403,-0.557602 0.3248562,-0.834356 0.095648,-0.246973 0.2396228,-0.470538 0.3560249,-0.707566 0.1066054,-0.228637 0.2072129,-0.460028 0.2938589,-0.696983 0.068619,-0.16112 0.11595,-0.329412 0.1671889,-0.496449 0.040667,-0.124088 0.097546,-0.241512 0.1522764,-0.359726 0.00946,-0.0159 0.018918,-0.03179 0.028378,-0.04769 0,0 -0.8539813,-0.493303 -0.8539813,-0.493303 v 0 c -0.010681,0.0188 -0.02136,0.03761 -0.03204,0.05641 -0.055934,0.122813 -0.1159423,0.243854 -0.1580047,0.372481 -0.048031,0.166822 -0.089535,0.3357 -0.1555255,0.496795 -0.082101,0.235145 -0.180449,0.463726 -0.2857172,0.689401 -0.1154824,0.240223 -0.2635903,0.464512 -0.3584697,0.71451 -0.108499,0.278702 -0.2174028,0.557218 -0.3265955,0.83566 -0.0368,0.0928 -0.051544,0.132546 -0.089962,0.220567 -0.010393,0.02381 -0.054181,0.05677 -0.032379,0.07089 0.2784488,0.180417 0.5831747,0.316611 0.8747622,0.474916 -0.036991,-0.0071 -0.018007,0.0024 -0.043137,-0.04673 C 3.8695608,27.916417 3.8062664,27.73984 3.734622,27.576833 3.5600647,27.156344 3.3946033,26.732081 3.2062404,26.317373 3.0801693,26.024936 2.9423585,25.739153 2.7879119,25.460738 2.6723387,25.255463 2.5581481,25.04948 2.4417706,24.844649 Z" />
    <path
       style="fill:#000000;stroke-width:0.264583"
       id="path10"
       d="m 12.399482,7.914238 c -9e-4,0.2645891 0.01227,0.5282811 0.03069,0.7921331 0.0074,0.2027997 0.02696,0.4036293 0.05437,0.6045192 0.02253,0.1811695 0.03562,0.3674002 0.121871,0.5311452 0.180435,0.2164015 0.455634,0.3533285 0.73556,0.3664605 0.132625,0.0078 0.262855,-0.0027 0.393825,-0.0218 0.158829,-0.01683 0.309222,-0.07321 0.462911,-0.113268 0.128179,-0.04878 0.260219,-0.080887 0.396184,-0.096875 0.0987,-0.025318 0.198492,-0.044035 0.299593,-0.056237 0,0 -0.402735,-0.2845824 -0.402735,-0.2845824 v 0 c -0.100705,0.014486 -0.199721,0.036403 -0.299418,0.056407 -0.136471,0.020251 -0.268121,0.057623 -0.398308,0.1031552 -0.151682,0.041744 -0.301927,0.092842 -0.459425,0.1081516 -0.129479,0.01646 -0.259284,0.020987 -0.389696,0.012298 -0.04285,-0.00403 -0.07073,-0.00513 -0.112679,-0.015055 -0.01784,-0.00422 -0.06805,-0.025813 -0.05264,-0.015894 0.673774,0.4335996 0.413313,0.2586276 0.276668,0.1565006 C 12.952367,9.8907078 12.944927,9.7043837 12.923882,9.5273928 12.897191,9.326383 12.870747,9.1260585 12.86313,8.923044 12.84349,8.6618388 12.825236,8.4007485 12.839902,8.1386417 Z" />
    <path
       style="fill:#000000;stroke-width:0.264583"
       id="path11"
       d="m 14.423031,7.7283521 c 0.0049,0.2314138 0.0046,0.4629105 0.0049,0.6943669 0.0014,0.2703063 0.0051,0.5400135 -0.01693,0.8095538 -0.01775,0.291275 -0.06877,0.5788007 -0.106563,0.8677542 -0.03018,0.230372 -0.04686,0.462228 -0.05584,0.694312 -0.0043,0.146628 -0.0037,0.293356 -0.0037,0.440034 0.01056,0.11405 0.03226,0.227383 0.0628,0.337758 0.03352,0.108074 0.04542,0.220299 0.05233,0.332683 0,0 0.440794,0.221548 0.440794,0.221548 v 0 c -0.0056,-0.115324 -0.01471,-0.231061 -0.04735,-0.342449 -0.03134,-0.107168 -0.05155,-0.215899 -0.06987,-0.326134 -6.62e-4,-0.146514 -0.0015,-0.293038 0.0011,-0.439541 0.0052,-0.231806 0.0176,-0.463534 0.04647,-0.693736 0.03772,-0.289262 0.09029,-0.5768105 0.11108,-0.8680737 0.02171,-0.2710203 0.01813,-0.5421759 0.01696,-0.8139448 2.64e-4,-0.2297859 -10e-7,-0.459614 0.0049,-0.6893565 z" />
    <path
       style="fill:#000000;stroke-width:0.264583"
       id="path12"
       d="m 15.989862,9.9474487 c -0.02746,-0.160224 -0.04718,-0.3227287 -0.04281,-0.4854215 0.0012,-0.1429726 0.04501,-0.2761679 0.08867,-0.4102074 0.04531,-0.1444117 0.112292,-0.2756206 0.200579,-0.3979542 0.09754,-0.1354116 0.247693,-0.2092624 0.396077,-0.2758043 0.14813,-0.063503 0.299244,-0.078161 0.456439,-0.050002 0.03114,0.00882 0.06275,0.016102 0.09341,0.026456 0.08275,0.027945 0.104431,0.042209 0.18216,0.0811 0.02811,0.014063 0.111353,0.058197 0.08433,0.042157 -0.110069,-0.065328 -0.222135,-0.1272344 -0.333619,-0.1901171 -0.02788,-0.015727 0.05521,0.032431 0.08281,0.048646 0.157865,0.1020593 0.297618,0.2293665 0.415013,0.3757792 0.111999,0.1562539 0.204825,0.3242072 0.283221,0.4994286 0.08455,0.1745112 0.123916,0.3624611 0.146156,0.5535906 0.02423,0.1706766 -0.01059,0.3314344 -0.07379,0.4888914 -0.08892,0.174281 -0.211989,0.329622 -0.339611,0.477073 -0.123589,0.117545 -0.258097,0.222824 -0.393251,0.326581 -0.149381,0.113675 -0.310542,0.209883 -0.467938,0.311697 -0.162424,0.09249 -0.309856,0.209455 -0.47403,0.298562 -0.130724,0.07641 -0.271416,0.131217 -0.410294,0.189985 -0.355345,0.127844 -0.05962,0.176691 0.299959,0.370207 0.103535,0.0027 0.207112,0.0021 0.31067,0.0018 0.120429,-5.03e-4 0.240859,-7.41e-4 0.361289,-9e-4 0.133658,-4.23e-4 0.267316,-4.76e-4 0.400975,-3.7e-4 0.124582,1.24e-4 0.249165,1.92e-4 0.373748,2.29e-4 0.128011,2.07e-4 0.25602,-2.91e-4 0.38403,-3.18e-4 0.129301,7.4e-5 0.258603,2.04e-4 0.387905,2.65e-4 0.11986,5.4e-5 0.23972,5.9e-5 0.35958,6.4e-5 0.01982,0 0.03964,0 0.05946,10e-7 0,0 -0.399001,-0.289892 -0.399001,-0.289892 v 0 c -0.01982,0 -0.03964,1e-6 -0.05946,1e-6 -0.119801,4e-6 -0.239602,10e-6 -0.359404,6.4e-5 -0.129052,6.8e-5 -0.258105,1.97e-4 -0.387158,2.65e-4 -0.128295,-1.1e-5 -0.25659,-5.3e-4 -0.384886,-3.18e-4 -0.124379,3.2e-5 -0.248758,9e-5 -0.373137,2.22e-4 -0.133882,1.22e-4 -0.267764,8.3e-5 -0.401646,-4e-5 -0.120449,2.05e-4 -0.240897,6.09e-4 -0.361346,8.47e-4 -0.102518,-5e-5 -0.206236,0.0036 -0.307826,-0.01182 0.134487,0.07844 0.275554,0.146561 0.403462,0.235328 0.0107,0.0074 -0.04089,0.03209 -0.02981,0.02525 0.04102,-0.02532 0.08785,-0.03885 0.131878,-0.05766 0.140621,-0.05809 0.27968,-0.119725 0.411851,-0.195643 0.162636,-0.09345 0.311543,-0.209039 0.474895,-0.30166 0.158809,-0.101913 0.319614,-0.200889 0.4702,-0.31499 0.138004,-0.105593 0.275812,-0.212601 0.399513,-0.335009 0.12797,-0.153932 0.253308,-0.313043 0.346712,-0.490788 0.06831,-0.16377 0.108602,-0.331739 0.0847,-0.5106229 C 18.460818,9.7874012 18.42448,9.5942543 18.340746,9.4153383 18.264063,9.2366646 18.171591,9.0665288 18.062743,8.9052193 17.949424,8.7519273 17.80964,8.6223667 17.654296,8.5118063 17.347928,8.3324154 17.048291,8.1138243 16.696775,8.0343977 c -0.164142,-0.018844 -0.322043,0.0027 -0.473214,0.072802 -0.154388,0.07326 -0.308625,0.1538478 -0.410031,0.2968252 -0.09103,0.1265624 -0.160879,0.2618174 -0.208597,0.4107275 -0.04585,0.1381406 -0.09249,0.2752111 -0.09417,0.4229013 -0.0076,0.1647245 0.01386,0.3290242 0.03437,0.4923221 z" />
    <path
       style="fill:#000000;stroke-width:0.264583"
       id="path13"
       d="m 11.739119,17.427617 c -0.0316,0.240632 -0.03575,0.483568 -0.0414,0.725852 -0.0072,0.275801 -0.01375,0.551004 0.0069,0.826256 0.03939,0.262452 0.07132,0.525287 0.08846,0.790149 0.0074,0.160885 0.0044,0.08253 0.0092,0.235058 0,0 0.43489,0.219605 0.43489,0.219605 v 0 c -0.0063,-0.154087 -0.0027,-0.07496 -0.01093,-0.237388 -0.01646,-0.264861 -0.04477,-0.52817 -0.087,-0.790246 -0.02265,-0.274225 -0.0202,-0.548593 -0.01283,-0.823611 0.0067,-0.238303 0.01169,-0.477878 0.05002,-0.713678 z" />
    <path
       style="fill:#000000;stroke-width:0.264583"
       id="path14"
       d="m 12.244996,16.380021 c 0.0016,-0.01893 0.0016,-0.03806 0.0049,-0.05677 0.0045,-0.0255 0.01881,-0.07608 0.03389,-0.0999 0.0034,-0.0054 0.02114,-0.0082 0.01552,-0.01121 -0.470868,-0.251825 -0.531082,-0.325583 -0.407233,-0.186075 0.0084,0.10537 0.0029,0.246762 -0.07037,0.33122 -0.06879,-0.164048 0.0037,0.01982 0.404854,0.20066 0.0131,0.0059 -0.01169,-0.02637 -0.01548,-0.04023 -0.01613,-0.05888 -0.01126,-0.115487 -0.0066,-0.175427 0.01742,-0.07274 0.0075,-0.03667 0.02977,-0.10822 0,0 -0.432602,-0.237271 -0.432602,-0.237271 v 0 c -0.02426,0.07656 -0.01284,0.03728 -0.03404,0.117927 -0.02109,0.205343 0.01246,0.779298 0.48033,0.496163 0.07468,-0.106211 0.08585,-0.248357 0.09264,-0.374378 -0.02318,-0.240905 -0.417774,-0.463362 -0.508443,-0.205771 -0.0214,0.06079 -0.01876,0.06244 -0.02823,0.124505 z" />
    <path
       style="fill:#000000;stroke-width:0.264583"
       id="path15"
       d="m 13.817193,17.253923 c -0.0765,0.238213 -0.113273,0.48586 -0.137722,0.734043 -0.02116,0.291532 -0.02428,0.584044 -0.0269,0.876224 -0.0059,0.218061 0.02153,0.435268 0.05751,0.649853 0.02415,0.189229 0.06165,0.376283 0.09039,0.564797 0.03391,0.27701 -0.01577,0.206233 0.464985,0.33928 0.0019,5.03e-4 0.002,-0.04765 0.0027,-0.131096 2.5e-5,-0.183167 -10e-4,-0.36633 -0.0012,-0.549496 0.0027,-0.181351 -0.0074,-0.363147 0.0058,-0.544134 0.01821,-0.205765 0.06532,-0.407228 0.135559,-0.601121 0.05426,-0.180296 0.128617,-0.344159 0.26485,-0.47532 0.102653,-0.07998 0.231186,-0.11535 0.356484,-0.14274 0.02473,-7.15e-4 0.04948,-0.0037 0.07417,-0.0022 0.04535,0.0028 0.108986,0.0161 0.15039,0.03517 0.02504,0.01153 0.09492,0.0561 0.07067,0.04298 -0.360032,-0.194768 -0.451181,-0.283822 -0.278362,-0.13169 0.146861,0.168067 0.226502,0.379063 0.296175,0.587865 0.06982,0.18892 0.109561,0.386372 0.155539,0.581869 0.03659,0.155011 0.04799,0.314016 0.05449,0.472654 0.0048,0.142186 0.0037,0.284483 0.0032,0.426724 -0.0065,0.116716 7.15e-4,0.2304 0.02336,0.344774 0,0 0.444678,0.215617 0.444678,0.215617 v 0 c -0.02269,-0.112124 -0.03952,-0.221438 -0.02928,-0.336726 4.6e-5,-0.142965 1.84e-4,-0.285946 -0.0028,-0.428886 -0.0065,-0.161443 -0.01696,-0.323566 -0.05207,-0.481717 -0.04516,-0.197499 -0.08832,-0.396319 -0.157149,-0.587271 -0.06755,-0.214299 -0.147828,-0.427328 -0.283549,-0.608918 -0.19604,-0.199032 -0.06398,-0.07621 -0.556558,-0.361368 -0.0969,-0.0561 -0.208641,-0.06539 -0.317287,-0.04883 -0.132717,0.03276 -0.266434,0.07323 -0.370953,0.165555 -0.137726,0.138841 -0.215659,0.309852 -0.272036,0.496247 -0.07216,0.197366 -0.123486,0.401903 -0.144122,0.61145 -0.01584,0.182125 -0.0043,0.365243 -0.0073,0.547891 7.41e-4,0.182543 0.0017,0.365106 -5.02e-4,0.547639 -5.56e-4,0.02368 -9e-4,0.04736 -0.0017,0.07103 -5.82e-4,0.01832 -0.01721,0.04412 -0.0024,0.05493 0.5487,0.400778 0.444226,0.382977 0.414602,0.105869 -0.02906,-0.189184 -0.06969,-0.376358 -0.0922,-0.566569 -0.03648,-0.212593 -0.06704,-0.427273 -0.06385,-0.643596 3.44e-4,-0.291073 7.14e-4,-0.582529 0.02354,-0.872902 0.02385,-0.244241 0.05553,-0.490379 0.142592,-0.721441 z" />
    <path
       style="fill:#000000;stroke-width:0.264583"
       id="path16"
       d="m 17.042576,16.545631 c -0.0032,0.200483 0.02125,0.399604 0.03774,0.599058 0.0297,0.185385 0.05793,0.37017 0.07163,0.557532 0.02886,0.223288 0.0504,0.446959 0.06202,0.6718 0.0078,0.188999 0.0092,0.378189 0.0092,0.567325 -2.91e-4,0.133877 -9.26e-4,0.267754 -0.0012,0.401631 -2.49e-4,0.11917 -2.64e-4,0.238339 -2.91e-4,0.357509 0.0022,0.123672 0.06581,0.225137 0.129974,0.32587 0.161677,0.218963 0.427982,0.371314 0.697932,0.41022 0.109805,0.01489 0.216309,0.0095 0.303388,-0.06377 0.03823,-0.02726 0.06491,-0.06574 0.09321,-0.102367 0,0 -0.424672,-0.253396 -0.424672,-0.253396 v 0 c -0.0266,0.03307 -0.0519,0.06721 -0.08733,0.09164 -0.08259,0.05632 -0.184122,0.04596 -0.278589,0.03045 -0.187002,-0.04282 -0.340058,-0.173357 0.271899,0.191593 0.01516,0.009 -0.03177,-0.01567 -0.0463,-0.0257 -0.0404,-0.02789 -0.04729,-0.04184 -0.07849,-0.07981 -0.05851,-0.09488 -0.131906,-0.185401 -0.141576,-0.300815 1.6e-5,-0.119187 4.6e-5,-0.238373 7.5e-5,-0.35756 9e-6,-0.134287 2.4e-5,-0.268574 -6.88e-4,-0.40286 -0.0012,-0.190494 -0.003,-0.381007 -0.01215,-0.571326 -0.01054,-0.224734 -0.02834,-0.448753 -0.05975,-0.671628 -0.01147,-0.187921 -0.03459,-0.373796 -0.07161,-0.558503 -0.01721,-0.197079 -0.04342,-0.39435 -0.03397,-0.592493 z" />
    <path
       style="fill:#000000;stroke-width:0.264583"
       id="path17"
       d="m 16.914983,18.458944 c 0.157833,-0.06198 0.323558,-0.09623 0.486228,-0.141883 0.157502,-0.04886 0.322166,-0.0626 0.485894,-0.07186 0.13246,-0.0059 0.265087,-0.0053 0.397643,-0.005 0,0 -0.398827,-0.289797 -0.398827,-0.289797 v 0 c -0.132684,1.53e-4 -0.265467,5.03e-4 -0.397948,0.0088 -0.165717,0.01215 -0.331816,0.02995 -0.490962,0.08049 -0.164777,0.04429 -0.329882,0.08632 -0.491515,0.141469 z" />
  </g>
</svg>
