<?xml version="1.0" encoding="UTF-8" standalone="no"?>
<!-- Created with Inkscape (http://www.inkscape.org/) -->

<svg
   width="128"
   height="128"
   viewBox="0 0 33.866666 33.866666"
   version="1.1"
   id="svg1"
   sodipodi:docname="p1-score-variable-box-0.svg"
   inkscape:version="1.3.2 (091e20ef0f, 2023-11-25)"
   xmlns:inkscape="http://www.inkscape.org/namespaces/inkscape"
   xmlns:sodipodi="http://sodipodi.sourceforge.net/DTD/sodipodi-0.dtd"
   xmlns="http://www.w3.org/2000/svg"
   xmlns:svg="http://www.w3.org/2000/svg">
  <sodipodi:namedview
     id="namedview1"
     pagecolor="#ffffff"
     bordercolor="#000000"
     borderopacity="1"
     inkscape:showpageshadow="2"
     inkscape:pageopacity="0.0"
     inkscape:pagecheckerboard="0"
     inkscape:deskcolor="#d1d1d1"
     inkscape:document-units="mm"
     inkscape:zoom="3.1429293"
     inkscape:cx="11.136108"
     inkscape:cy="37.862767"
     inkscape:window-width="1920"
     inkscape:window-height="1128"
     inkscape:window-x="0"
     inkscape:window-y="0"
     inkscape:window-maximized="1"
     inkscape:current-layer="layer1" />
  <defs
     id="defs1" />
  <g
     inkscape:groupmode="layer"
     id="layer2"
     inkscape:label="Background"
     sodipodi:insensitive="true">
    <rect
       style="fill:#ffffff;fill-opacity:1;stroke-width:0.264583"
       id="rect16"
       width="51.546139"
       height="41.962318"
       x="-7.1432214"
       y="-3.154923" />
  </g>
  <g
     inkscape:label="Layer 1"
     inkscape:groupmode="layer"
     id="layer1">
    <path
       style="fill:#000000;stroke-width:0.264583"
       id="path1"
       d="m 6.7023559,5.9564759 c -0.00482,0.050497 -0.00709,0.1013005 -0.014444,0.1514898 C 6.5528187,7.0295269 6.3521621,7.9408628 6.2099239,8.8614823 6.1566734,9.2061391 6.1114257,9.551985 6.0621766,9.8972363 5.8310721,11.687172 5.6424999,13.482953 5.4802833,15.28044 c -0.046513,0.622806 -0.1050642,1.246652 -0.1044686,1.871854 2.91e-4,0.309031 0.00958,0.378529 0.029403,0.681552 0.035099,0.441233 0.1100024,0.877117 0.1995138,1.310066 0.049717,0.219966 0.076264,0.443452 0.086699,0.668421 0.00324,0.127185 0.03934,0.241323 0.1598898,0.310484 0.3490437,0.200252 0.699357,0.400903 1.0664463,0.565761 0.1241425,0.05575 0.9015412,0.168935 0.9484868,0.176474 0.2519306,0.03175 0.5031583,0.06969 0.7557918,0.09525 0.5233842,0.05296 1.8532358,0.149142 2.3353158,0.179285 1.425113,0.0891 2.852162,0.148666 4.278579,0.211964 1.867796,0.0811 3.736899,0.123205 5.605985,0.160101 0.528565,0.0094 1.057036,0.02538 1.585712,0.02606 0.222306,-0.0098 0.447098,0.01754 0.668368,-0.0083 0.02995,-0.02812 0.07074,-0.04798 0.08985,-0.08435 0.139184,-0.264903 0.22499,-0.875297 0.267611,-1.159211 0.09397,-0.625972 0.08622,-0.689656 0.140198,-1.363325 0.117996,-1.547831 0.15221,-3.099444 0.175471,-4.650919 0.0024,-1.010671 0.03798,-2.020456 0.0754,-3.03026 0.01508,-0.500352 0.0258,-1.000816 0.03776,-1.5012473 0.0075,-0.2229654 0.0081,-0.4460213 0.0075,-0.6690804 0.0088,-0.1792285 0.0061,-0.3207036 -0.175974,-0.4183986 C 22.594223,8.0518208 22.972428,8.1582703 22.159649,8.029445 20.019208,7.8244382 17.866647,7.7909676 15.718376,7.7402305 13.241551,7.6785162 10.764113,7.6539565 8.2868261,7.6201883 7.428104,7.6090202 6.5695554,7.5882925 5.7108997,7.5734764 c -0.1352431,-0.00246 -0.2704939,-0.00441 -0.4057531,-0.00568 0,0 0.797242,0.5789324 0.797242,0.5789324 v 0 c 0.1290409,-0.00188 0.2580645,-0.00467 0.3870795,-0.00787 0.8163015,-0.018875 1.6326083,-0.038762 2.4491397,-0.044767 2.4458772,-0.016613 4.8921792,-0.00494 7.3374812,0.0537 1.352113,0.042681 2.702363,0.093918 4.052428,0.1817405 0.572583,0.037247 1.304004,0.089451 1.883622,0.1540028 0.222978,0.024834 0.444732,0.05964 0.667098,0.08946 0.767919,0.1663017 0.495532,0.1703083 -0.06545,-0.2697628 -0.04113,-0.032263 0.09998,0.034058 0.143798,0.062554 0.07878,0.051225 0.05942,0.081264 0.05991,0.1619123 1.98e-4,0.033041 3.17e-4,0.066083 4.5e-4,0.099124 -2.65e-4,0.2250659 7.14e-4,0.4501142 0.0058,0.6751357 0.006,0.5056571 0.0047,1.0113847 -0.0033,1.5170167 -0.0099,1.022236 -0.01456,2.044407 -0.0067,3.066682 -0.0096,1.549857 -0.03168,3.102094 -0.167199,4.646896 -0.06925,0.594621 -0.07864,0.771886 -0.182272,1.332059 -0.05163,0.279052 -0.145269,0.807381 -0.308138,1.058992 -0.01261,0.01948 -0.04007,0.02341 -0.0601,0.03512 -0.217354,0.01203 -0.435422,0.0042 -0.652987,0.0095 -0.503694,0.0052 -1.007148,0.02399 -1.510887,0.02709 -1.823513,0.01426 -3.647262,-0.0042 -5.469923,-0.06417 -2.504218,-0.09413 -5.0189122,-0.195262 -7.4965462,-0.594487 -0.1967212,-0.03944 -0.3947787,-0.07272 -0.5901637,-0.11832 -0.1353989,-0.0316 -0.4786183,-0.2288 -0.4014809,-0.113122 0.1275313,0.191251 0.3868021,0.24856 0.5774428,0.377001 0.014772,0.01 -0.1348711,-0.04453 -0.1743813,-0.139888 -0.011568,-0.02792 -0.0083,-0.05987 -0.012449,-0.0898 -0.00937,-0.231951 -0.029044,-0.46285 -0.089116,-0.68822 C 6.3757907,19.130263 6.2826703,18.694255 6.238006,18.250393 6.1658489,17.389728 6.1958034,16.538183 6.2434935,15.676426 6.347706,13.866307 6.5049968,12.05899 6.7538044,10.262544 6.8063876,9.9199929 6.8525254,9.5763899 6.9115545,9.2348903 7.07699,8.2778001 7.3113693,7.3372921 7.5840806,6.4057394 Z" />
    <path
       style="fill:#000000;stroke-width:0.264583"
       id="path2"
       d="m 5.1518081,22.225333 c -0.03922,0.392935 -0.065454,0.786861 -0.080842,1.181415 -0.013174,0.422191 -0.017463,0.844614 -0.025424,1.266934 -0.00393,0.204731 -0.00619,0.409497 -0.00795,0.614258 2.108e-4,0.08015 8.202e-4,0.160289 8.996e-4,0.240438 0,0 0.8757626,0.44615 0.8757626,0.44615 v 0 c -3.07e-5,-0.07995 5.027e-4,-0.159897 4.498e-4,-0.239848 -0.00243,-0.2074 -0.00556,-0.414792 -0.00861,-0.622183 -0.00528,-0.42345 -0.00521,-0.846987 0.010835,-1.270245 0.017298,-0.388192 0.03347,-0.778661 0.1080539,-1.160988 z" />
    <path
       style="fill:#000000;stroke-width:0.264583"
       id="path3"
       d="m 5.878147,22.813451 c 0.1898134,-0.104114 0.3991764,-0.150764 0.6115889,-0.179405 0.2611096,-0.0265 0.5239229,-0.02714 0.7860967,-0.02655 0.1872376,-0.0077 0.365172,0.02034 0.5270404,0.115494 -1.329931,-0.783473 -0.7990154,-0.516858 -0.5018151,-0.20505 0.07422,0.0727 0.1312918,0.145831 0.1583661,0.246728 0.031669,0.143076 0.011065,0.197984 -0.068219,0.316385 -0.109855,0.141392 -0.2665902,0.229912 -0.4208523,0.314636 -0.136325,0.05083 -0.2756612,0.08987 -0.4201954,0.107615 -0.2166278,0.02002 -0.4344638,0.02053 -0.6518314,0.02058 -0.1490001,-0.0019 -0.2953671,-0.01022 -0.4414854,0.02088 0,0 0.810082,0.566708 0.810082,0.566708 v 0 c 0.1402212,-0.02047 0.282653,-0.0063 0.4238426,-0.01283 0.2206805,-0.0036 0.4420965,-0.0052 0.6616364,-0.02989 0.153049,-0.02524 0.3044243,-0.0677 0.4436676,-0.137208 C 7.957439,23.832474 8.1204459,23.730836 8.2387139,23.57944 8.3292576,23.451383 8.376441,23.356181 8.3493297,23.19629 8.3332536,23.082178 8.3042637,22.976898 8.2099183,22.901764 7.906451,22.522082 7.4703315,22.338401 7.0341928,22.109331 c -0.1750927,-0.06966 -0.3602963,-0.08206 -0.5477552,-0.07456 -0.2648685,0.0042 -0.5306743,0.0053 -0.7939241,0.03807 -0.2208911,0.03665 -0.4327792,0.09956 -0.6370886,0.192328 z" />
    <path
       style="fill:#000000;stroke-width:0.264583"
       id="path5"
       d="m 9.4386944,25.887377 c 0.1741339,-0.0036 0.3483454,-0.0029 0.52251,-0.0023 0.1564366,-0.02253 0.3126766,-0.0419 0.4704976,-0.05115 0.181721,-0.0086 0.363702,-0.009 0.545586,-0.0088 0.13254,0.0012 0.260808,0.03701 0.393038,0.04916 0.118647,-0.0038 0.22884,0.03759 0.34462,0.05575 0.113268,0.01449 0.227654,0.01542 0.341662,0.01652 0.0788,3.44e-4 0.03936,2.32e-4 0.118312,3.17e-4 0,0 -0.798731,-0.580929 -0.798731,-0.580929 v 0 c -0.07855,-7.15e-4 -0.03934,-2.06e-4 -0.11763,-0.0015 -0.111458,-0.0032 -0.22338,-0.0077 -0.33298,-0.02997 -0.114829,-0.02403 -0.229056,-0.04379 -0.346647,-0.04889 -0.131707,-0.01776 -0.262214,-0.04801 -0.396211,-0.03724 -0.1833573,0.0017 -0.3668538,0.0025 -0.5499566,0.01332 -0.1557957,0.01199 -0.3099374,0.03696 -0.4658127,0.04632 -0.1762797,6.08e-4 -0.352602,0.0012 -0.5288526,-0.0023 z" />
    <path
       style="fill:#000000;stroke-width:0.264583"
       id="path6"
       d="m 10.967411,25.693419 c -0.07047,-0.253614 -0.08752,-0.517644 -0.103572,-0.779146 -0.01161,-0.239457 -0.01141,-0.47921 -0.01201,-0.718874 0.0079,-0.166024 0.03531,-0.330183 0.0511,-0.49552 0.01097,-0.123077 0.0128,-0.246677 0.01388,-0.370155 5.82e-4,-0.118622 2.46e-4,-0.237246 10e-5,-0.355868 -0.0026,-0.0961 -0.0316,-0.188328 -0.04067,-0.283742 -0.301087,-0.148239 -0.59429,-0.313699 -0.903259,-0.444719 -0.0014,-5.82e-4 -0.3257558,0.384018 -0.3477725,0.409198 -0.2050032,0.22042 -0.4249846,0.425643 -0.64334,0.63257 -0.098104,0.08711 -0.1981123,0.171205 -0.3022033,0.250998 0,0 0.8248208,0.518658 0.8248208,0.518658 v 0 c 0.1030922,-0.08426 0.2049896,-0.169898 0.3016893,-0.261549 0.2201007,-0.209168 0.4418797,-0.416688 0.6495877,-0.638357 0.08524,-0.09421 0.167846,-0.19121 0.254257,-0.284326 0.02048,-0.02207 0.04138,-0.04378 0.06324,-0.06449 0.01202,-0.01139 0.05222,-0.02272 0.03829,-0.03167 -0.273809,-0.175864 -0.56403,-0.32476 -0.8460457,-0.487139 0.00733,0.0012 0.017576,-0.0023 0.022005,0.0037 0.028552,0.03853 0.020248,0.183163 0.0494,0.232607 1.18e-4,0.118406 3.71e-4,0.236813 2.11e-4,0.355219 -4.49e-4,0.121438 -0.001,0.242966 -0.0087,0.364208 -0.01222,0.169362 -0.035611,0.337564 -0.047436,0.506952 7.143e-4,0.242378 0.00384,0.48485 0.016367,0.726944 0.013628,0.263598 0.033488,0.527536 0.079264,0.787772 z" />
    <path
       style="fill:#000000;stroke-width:0.264583"
       id="path7"
       d="m 13.13942,25.8748 c 0.178948,-0.02631 0.35967,-0.03722 0.540257,-0.0442 0.130394,0.0083 0.253807,-0.01277 0.380481,-0.03816 0.156349,-0.0227 0.314846,-0.02381 0.472513,-0.02618 0.163436,-0.0015 0.326878,-1.89e-4 0.490313,6.08e-4 0.122724,6.09e-4 0.245448,7.41e-4 0.368173,8.47e-4 0.05926,3.2e-5 0.118509,3.5e-5 0.177763,4e-5 0,0 -0.798997,-0.580525 -0.798997,-0.580525 v 0 c -0.05924,-1.4e-5 -0.118479,-2.9e-5 -0.177719,-5.3e-5 -0.122255,-4.4e-5 -0.244511,-1.42e-4 -0.366766,1.71e-4 -0.161884,5.82e-4 -0.323768,0.0019 -0.485625,0.0051 -0.164062,0.0034 -0.329511,0.0025 -0.491178,0.0345 -0.121434,0.02406 -0.243538,0.02584 -0.367082,0.02994 -0.183248,0.01133 -0.365975,0.02855 -0.54861,0.04722 z" />
    <path
       style="fill:#000000;stroke-width:0.264583"
       id="path12"
       d="m 16.395956,23.103217 c -0.179601,0.0045 -0.359284,0.003 -0.538921,0.0021 -0.160605,-0.01729 -0.291705,0.02219 -0.425788,0.107487 -0.118814,0.09212 -0.201745,0.219012 -0.283798,0.342936 -0.07907,0.131306 -0.144376,0.270792 -0.188523,0.417607 -0.03901,0.129072 -0.02552,0.24204 0.07524,0.334025 0.647694,0.452586 0.747266,0.46884 1.290706,0.624897 0.145024,0.04294 0.294996,0.05405 0.44518,0.05943 0.151411,0.0046 0.302882,0.0018 0.454327,0.0016 0.07556,-0.0046 0.14915,0.0039 0.219316,0.03333 0.02195,0.0092 0.08427,0.04428 0.0636,0.03248 -0.834531,-0.476765 -1.014846,-0.601668 -0.70462,-0.391385 0.103332,0.07495 0.186314,0.170324 0.256097,0.276334 0.04955,0.09056 0.06076,0.194438 0.05717,0.296044 -0.0261,0.124192 -0.111334,0.228094 -0.192042,0.322727 -0.08768,0.09981 -0.179488,0.190263 -0.302551,0.243151 -0.118792,0.03924 -0.245204,0.0374 -0.368858,0.03895 -0.0987,0.0041 -0.197121,0.0022 -0.282803,-0.05092 0,0 0.778844,0.610917 0.778844,0.610917 v 0 c 0.100261,0.01985 0.200581,0.02356 0.302717,0.01715 0.134823,-0.0053 0.271144,-0.01229 0.394317,-0.07371 0.126129,-0.07084 0.229715,-0.16903 0.323759,-0.278536 0.09049,-0.113132 0.184654,-0.230849 0.222698,-0.373125 0.01599,-0.116135 0.0041,-0.235571 -0.03107,-0.347591 -0.05387,-0.122349 -0.144408,-0.230351 -0.246656,-0.31542 -0.350846,-0.328408 -0.79715,-0.630736 -1.285138,-0.617949 -0.150923,2.53e-4 -0.301948,-9.9e-5 -0.452738,-0.0071 -0.14557,-0.01024 -0.289758,-0.03182 -0.42937,-0.07588 -0.08288,-0.02444 -0.166644,-0.04649 -0.248778,-0.07337 -0.325249,-0.106436 -0.751556,-0.429165 0.655768,0.407567 -0.114883,-0.05034 -0.162967,-0.08606 -0.129167,-0.22187 0.03653,-0.13834 0.0969,-0.268959 0.170568,-0.391458 0.07675,-0.109937 0.149655,-0.22776 0.262236,-0.304666 0.125604,-0.06586 0.253405,-0.07404 0.394068,-0.06628 0.181598,-8.73e-4 0.363238,-0.0023 0.544803,0.0021 z" />
    <path
       style="fill:#000000;stroke-width:0.264583"
       id="path13"
       d="m 19.376508,23.566692 c -0.262356,-0.03091 -0.526567,-0.03072 -0.789231,-0.0061 -0.253792,0.01433 -0.477801,0.0935 -0.666276,0.263859 -0.156896,0.154929 -0.2139,0.303545 -0.168315,0.518612 0.03788,0.151342 0.126045,0.278916 0.216038,0.403427 0.08208,0.108426 0.153867,0.224657 0.240124,0.329825 0.278046,0.269857 0.65154,0.401871 0.98839,0.596146 0.04875,0.02812 0.09003,0.04994 0.143877,0.06735 0.1083,0.03171 0.222612,0.01565 0.331284,0.04094 0.148302,0.02531 0.298867,0.03486 0.448994,0.04183 0.0916,0.003 0.04695,0.0059 0.134001,-0.0077 0,0 -0.804144,-0.573221 -0.804144,-0.573221 v 0 c -0.07778,0.0012 -0.03661,0.0016 -0.123484,-0.0022 -0.149362,-0.0092 -0.29831,-0.02359 -0.445491,-0.0515 -0.107954,-0.0091 -0.2184,-0.01348 -0.318283,-0.06032 -0.117292,-0.05951 0.02855,0.01528 -0.08958,-0.0479 -0.01595,-0.0085 -0.06392,-0.0338 -0.04833,-0.02463 1.416573,0.833003 0.969546,0.592138 0.695329,0.398792 -0.106107,-0.08441 -0.167667,-0.210454 -0.247895,-0.318086 -0.09067,-0.113703 -0.183911,-0.232931 -0.233469,-0.370583 -0.06891,-0.190373 -0.03233,-0.280155 0.111933,-0.423715 0.178138,-0.148936 0.392368,-0.20375 0.621929,-0.219025 0.265647,-0.01797 0.531973,-0.0085 0.794784,0.03715 z" />
    <path
       style="fill:#000000;stroke-width:0.264583"
       id="path14"
       d="m 20.856427,25.13999 c -0.02571,1.02e-4 -0.05146,0.0018 -0.07713,3.17e-4 -0.06619,-0.0039 -0.126018,-0.01079 -0.186256,-0.04197 -0.03174,-0.01643 -0.118981,-0.07886 -0.08748,-0.06199 0.759742,0.406996 0.934375,0.641837 0.678739,0.329929 -0.116517,-0.223159 -0.08732,-0.470224 0.02176,-0.688636 0.104114,-0.184247 0.270965,-0.27081 0.47001,-0.315628 0.208093,-0.04641 0.366444,-0.01158 0.556635,0.0723 0.34329,0.230377 -0.0611,-0.04396 -0.66877,-0.372281 -0.03038,-0.01641 0.05524,0.04168 0.08041,0.06532 0.07087,0.06657 0.125051,0.147081 0.178445,0.227453 0.07185,0.123675 0.110493,0.261453 0.112538,0.404102 -0.01261,0.122658 -0.111497,0.19292 -0.195667,0.269986 -0.0824,0.08505 -0.186745,0.144102 -0.297628,0.183469 -0.11369,0.03689 -0.226446,0.06896 -0.345443,0.08372 -0.01945,0.0016 -0.0389,0.0032 -0.05834,0.0048 0,0 0.805271,0.571536 0.805271,0.571536 v 0 c 0.02027,-0.0028 0.04055,-0.0056 0.06082,-0.0084 0.122542,-0.02296 0.241395,-0.05952 0.358352,-0.102599 0.11689,-0.05324 0.22654,-0.119985 0.316242,-0.213275 0.103879,-0.09568 0.20803,-0.191945 0.233705,-0.33808 0.01248,-0.158418 -0.02663,-0.314666 -0.0936,-0.458169 -0.268298,-0.49065 -0.722358,-0.681126 -1.256887,-0.92227 -0.196799,-0.06686 -0.390141,-0.07754 -0.592803,-0.02205 -0.217417,0.06686 -0.39864,0.183041 -0.511874,0.387182 -0.123729,0.250029 -0.15625,0.512499 -0.06703,0.781147 0.234329,0.417586 0.04205,0.115916 0.975806,0.673838 0.11984,0.07161 0.264902,0.06982 0.398855,0.06046 z" />
    <path
       style="fill:#000000;stroke-width:0.264583"
       id="path15"
       d="m 22.84248,23.826973 c 0.06982,0.184773 0.117171,0.375578 0.14693,0.570521 0.02071,0.150837 0.02492,0.30316 0.0263,0.455187 2.91e-4,0.129691 -8.46e-4,0.259378 -0.0015,0.389066 -0.01148,0.107667 0.02683,0.211825 0.03061,0.318181 0.824217,0.362786 0.88089,0.723623 0.901871,0.323123 0.006,-0.115188 0.0047,-0.230917 0.0046,-0.346219 -0.0067,-0.182725 0.0017,-0.363502 0.02405,-0.544778 0.02146,-0.200647 0.107902,-0.383092 0.198173,-0.560581 0.07854,-0.160072 0.186848,-0.291023 0.337245,-0.386061 0.118419,-0.06593 0.179452,-0.0096 0.276333,0.05292 -1.903698,-0.948131 -0.905337,-0.616475 -0.712797,-0.384725 0.01844,0.0222 0.03338,0.04711 0.05087,0.07007 0.0362,0.05489 0.01821,0.02735 0.05398,0.08263 0,0 0.903319,0.403383 0.903319,0.403383 v 0 c -0.03045,-0.06222 -0.01358,-0.03308 -0.05001,-0.08776 -0.211343,-0.379529 -0.59517,-0.474073 -1.016236,-0.705142 -0.116264,-0.05383 -0.230371,-0.03311 -0.33564,0.03879 -0.154292,0.114172 -0.27053,0.258672 -0.355443,0.431661 -0.09663,0.186588 -0.188606,0.378542 -0.21986,0.588555 -0.02087,0.184888 -0.03679,0.369214 -0.0277,0.555598 -0.0038,0.670735 -0.155919,0.326657 0.870902,0.886998 -0.04748,-0.03974 -0.0489,-0.225277 -0.0548,-0.288184 1.52e-4,-0.13041 4.76e-4,-0.260821 -2.54e-4,-0.39123 -0.0014,-0.156698 -0.0023,-0.313761 -0.02414,-0.469295 -0.02829,-0.196471 -0.06946,-0.39002 -0.133384,-0.57832 z" />
    <path
       style="fill:#000000;stroke-width:0.264583"
       id="path16"
       d="m 26.347159,24.887024 c 0.284685,0.04685 0.572435,0.06801 0.860088,0.08609 0.165817,0.0031 0.345424,0.02531 0.505431,-0.0326 0.08686,-0.03144 0.116086,-0.05864 0.189759,-0.109979 0.163256,-0.141856 0.191095,-0.266979 0.132889,-0.46976 -0.06357,-0.178124 -0.190875,-0.318703 -0.312679,-0.459148 -0.02373,-0.02326 -0.04621,-0.04789 -0.07123,-0.06977 -0.04329,-0.03786 -0.121394,-0.09552 -0.171786,-0.124253 -0.487672,-0.278046 -0.687131,-0.48397 -1.126756,-0.57389 -0.181374,-0.03995 -0.357624,-0.01943 -0.530995,0.04091 -0.242649,0.138624 -0.456298,0.318526 -0.659707,0.508537 -0.150836,0.145667 -0.280495,0.304308 -0.308225,0.516682 -2.33e-4,0.172526 0.07006,0.334433 0.117482,0.49779 0.04546,0.14677 0.0869,0.294694 0.139646,0.439072 0.05147,0.140186 0.1498,0.245415 0.258841,0.342993 0.37519,0.253757 0.749664,0.56297 1.203132,0.633745 0.125796,0.0226 0.249335,0.04878 0.377441,0.05974 0.132964,0.01 0.266351,0.01103 0.399619,0.01168 0.06374,0.0061 0.125376,-0.01167 0.187333,-0.0235 0,0 -0.808032,-0.56724 -0.808032,-0.56724 v 0 c -0.05896,0.008 -0.117644,0.01362 -0.177308,0.01 -0.130967,-0.0015 -0.262178,-0.0038 -0.392439,-0.0188 -0.125478,-0.01692 -0.248212,-0.04747 -0.372962,-0.06875 -0.05112,-0.01404 -0.0649,-0.01607 -0.114181,-0.03671 -0.01923,-0.0081 -0.07459,-0.03714 -0.05662,-0.02658 1.38312,0.813009 0.972603,0.547475 0.668735,0.392906 -0.112547,-0.07794 -0.216212,-0.172397 -0.278923,-0.295942 -0.06184,-0.139419 -0.0974,-0.287538 -0.148186,-0.431082 -0.04194,-0.156016 -0.103829,-0.306983 -0.129215,-0.466734 -0.0046,-0.190697 0.13824,-0.328173 0.260758,-0.458884 0.192792,-0.181758 0.39753,-0.360564 0.643839,-0.465376 0.165992,-0.04246 0.331547,-0.04553 0.498102,6.09e-4 0.347388,0.103743 0.685306,0.364591 -0.563917,-0.373793 -0.02967,-0.01754 0.06097,0.03228 0.09039,0.05026 0.02952,0.01804 0.05817,0.03751 0.08626,0.0577 0.02545,0.01829 0.04951,0.03844 0.07427,0.05765 0.119825,0.132125 0.247886,0.262489 0.327822,0.423473 0.06591,0.160227 0.07712,0.238686 -0.06823,0.357877 -0.20704,0.128094 -0.414097,0.110599 -0.649855,0.09731 -0.292582,-0.01868 -0.584343,-0.04788 -0.872625,-0.102811 z" />
    <path
       style="fill:#000000;fill-opacity:1;stroke-width:0.264583"
       id="path17"
       d="m 13.711017,19.303568 c -0.08267,0.01853 -0.134204,0.02242 -0.209746,-0.01895 -0.278436,-0.183295 -0.6243,-0.358303 0.72036,0.409554 0.01586,0.0091 -0.03032,-0.02036 -0.04535,-0.03073 -0.04364,-0.03013 -0.04735,-0.03343 -0.09095,-0.06563 -0.0854,-0.06323 -0.159934,-0.138409 -0.234356,-0.213682 -0.06475,-0.05917 -0.121428,-0.125983 -0.178574,-0.192309 -0.06141,-0.05474 -0.11491,-0.116636 -0.169529,-0.177884 -0.04789,-0.06187 -0.09108,-0.127122 -0.140268,-0.187986 -0.06139,-0.08113 -0.11832,-0.166652 -0.162851,-0.258242 -0.04546,-0.09546 -0.07665,-0.195427 -0.100431,-0.298119 -0.028,-0.116389 -0.0504,-0.233688 -0.07116,-0.351552 -0.01677,-0.107752 -0.0312,-0.215969 -0.05851,-0.32165 -0.02973,-0.09864 -0.06135,-0.196707 -0.09212,-0.295037 -0.03814,-0.118868 -0.0641,-0.24017 -0.07909,-0.363957 -0.01331,-0.141295 -0.02717,-0.282543 -0.04398,-0.423472 -0.02225,-0.165961 -0.02755,-0.333425 -0.03527,-0.500494 -0.0051,-0.18406 6.09e-4,-0.368124 0.002,-0.552179 -3.71e-4,-0.144951 0.003,-0.289877 0.0026,-0.434825 -4.24e-4,-0.137819 0.01575,-0.274302 0.03672,-0.410219 0.01679,-0.105431 0.02131,-0.212088 0.0304,-0.318309 0.01637,-0.15409 0.05335,-0.305177 0.09845,-0.453131 0.06126,-0.170793 0.124794,-0.341322 0.198043,-0.507399 0.0585,-0.128503 0.12265,-0.254316 0.186264,-0.380332 0.05066,-0.105148 0.112578,-0.204476 0.180275,-0.299398 0.07619,-0.111318 0.162969,-0.214793 0.258715,-0.30967 0.108604,-0.110853 0.221739,-0.216942 0.339633,-0.317866 0.10118,-0.07986 0.204377,-0.156609 0.323373,-0.207352 0.1052,-0.03951 0.211986,-0.06875 0.32475,-0.06736 0.148669,-4.5e-4 0.294308,0.0297 0.436918,0.06897 0.0955,0.03008 0.190557,0.06314 0.277838,0.112839 0.02033,0.01158 0.0802,0.04822 0.05987,0.03663 -0.255329,-0.145575 -0.509939,-0.292405 -0.764909,-0.438608 0.136936,0.09263 0.22862,0.231622 0.313513,0.370238 0.06761,0.119651 0.135822,0.23876 0.209178,0.354986 0.05988,0.09324 0.124548,0.183338 0.182151,0.278008 0.07343,0.122362 0.133598,0.251206 0.188931,0.382504 0.07742,0.187136 0.118493,0.385787 0.16484,0.58213 0.05739,0.224183 0.104366,0.45062 0.139866,0.679269 0.02038,0.134924 0.0359,0.270433 0.04796,0.406324 0.0077,0.103362 0.0097,0.206998 0.01083,0.310603 0.0017,0.148617 0.0028,0.297262 7.94e-4,0.445877 -0.01352,0.211664 -0.05229,0.419997 -0.10719,0.624499 -0.03539,0.148983 -0.102853,0.285992 -0.16649,0.424152 -0.05484,0.115358 -0.0897,0.238618 -0.127751,0.360163 -0.03689,0.119249 -0.06436,0.240774 -0.103852,0.359261 -0.03707,0.111547 -0.07328,0.22338 -0.111863,0.334411 -0.02867,0.08635 -0.05499,0.173404 -0.08502,0.259308 -0.02454,0.07261 -0.04846,0.145566 -0.07619,0.217035 -0.02627,0.07282 -0.0555,0.143793 -0.09027,0.212919 -0.02693,0.06445 -0.06272,0.124452 -0.09546,0.185972 -0.03428,0.06566 -0.08289,0.12182 -0.12363,0.183382 -0.0551,0.06268 -0.100795,0.131776 -0.149385,0.199452 -0.04622,0.06746 -0.09078,0.136792 -0.143927,0.199079 -0.03835,0.02741 -0.06745,0.06997 -0.112137,0.08727 -0.03641,0.02622 -0.07729,0.042 -0.114778,0.06739 -0.05017,0.02558 -0.09727,0.05615 -0.151169,0.07369 -0.02923,0.0234 -0.06465,0.02749 -0.09858,0.03806 -0.01812,0.0056 -0.03537,0.01389 -0.05349,0.01955 -0.02549,0.01031 -0.05437,0.0061 -0.08044,0.01223 -0.02643,0.0062 -0.05144,0.01809 -0.07826,0.02411 -0.0516,0.0083 -0.104109,0.0079 -0.156236,0.0083 -0.04887,1.28e-4 -0.09775,-9e-5 -0.146619,-2.25e-4 0,0 0.79795,0.579837 0.79795,0.579837 v 0 c 0.0496,-6e-5 0.09922,-3.4e-5 0.148789,-0.0021 0.05753,-0.0031 0.115205,-0.0082 0.170448,-0.02576 0.05331,-0.01609 0.108724,-0.0224 0.161049,-0.04225 0.05286,-0.01861 0.105165,-0.03684 0.154717,-0.06359 0.055,-0.02631 0.108987,-0.05486 0.162158,-0.08467 0.03981,-0.02061 0.07898,-0.042 0.115718,-0.06781 0.04599,-0.03532 0.08761,-0.07619 0.125625,-0.119957 0.04931,-0.06691 0.09691,-0.135142 0.141391,-0.205387 0.04974,-0.0684 0.103577,-0.133205 0.153546,-0.201329 0.0431,-0.06418 0.09747,-0.120721 0.131926,-0.190679 0.03209,-0.06279 0.07005,-0.12283 0.09499,-0.189066 0.03445,-0.07201 0.0675,-0.144288 0.09381,-0.219799 0.02942,-0.07282 0.05552,-0.147287 0.07678,-0.222881 0.02778,-0.08721 0.05676,-0.174029 0.08527,-0.260989 0.03227,-0.113082 0.06264,-0.226627 0.100708,-0.337983 0.04156,-0.118777 0.07731,-0.239201 0.111411,-0.360284 0.03192,-0.119313 0.06683,-0.238398 0.116739,-0.351608 0.06113,-0.145751 0.13332,-0.288559 0.165718,-0.444438 0.04439,-0.211761 0.08486,-0.423907 0.112987,-0.638568 0.0044,-0.03186 0.01053,-0.06353 0.01311,-0.09559 0.0094,-0.115925 -0.0054,-0.233738 0.003,-0.349827 0.0011,-0.105063 0.0056,-0.210425 -0.0011,-0.315343 -0.01262,-0.143117 -0.04729,-0.282946 -0.07122,-0.424386 -0.03361,-0.231139 -0.08454,-0.45962 -0.138501,-0.686768 -0.04427,-0.196842 -0.08035,-0.396619 -0.143027,-0.588546 -0.05179,-0.133353 -0.10688,-0.265459 -0.176142,-0.390878 -0.05275,-0.09901 -0.114314,-0.191518 -0.178297,-0.28365 -0.08054,-0.115065 -0.154903,-0.234066 -0.224482,-0.356077 -0.08275,-0.145327 -0.168074,-0.291328 -0.290873,-0.407255 -0.407899,-0.239491 -0.779457,-0.531987 -1.238098,-0.648902 -0.150728,-0.03427 -0.304395,-0.05602 -0.459427,-0.05016 -0.120577,0.0121 -0.236163,0.04705 -0.34594,0.09879 -0.121507,0.06201 -0.230446,0.141164 -0.32996,0.234742 -0.118452,0.104279 -0.240456,0.204439 -0.346726,0.321699 -0.09827,0.09991 -0.192842,0.203975 -0.274,0.318516 -0.07163,0.09868 -0.131296,0.205176 -0.184113,0.315034 -0.06402,0.128472 -0.127979,0.257143 -0.182587,0.38998 -0.06828,0.171716 -0.135399,0.343966 -0.199601,0.517243 -0.04743,0.152153 -0.09601,0.304289 -0.121149,0.462179 -0.01333,0.105395 -0.01923,0.210889 -0.02818,0.316728 -0.01533,0.140904 -0.03183,0.281554 -0.03908,0.423212 -5.56e-4,0.145729 0.0026,0.291442 0.002,0.437174 0.0012,0.186059 0.0068,0.372075 0.0062,0.558156 -0.0023,0.168066 3.17e-4,0.336435 0.01904,0.50366 0.01752,0.139828 0.03235,0.279949 0.04125,0.420634 0.01232,0.127926 0.03208,0.254351 0.06765,0.378064 0.02788,0.09841 0.0572,0.196334 0.08965,0.293292 0.03373,0.101997 0.05392,0.208546 0.06976,0.314612 0.01966,0.118543 0.03704,0.237275 0.06407,0.354257 0.0244,0.106773 0.04578,0.214002 0.09235,0.314172 0.03852,0.09867 0.09227,0.187661 0.148886,0.27698 0.04486,0.06465 0.0965,0.12488 0.142197,0.188895 0.05478,0.08611 -0.0048,-0.0017 0.05634,0.07234 0.03359,0.04068 0.06094,0.08758 0.105716,0.117994 0.06808,0.05716 0.115815,0.1328 0.180165,0.193625 0.07905,0.07473 0.150977,0.156416 0.235696,0.225197 0.04127,0.03504 0.084,0.07407 0.13079,0.101833 0.193736,0.114962 0.623742,0.438573 0.965778,0.548328 0.08186,0.01052 0.161888,-0.0035 0.24327,-0.01363 z" />
  </g>
</svg>
